<svg width="333" height="23" viewBox="0 0 333 23" fill="none" xmlns="http://www.w3.org/2000/svg">
<path d="M6.31314 6.11667C8.91164 4.97886 12.7094 4.26645 16.8353 3.90769H4.65768C4.17078 3.90769 3.68389 3.71293 3.32512 3.35416C2.96635 2.96464 2.77159 2.47774 2.77159 1.96009L2.83822 0.00737234H36.7469C37.2645 -0.0233791 37.7514 0.232883 38.0435 0.658279C38.3357 1.07855 38.3664 1.63208 38.1409 2.11897L34.5379 13.1946C34.1176 14.3632 33.0413 15.2089 31.7754 15.2755H27.3267L31.4166 22.7481H21.3814L17.0967 14.9833C16.6764 14.5631 16.5124 13.9122 16.7379 13.3586L16.7686 13.292C17.1582 12.1901 18.1678 11.4418 19.3005 11.3752H25.0818L27.5163 3.90256H17.0659L10.9259 22.7379H0.890625L6.31314 6.11667Z" fill="black"/>
<path d="M36.4487 22.7437C35.9618 22.7745 35.4442 22.5182 35.152 22.0928C34.8599 21.6725 34.8291 21.119 35.0547 20.6321L38.0119 11.6373C38.0119 11.5399 38.0427 11.4425 38.0785 11.3759C38.1093 11.2785 38.1452 11.2119 38.1452 11.1145L41.1024 2.11971V2.08896L41.1332 1.96083C41.5535 0.858898 42.5631 0.0747347 43.7317 0.0132317H70.2344C70.752 -0.0175198 71.2389 0.238743 71.5362 0.664138C71.8283 1.08441 71.8591 1.63794 71.6336 2.12483L65.5909 20.6372V20.668L65.5601 20.7961C65.1706 21.898 64.1302 22.6771 62.9616 22.7437H36.459H36.4487ZM48.7237 9.52569L45.669 18.8485H56.1245L60.9987 3.90842H50.5432L48.7237 9.52569Z" fill="black"/>
<path d="M71.7836 12.7748C71.4915 12.3545 71.4607 11.801 71.6555 11.3449L74.6743 2.11942C75.0945 0.920107 76.2016 0.105192 77.4675 0.0078125H105.887L105.272 1.95541C104.882 3.05734 103.842 3.8415 102.674 3.903H84.1304L82.3109 9.52027H100.695C101.213 9.48952 101.7 9.74579 101.997 10.1712C102.289 10.5915 102.356 11.145 102.125 11.6319L99.1678 20.6267C98.7476 21.826 97.6713 22.6409 96.4053 22.7383H67.9551L68.606 20.7907C68.9955 19.6836 70.0052 18.9046 71.1737 18.8431H89.7169L91.4697 13.4206H73.0854C72.5678 13.4513 72.0809 13.1951 71.7888 12.7697L71.7836 12.7748Z" fill="black"/>
<path d="M123.194 22.7434L126.249 13.3232H114.656L111.57 22.7434H101.535L108.936 0.0078125H118.971L115.917 9.42802H127.546L130.6 0.0078125H140.636L133.23 22.7434H123.194Z" fill="black"/>
<path d="M136.67 22.7434L144.076 0.0078125H157.391L160.897 17.3824L166.586 0.0078125H176.621L169.215 22.7434H155.9L152.394 5.36882L146.71 22.7434H136.675H136.67Z" fill="black"/>
<path d="M172.654 22.7434L180.06 0.0078125H190.096L182.69 22.7434H172.654Z" fill="black"/>
<path d="M225.494 11.3754H225.658L228.093 3.9028H217.632L211.492 22.7381H201.457L206.88 6.10666C209.478 4.96885 213.276 4.25645 217.402 3.89768H205.224C204.737 3.89768 204.25 3.70292 203.892 3.3134C203.533 2.95463 203.338 2.46773 203.338 1.95008L203.405 0.00248953H237.313C237.831 -0.028262 238.318 0.228 238.61 0.653396C238.902 1.07367 238.933 1.62719 238.707 2.11409L235.104 13.1898C234.684 14.3583 233.608 15.204 232.342 15.2706H218.601C216.1 15.2706 217.304 11.3754 219.867 11.3754H225.484H225.494Z" fill="#FF7700"/>
<path d="M252.218 0.0078125L246.078 18.8431H258.45C258.906 18.8124 259.393 19.0379 259.649 19.4274C259.911 19.8477 259.942 20.3345 259.747 20.7907L259.096 22.7383H234.771L236.037 18.8431L242.183 0.0078125H252.218Z" fill="#FF7700"/>
<path d="M289.212 22.7434H262.873C262.356 22.7742 261.833 22.5179 261.541 22.0925C261.249 21.6722 261.218 21.1187 261.443 20.6318L268.163 0.0078125H278.198L272.094 18.8431H282.518L288.658 0.0078125H298.694L291.969 20.6318C291.549 21.8311 290.473 22.646 289.207 22.7434H289.212Z" fill="#FF7700"/>
<path d="M298.17 12.7748C297.878 12.3545 297.847 11.801 298.042 11.3449L301.061 2.11942C301.481 0.920107 302.588 0.105192 303.854 0.0078125H332.274L331.659 1.95541C331.269 3.05734 330.229 3.8415 329.06 3.903H310.517L308.698 9.52027H327.082C327.6 9.48952 328.086 9.74579 328.384 10.1712C328.676 10.5915 328.742 11.145 328.512 11.6319L325.555 20.6267C325.134 21.826 324.058 22.6409 322.792 22.7383H294.342L294.993 20.7907C295.382 19.6836 296.392 18.9046 297.56 18.8431H316.104L317.856 13.4206H299.472C298.955 13.4513 298.468 13.1951 298.175 12.7697L298.17 12.7748Z" fill="#FF7700"/>
</svg>
