<svg width="190" height="23" viewBox="0 0 190 23" fill="none" xmlns="http://www.w3.org/2000/svg">
<path d="M5.81314 6.11179C8.41164 4.97398 12.2094 4.26157 16.3353 3.9028H4.15768C3.67078 3.9028 3.18389 3.70804 2.82512 3.34928C2.46635 2.95976 2.27159 2.47286 2.27159 1.95521L2.33822 0.00248953H36.2469C36.7645 -0.028262 37.2514 0.228001 37.5435 0.653396C37.8357 1.07367 37.8664 1.62719 37.6409 2.11409L34.0379 13.1898C33.6176 14.3583 32.5413 15.204 31.2754 15.2706H26.8267L30.9166 22.7432H20.8814L16.5967 14.9785C16.1764 14.5582 16.0124 13.9073 16.2379 13.3538L16.2686 13.2871C16.6582 12.1852 17.6678 11.4369 18.8005 11.3703H24.5818L27.0163 3.89768H16.5659L10.4259 22.733H0.390625L5.81314 6.11179Z" fill="black"/>
<path d="M35.9487 22.7379C35.4618 22.7686 34.9442 22.5123 34.652 22.0869C34.3599 21.6667 34.3291 21.1131 34.5547 20.6262L37.5119 11.6314C37.5119 11.5341 37.5427 11.4367 37.5785 11.37C37.6093 11.2727 37.6452 11.206 37.6452 11.1087L40.6024 2.11385V2.0831L40.6332 1.95497C41.0535 0.853038 42.0631 0.0688753 43.2317 0.00737234H69.7344C70.252 -0.0233791 70.7389 0.232883 71.0362 0.658279C71.3283 1.07855 71.3591 1.63208 71.1336 2.11897L65.0909 20.6314V20.6621L65.0601 20.7903C64.6706 21.8922 63.6302 22.6712 62.4616 22.7379H35.959H35.9487ZM48.2237 9.51983L45.169 18.8427H55.6245L60.4987 3.90256H50.0432L48.2237 9.51983Z" fill="black"/>
<path d="M71.2836 12.7689C70.9915 12.3487 70.9607 11.7952 71.1555 11.339L74.1743 2.11356C74.5945 0.914247 75.7016 0.0993329 76.9675 0.00195312H105.387L104.772 1.94955C104.382 3.05148 103.342 3.83564 102.174 3.89714H83.6304L81.8109 9.51441H100.195C100.713 9.48366 101.2 9.73993 101.497 10.1653C101.789 10.5856 101.856 11.1391 101.625 11.626L98.6678 20.6208C98.2476 21.8201 97.1713 22.6351 95.9053 22.7324H67.4551L68.106 20.7848C68.4955 19.6778 69.5052 18.8987 70.6737 18.8372H89.2169L90.9697 13.4147H72.5854C72.0678 13.4455 71.5809 13.1892 71.2888 12.7638L71.2836 12.7689Z" fill="black"/>
<path d="M122.694 22.7376L125.749 13.3173H114.156L111.07 22.7376H101.035L108.436 0.00195312H118.471L115.417 9.42216H127.046L130.1 0.00195312H140.136L132.73 22.7376H122.694Z" fill="black"/>
<path d="M136.17 22.7376L143.576 0.00195312H156.891L160.397 17.3765L166.086 0.00195312H176.121L168.715 22.7376H155.4L151.894 5.36296L146.21 22.7376H136.175H136.17Z" fill="black"/>
<path d="M172.154 22.7376L179.56 0.00195312H189.596L182.19 22.7376H172.154Z" fill="black"/>
</svg>
