<svg width="343" height="67" viewBox="0 0 343 67" fill="none" xmlns="http://www.w3.org/2000/svg">
<mask id="mask0_2249_470" style="mask-type:alpha" maskUnits="userSpaceOnUse" x="0" y="0" width="343" height="67">
<rect x="0.5" width="342" height="67" fill="#D9D9D9"/>
</mask>
<g mask="url(#mask0_2249_470)">
<path d="M24.9225 28.1167C27.521 26.9789 31.3188 26.2665 35.4446 25.9077H23.2671C22.7802 25.9077 22.2933 25.7129 21.9345 25.3542C21.5757 24.9646 21.381 24.4777 21.381 23.9601L21.4476 22.0074H55.3562C55.8739 21.9766 56.3608 22.2329 56.6529 22.6583C56.9451 23.0785 56.9758 23.6321 56.7503 24.119L53.1473 35.1946C52.727 36.3632 51.6507 37.2089 50.3847 37.2755H45.936L50.026 44.7481H39.9907L35.706 36.9833C35.2858 36.5631 35.1218 35.9122 35.3473 35.3586L35.378 35.292C35.7675 34.1901 36.7772 33.4418 37.9099 33.3752H43.6912L46.1257 25.9026H35.6753L29.5352 44.7379H19.5L24.9225 28.1167Z" fill="black"/>
<path d="M55.0581 44.7437C54.5712 44.7745 54.0535 44.5182 53.7614 44.0928C53.4693 43.6725 53.4385 43.119 53.664 42.6321L56.6213 33.6373C56.6213 33.5399 56.652 33.4425 56.6879 33.3759C56.7187 33.2785 56.7546 33.2119 56.7546 33.1145L59.7118 24.1197V24.089L59.7426 23.9608C60.1628 22.8589 61.1725 22.0747 62.3411 22.0132H88.8437C89.3614 21.9825 89.8483 22.2387 90.1455 22.6641C90.4377 23.0844 90.4684 23.6379 90.2429 24.1248L84.2003 42.6372V42.668L84.1695 42.7961C83.78 43.898 82.7396 44.6771 81.571 44.7437H55.0683H55.0581ZM67.3331 31.5257L64.2784 40.8485H74.7339L79.608 25.9084H69.1525L67.3331 31.5257Z" fill="black"/>
<path d="M90.393 34.7748C90.1009 34.3545 90.0701 33.801 90.2649 33.3449L93.2837 24.1194C93.7039 22.9201 94.811 22.1052 96.0769 22.0078H124.496L123.881 23.9554C123.492 25.0573 122.451 25.8415 121.283 25.903H102.74L100.92 31.5203H119.305C119.822 31.4895 120.309 31.7458 120.606 32.1712C120.898 32.5915 120.965 33.145 120.734 33.6319L117.777 42.6267C117.357 43.826 116.281 44.6409 115.015 44.7383H86.5645L87.2154 42.7907C87.6049 41.6836 88.6146 40.9046 89.7831 40.8431H108.326L110.079 35.4206H91.6948C91.1772 35.4513 90.6903 35.1951 90.3981 34.7697L90.393 34.7748Z" fill="black"/>
<path d="M141.804 44.7434L144.858 35.3232H133.265L130.18 44.7434H120.145L127.545 22.0078H137.581L134.526 31.428H146.155L149.21 22.0078H159.245L151.839 44.7434H141.804Z" fill="black"/>
<path d="M155.279 44.7434L162.685 22.0078H176.001L179.506 39.3824L185.195 22.0078H195.231L187.825 44.7434H174.509L171.004 27.3688L165.32 44.7434H155.284H155.279Z" fill="black"/>
<path d="M191.264 44.7434L198.67 22.0078H208.705L201.299 44.7434H191.264Z" fill="black"/>
<path d="M244.104 33.3754H244.268L246.702 25.9028H236.242L230.102 44.7381H220.066L225.489 28.1067C228.087 26.9689 231.885 26.2564 236.011 25.8977H223.833C223.347 25.8977 222.86 25.7029 222.501 25.3134C222.142 24.9546 221.947 24.4677 221.947 23.9501L222.014 22.0025H255.923C256.44 21.9717 256.927 22.228 257.219 22.6534C257.511 23.0737 257.542 23.6272 257.317 24.1141L253.714 35.1898C253.293 36.3583 252.217 37.204 250.951 37.2706H237.21C234.709 37.2706 235.914 33.3754 238.476 33.3754H244.094H244.104Z" fill="#FF7700"/>
<path d="M269.596 36.9836C269.176 36.2046 269.206 35.2615 269.663 34.5132C270.119 33.7649 270.928 33.3447 271.805 33.3754H277.586L280.021 25.9028H269.56L263.42 44.7381H253.385C255.855 37.1681 258.32 29.5725 260.791 22.0025H289.241C289.759 21.9717 290.246 22.228 290.538 22.6534C290.83 23.0737 290.861 23.6272 290.635 24.1141L287.032 35.1898C286.612 36.3583 285.505 37.204 284.27 37.2706H279.821L283.911 44.7432H273.876L269.591 36.9785L269.596 36.9836Z" fill="#FF7700"/>
<path d="M288.951 44.7437C288.464 44.7745 287.946 44.5182 287.654 44.0928C287.362 43.6725 287.331 43.119 287.557 42.6321L290.514 33.6373C290.514 33.5399 290.545 33.4425 290.58 33.3759C290.611 33.2785 290.647 33.2119 290.647 33.1145L293.604 24.1197V24.089L293.635 23.9608C294.055 22.8589 295.065 22.0747 296.234 22.0132H322.736C323.254 21.9825 323.741 22.2387 324.038 22.6641C324.33 23.0844 324.361 23.6379 324.136 24.1248L318.093 42.6372V42.668L318.062 42.7961C317.673 43.898 316.632 44.6771 315.464 44.7437H288.961H288.951ZM301.226 31.5257L298.171 40.8485H308.626L313.501 25.9084H303.045L301.226 31.5257Z" fill="#FF7700"/>
</g>
</svg>
