<svg width="60" height="60" viewBox="0 0 60 60" fill="none" xmlns="http://www.w3.org/2000/svg">
<mask id="mask0_1413_2732" style="mask-type:alpha" maskUnits="userSpaceOnUse" x="0" y="0" width="60" height="60">
<rect width="60" height="60" fill="#D9D9D9"/>
</mask>
<g mask="url(#mask0_1413_2732)">
<path d="M31.8734 3.17727L5.53438 55.7216H57.8113C58.8809 55.7216 59.9505 56.6575 59.9505 57.8608C59.9505 58.9304 58.8809 60 57.8113 60H2.05817C1.38967 60 0.721164 59.5989 0.320063 58.9304C-0.081039 58.2619 -0.081039 57.4597 0.186362 56.7912L27.9961 1.17176C28.5309 0.102153 29.8679 -0.298948 30.9375 0.235854C32.0071 0.770656 32.4082 2.10766 31.8734 3.17727ZM39.4943 27.6445C40.1628 28.7141 39.8954 30.0511 38.8258 30.7196C37.8899 31.3881 36.6866 31.1207 36.0181 30.1848C34.0126 27.7782 31.8734 25.639 29.4668 23.7672C28.6646 23.0986 28.3972 22.029 28.932 21.0931C29.4668 19.8898 30.9375 19.4887 32.0071 20.2909C34.8148 22.4301 37.2214 24.9705 39.4943 27.6445ZM41.3661 39.009C40.965 38.0731 41.2324 36.8698 42.1683 36.2013C43.2379 35.5328 44.7086 35.9339 45.2435 37.1372C46.7142 40.4797 47.9175 44.0896 48.586 47.9669C48.7197 49.1703 47.7838 50.3736 46.4468 50.3736C45.3772 50.3736 44.4412 49.5714 44.3075 48.5018C43.639 45.1592 42.7031 41.9504 41.3661 39.009Z" fill="black"/>
</g>
</svg>
