<svg width="60" height="60" viewBox="0 0 60 60" fill="none" xmlns="http://www.w3.org/2000/svg">
<mask id="mask0_1413_1125" style="mask-type:alpha" maskUnits="userSpaceOnUse" x="0" y="0" width="60" height="60">
<rect width="60" height="60" fill="#D9D9D9"/>
</mask>
<g mask="url(#mask0_1413_1125)">
<path d="M26.6667 6.33333H10C8.125 6.33333 6.66667 7.89583 6.66667 9.66667V53H30V9.66667C30 7.89583 28.4375 6.33333 26.6667 6.33333ZM3.33333 9.66667C3.33333 6.02083 6.25 3 10 3H26.6667C30.3125 3 33.3333 6.02083 33.3333 9.66667V29.6667H35C39.5833 29.6667 43.3333 33.4167 43.3333 38V43C43.3333 44.875 44.7917 46.3333 46.6667 46.3333C48.4375 46.3333 50 44.875 50 43V31.2292C46.1458 30.3958 43.3333 27.0625 43.3333 23V18C43.3333 17.1667 44.0625 16.3333 45 16.3333H46.6667V11.3333C46.6667 10.5 47.3958 9.66667 48.3333 9.66667C49.1667 9.66667 50 10.5 50 11.3333V16.3333H53.3333V11.3333C53.3333 10.5 54.0625 9.66667 55 9.66667C55.8333 9.66667 56.6667 10.5 56.6667 11.3333V16.3333H58.3333C59.1667 16.3333 60 17.1667 60 18V23C60 27.0625 57.0833 30.3958 53.3333 31.2292V43C53.3333 46.75 50.3125 49.6667 46.6667 49.6667C42.9167 49.6667 40 46.75 40 43V38C40 35.2917 37.7083 33 35 33H33.3333V53H35C35.8333 53 36.6667 53.8333 36.6667 54.6667C36.6667 55.6042 35.8333 56.3333 35 56.3333H1.66667C0.729167 56.3333 0 55.6042 0 54.6667C0 53.8333 0.729167 53 1.66667 53H3.33333V9.66667ZM46.6667 19.6667V23C46.6667 25.8125 48.8542 28 51.6667 28C54.375 28 56.6667 25.8125 56.6667 23V19.6667H46.6667ZM21.25 15.7083L15.8333 23H24.1667C24.7917 23 25.3125 23.4167 25.625 23.9375C25.9375 24.5625 25.8333 25.1875 25.4167 25.7083L17.9167 35.7083C17.3958 36.4375 16.3542 36.6458 15.625 36.0208C14.8958 35.5 14.6875 34.4583 15.3125 33.7292L20.8333 26.3333H12.5C11.875 26.3333 11.25 26.0208 10.9375 25.5C10.7292 24.875 10.7292 24.25 11.1458 23.7292L18.6458 13.7292C19.1667 13 20.2083 12.7917 20.9375 13.4167C21.6667 13.9375 21.875 14.9792 21.25 15.7083Z" fill="black"/>
</g>
</svg>
