<svg width="60" height="60" viewBox="0 0 60 60" fill="none" xmlns="http://www.w3.org/2000/svg">
<mask id="mask0_1413_2721" style="mask-type:alpha" maskUnits="userSpaceOnUse" x="0" y="0" width="60" height="60">
<rect width="60" height="60" fill="#D9D9D9"/>
</mask>
<g mask="url(#mask0_1413_2721)">
<path d="M15.3333 51.6667L15.3333 44.7917C13.9792 44.6875 12.8333 44.1667 12 43.3333L12 51.6667C12 56.3542 15.6458 60 20.3333 60H37C41.5833 60 45.3333 56.3542 45.3333 51.6667V31.25L42 34.7917V51.6667C42 54.4792 39.7083 56.6667 37 56.6667H20.3333C17.5208 56.6667 15.3333 54.4792 15.3333 51.6667ZM12 35.4167L15.3333 31.9792L15.3333 15C15.3333 12.2917 17.5208 10 20.3333 10L37 10C39.7083 10 42 12.2917 42 15L42 21.9792C43.25 22.0833 44.3958 22.6042 45.3333 23.4375L45.3333 15C45.3333 10.4167 41.5833 6.66667 37 6.66667L20.3333 6.66667C15.6458 6.66667 12 10.4167 12 15L12 35.4167ZM35.3333 1.66667C35.3333 0.833334 34.5 4.7354e-07 33.6667 4.37114e-07L23.6667 0C22.7292 -4.09794e-08 22 0.833333 22 1.66667C22 2.60417 22.7292 3.33333 23.6667 3.33333L33.6667 3.33333C34.5 3.33333 35.3333 2.60417 35.3333 1.66667ZM27.8333 40.1042V35C27.8333 34.4792 27.5208 33.9583 27 33.6458C26.5833 33.3333 25.9583 33.3333 25.4375 33.5417L21.0625 35.5208L29.5 26.6667V31.6667C29.5 32.2917 29.7083 32.8125 30.2292 33.125C30.75 33.4375 31.2708 33.4375 31.7917 33.2292L36.1667 31.25L27.8333 40.1042ZM43.6667 27.3958C43.6667 25.8333 42 24.7917 40.6458 25.5208L32.8333 29.0625V23.9583C32.8333 22.7083 31.7917 21.6667 30.5417 21.6667C29.9167 21.6667 29.2917 21.9792 28.875 22.3958L14.1875 37.9167C13.875 38.3333 13.6667 38.8542 13.6667 39.375C13.6667 40.9375 15.2292 41.875 16.5833 41.25L24.5 37.6042L24.5 42.8125C24.5 44.0625 25.4375 45 26.6875 45C27.3125 45 27.9375 44.7917 28.3542 44.375L43.0417 28.8542C43.4583 28.4375 43.6667 27.9167 43.6667 27.3958Z" fill="black"/>
</g>
</svg>
