<svg width="60" height="60" viewBox="0 0 60 60" fill="none" xmlns="http://www.w3.org/2000/svg">
<mask id="mask0_1413_2744" style="mask-type:alpha" maskUnits="userSpaceOnUse" x="0" y="0" width="60" height="60">
<rect width="60" height="60" fill="#D9D9D9"/>
</mask>
<g mask="url(#mask0_1413_2744)">
<path d="M25.859 39.974C26.8929 41.0084 28.2198 41.4795 29.8398 41.3873C31.4592 41.2956 32.6409 40.7134 33.3848 39.6406L46.1897 21.7766C46.6442 21.1177 46.6053 20.5221 46.0731 19.9899C45.5414 19.4582 44.945 19.4185 44.2839 19.8707L26.359 32.6148C25.2435 33.3587 24.6226 34.5126 24.4965 36.0765C24.3704 37.6409 24.8246 38.9401 25.859 39.974ZM29.9998 6C32.3842 6 34.6023 6.23083 36.6539 6.6925C38.705 7.15416 40.7114 7.85277 42.6731 8.78832C43.1342 8.99332 43.5336 9.32998 43.8714 9.79831C44.2092 10.2661 44.2733 10.703 44.0639 11.1091C43.8545 11.5152 43.442 11.7822 42.8264 11.91C42.2114 12.0383 41.6667 12 41.1922 11.795C39.4611 10.9527 37.6845 10.3319 35.8623 9.93248C34.0395 9.53303 32.0854 9.33331 29.9998 9.33331C22.611 9.33331 16.3193 11.9305 11.1249 17.1249C5.93052 22.3193 3.33331 28.611 3.33331 35.9998C3.33331 38.3331 3.65276 40.6387 4.29164 42.9164C4.93053 45.1942 5.8333 47.3331 6.99996 49.3331H52.9997C54.2774 47.222 55.208 45.0275 55.7913 42.7498C56.3747 40.472 56.6663 38.1109 56.6663 35.6665C56.6663 33.9654 56.4772 32.1534 56.0988 30.2307C55.7205 28.3074 55.1105 26.4868 54.2688 24.769C54.0638 24.2946 54.0083 23.8266 54.1022 23.3649C54.1961 22.9038 54.4436 22.5355 54.8447 22.2599C55.2174 22.0099 55.6205 21.9532 56.0538 22.0899C56.4877 22.2266 56.8072 22.5127 57.0121 22.9482C58.1021 25.1921 58.8694 27.3279 59.3138 29.3557C59.7582 31.3835 59.9869 33.4743 59.9996 35.6281C60.0124 38.4954 59.6941 41.1706 59.0446 43.6539C58.3952 46.1367 57.3844 48.6408 56.0122 51.1664C55.7433 51.6108 55.3374 51.9719 54.7947 52.2497C54.2519 52.5275 53.6536 52.6664 52.9997 52.6664H6.99996C6.38885 52.6664 5.82274 52.5169 5.30163 52.218C4.77997 51.9186 4.34192 51.4825 3.98748 50.9097C2.8847 48.9653 1.94443 46.772 1.16666 44.3298C0.388886 41.8876 0 39.1109 0 35.9998C0 31.9015 0.777217 28.0338 2.33165 24.3966C3.88609 20.7588 6.00774 17.5727 8.69661 14.8383C11.386 12.1044 14.5663 9.94775 18.2374 8.36832C21.9079 6.78944 25.8287 6 29.9998 6Z" fill="#1C1B1F"/>
</g>
</svg>
