<svg width="48" height="49" viewBox="0 0 48 49" fill="none" xmlns="http://www.w3.org/2000/svg">
<mask id="mask0_3341_5379" style="mask-type:alpha" maskUnits="userSpaceOnUse" x="0" y="0" width="48" height="49">
<rect y="0.164062" width="48" height="48" fill="#D9D9D9"/>
</mask>
<g mask="url(#mask0_3341_5379)">
<path d="M24.0035 43.1641C21.3755 43.1641 18.9053 42.6654 16.593 41.6681C14.2807 40.6707 12.2693 39.3172 10.559 37.6076C8.84867 35.8979 7.4945 33.8874 6.4965 31.5761C5.49883 29.2647 5 26.7952 5 24.1676C5 21.5396 5.49867 19.0694 6.496 16.7571C7.49333 14.4447 8.84683 12.4334 10.5565 10.7231C12.2662 9.01273 14.2767 7.65856 16.588 6.66056C18.8993 5.6629 21.3688 5.16406 23.9965 5.16406C26.6245 5.16406 29.0947 5.66273 31.407 6.66006C33.7193 7.6574 35.7307 9.0109 37.441 10.7206C39.1513 12.4302 40.5055 14.4407 41.5035 16.7521C42.5012 19.0634 43 21.5329 43 24.1606C43 26.7886 42.5013 29.2587 41.504 31.5711C40.5067 33.8834 39.1532 35.8947 37.4435 37.6051C35.7338 39.3154 33.7233 40.6696 31.412 41.6676C29.1007 42.6652 26.6312 43.1641 24.0035 43.1641ZM24 40.1641C28.4667 40.1641 32.25 38.6141 35.35 35.5141C38.45 32.4141 40 28.6307 40 24.1641C40 19.6974 38.45 15.9141 35.35 12.8141C32.25 9.71406 28.4667 8.16406 24 8.16406C19.5333 8.16406 15.75 9.71406 12.65 12.8141C9.55 15.9141 8 19.6974 8 24.1641C8 28.6307 9.55 32.4141 12.65 35.5141C15.75 38.6141 19.5333 40.1641 24 40.1641ZM24.0045 35.1641C20.9502 35.1641 18.3525 34.0951 16.2115 31.9571C14.0705 29.8191 13 27.2229 13 24.1686C13 21.1142 14.069 18.5166 16.207 16.3756C18.345 14.2346 20.9412 13.1641 23.9955 13.1641C27.0498 13.1641 29.6475 14.2331 31.7885 16.3711C33.9295 18.5091 35 21.1052 35 24.1596C35 27.2139 33.931 29.8116 31.793 31.9526C29.655 34.0936 27.0588 35.1641 24.0045 35.1641ZM24 32.1641C26.2 32.1641 28.0833 31.3807 29.65 29.8141C31.2167 28.2474 32 26.3641 32 24.1641C32 21.9641 31.2167 20.0807 29.65 18.5141C28.0833 16.9474 26.2 16.1641 24 16.1641C21.8 16.1641 19.9167 16.9474 18.35 18.5141C16.7833 20.0807 16 21.9641 16 24.1641C16 26.3641 16.7833 28.2474 18.35 29.8141C19.9167 31.3807 21.8 32.1641 24 32.1641ZM24 27.1641C23.182 27.1641 22.4775 26.8686 21.8865 26.2776C21.2955 25.6866 21 24.9821 21 24.1641C21 23.3461 21.2955 22.6416 21.8865 22.0506C22.4775 21.4596 23.182 21.1641 24 21.1641C24.818 21.1641 25.5225 21.4596 26.1135 22.0506C26.7045 22.6416 27 23.3461 27 24.1641C27 24.9821 26.7045 25.6866 26.1135 26.2776C25.5225 26.8686 24.818 27.1641 24 27.1641Z" fill="#FF7700"/>
</g>
</svg>
