<svg width="48" height="49" viewBox="0 0 48 49" fill="none" xmlns="http://www.w3.org/2000/svg">
<mask id="mask0_3341_5394" style="mask-type:alpha" maskUnits="userSpaceOnUse" x="0" y="0" width="48" height="49">
<rect y="0.164062" width="48" height="48" fill="#D9D9D9"/>
</mask>
<g mask="url(#mask0_3341_5394)">
<path d="M24.0039 31.3181C26.2703 31.3181 28.1951 30.5249 29.7784 28.9386C31.3618 27.3522 32.1534 25.4259 32.1534 23.1596C32.1534 20.8932 31.3603 18.9684 29.7739 17.3851C28.1876 15.8017 26.2613 15.0101 23.9949 15.0101C21.7286 15.0101 19.8038 15.8032 18.2204 17.3896C16.6371 18.9759 15.8454 20.9022 15.8454 23.1686C15.8454 25.4349 16.6386 27.3597 18.2249 28.9431C19.8113 30.5264 21.7376 31.3181 24.0039 31.3181ZM23.9994 28.5641C22.4994 28.5641 21.2244 28.0391 20.1744 26.9891C19.1244 25.9391 18.5994 24.6641 18.5994 23.1641C18.5994 21.6641 19.1244 20.3891 20.1744 19.3391C21.2244 18.2891 22.4994 17.7641 23.9994 17.7641C25.4994 17.7641 26.7744 18.2891 27.8244 19.3391C28.8744 20.3891 29.3994 21.6641 29.3994 23.1641C29.3994 24.6641 28.8744 25.9391 27.8244 26.9891C26.7744 28.0391 25.4994 28.5641 23.9994 28.5641ZM23.9994 37.1641C19.7891 37.1641 15.9384 36.0409 12.4474 33.7946C8.95642 31.5486 6.16992 28.5936 4.08792 24.9296C3.92125 24.6422 3.79942 24.3527 3.72242 24.0611C3.64575 23.7694 3.60742 23.4701 3.60742 23.1631C3.60742 22.8561 3.64575 22.5571 3.72242 22.2661C3.79942 21.9751 3.92125 21.6859 4.08792 21.3986C6.16992 17.7346 8.95642 14.7796 12.4474 12.5336C15.9384 10.2872 19.7891 9.16406 23.9994 9.16406C28.2098 9.16406 32.0604 10.2872 35.5514 12.5336C39.0424 14.7796 41.8289 17.7346 43.9109 21.3986C44.0776 21.6859 44.1994 21.9754 44.2764 22.2671C44.3531 22.5587 44.3914 22.8581 44.3914 23.1651C44.3914 23.4721 44.3531 23.7711 44.2764 24.0621C44.1994 24.3531 44.0776 24.6422 43.9109 24.9296C41.8289 28.5936 39.0424 31.5486 35.5514 33.7946C32.0604 36.0409 28.2098 37.1641 23.9994 37.1641Z" fill="#5355BD"/>
</g>
</svg>
