<svg width="154" height="64" viewBox="0 0 154 64" fill="none" xmlns="http://www.w3.org/2000/svg">
<path d="M115.651 50.0001C114.951 49.6001 114.151 49.1001 113.551 48.5001C112.651 47.7001 111.951 46.8001 111.451 45.6001C111.151 45.0001 110.951 44.4001 110.751 43.8001C102.451 43.8001 93.5507 43.7001 88.6507 43.6001C87.9507 43.6001 87.3507 43.4001 86.7507 43.1001C86.2507 42.8001 85.7507 42.2001 85.5507 41.6001C85.4507 40.6001 85.7507 39.5001 86.8507 39.5001C92.6507 39.4001 98.3507 39.4001 104.151 39.5001C112.451 38.9001 112.851 26.1001 105.451 23.6001C98.6507 23.0001 91.8507 23.0001 85.1507 23.4001C83.1507 23.5001 81.1507 24.1001 79.4507 25.3001C77.9507 26.3001 76.7507 27.7001 76.2507 29.6001C74.7507 34.6001 74.6507 40.3001 76.7507 45.2001C78.5507 49.2001 83.1507 50.4001 87.1507 50.9001C94.2507 51.0001 106.651 50.7001 117.251 50.9001C116.751 50.5001 116.151 50.2001 115.651 50.0001ZM86.8507 29.9001C87.2507 29.5001 87.8507 29.2001 88.4507 29.2001H101.251C102.451 29.2001 103.551 30.2001 103.551 31.5001C103.551 32.1001 103.251 32.7001 102.851 33.1001C102.451 33.5001 101.851 33.8001 101.251 33.8001H88.4507C87.2507 33.8001 86.1507 32.8001 86.1507 31.5001C86.1507 30.8001 86.4507 30.3001 86.8507 29.9001Z" fill="black"/>
<path d="M17.6514 39.4C23.4514 39.3 29.1514 39.3 34.9514 39.4C43.2514 38.8 43.6514 26 36.2514 23.5C29.4514 22.9 22.6514 22.9 15.9514 23.3C13.9514 23.4 11.9514 24 10.2514 25.2C8.75145 26.2 7.55145 27.6 7.05145 29.5C5.55145 34.5 5.45145 40.2 7.55145 45.1C9.35145 49.1 13.9514 50.3 17.9514 50.8C23.2514 50.9 26.4514 50.8 29.9514 50.7L36.7514 43.6C31.0514 43.4 25.2514 43.9 19.4514 43.6C18.7514 43.6 18.1515 43.4 17.5514 43.1C16.9514 42.8 16.5514 42.2 16.3514 41.6C16.2514 40.4 16.6514 39.4 17.6514 39.4ZM17.6514 29.9C18.0514 29.5 18.6514 29.2 19.2514 29.2H32.0514C33.2514 29.2 34.3514 30.2 34.3514 31.5C34.3514 32.1 34.0514 32.7 33.6514 33.1C33.2514 33.5 32.6514 33.8 32.0514 33.8H19.2514C18.0514 33.8 16.9514 32.8 16.9514 31.5C17.0514 30.8 17.2514 30.3 17.6514 29.9Z" fill="black"/>
<path d="M146.452 43.8001C139.652 43.1001 132.652 43.9001 125.852 43.6001C125.152 43.6001 124.552 43.4001 123.952 43.1001C123.352 42.8001 122.952 42.2001 122.752 41.6001C122.552 40.6001 122.952 39.5001 124.052 39.5001C129.852 39.4001 135.552 39.4001 141.352 39.5001C149.652 38.9001 150.052 26.1001 142.652 23.6001C135.852 23.0001 129.052 23.0001 122.352 23.4001C120.352 23.5001 118.352 24.1001 116.652 25.3001C115.152 26.3001 113.952 27.7001 113.452 29.6001C111.952 34.6001 111.852 40.3001 113.952 45.2001C115.752 49.2001 120.352 50.4001 124.352 50.9001C133.952 51.1001 143.552 50.5001 153.152 51.3001C150.752 48.6001 148.852 46.4001 146.452 43.8001ZM124.052 29.9001C124.452 29.5001 125.052 29.2001 125.652 29.2001H138.452C139.652 29.2001 140.752 30.2001 140.752 31.5001C140.752 32.1001 140.452 32.7001 140.052 33.1001C139.652 33.5001 139.052 33.8001 138.452 33.8001H125.652C124.452 33.8001 123.352 32.8001 123.352 31.5001C123.352 30.8001 123.652 30.3001 124.052 29.9001Z" fill="black"/>
<path d="M90.9504 0L91.4504 9.7L0.650391 15.4M27.2504 64L26.8504 56.4L68.5504 12.7L91.4504 11.6L37.9504 55.9L153.35 52.6" fill="#FF5500"/>
</svg>
