<svg width="276" height="64" viewBox="0 0 276 64" fill="none" xmlns="http://www.w3.org/2000/svg">
<path d="M6.53327 51.8667H1.19994C0.666608 51.8667 0.266602 51.4667 0.266602 50.9334V24.2667C0.266602 18.2667 5.19994 13.3334 11.1999 13.3334H43.9999C44.5333 13.3334 44.9333 13.7334 44.9333 14.2667V19.0667C44.9333 19.6 44.5333 20 43.9999 20H12.5333C9.73327 20 7.4666 22.2667 7.4666 25.0667V29.3334H31.8666C32.3999 29.3334 32.7999 29.7334 32.7999 30.2667V34.9334C32.7999 35.4667 32.3999 35.8667 31.8666 35.8667H7.4666V50.9334C7.4666 51.4667 7.06661 51.8667 6.53327 51.8667Z" fill="black"/>
<path d="M50.2683 13.3334H55.6016C56.135 13.3334 56.535 13.7334 56.535 14.2667V51.0667C56.535 51.6 56.135 52 55.6016 52H50.2683C49.735 52 49.335 51.6 49.335 51.0667V14.1334C49.335 13.7334 49.735 13.3334 50.2683 13.3334Z" fill="black"/>
<path d="M95.4678 51.0667L86.6678 42.5334C86.1344 42.0001 85.6011 41.8667 84.8011 41.8667H69.6011C69.0678 41.8667 68.6678 42.2667 68.6678 42.8001C68.6678 44.6667 68.6678 49.0667 68.6678 50.9334C68.6678 51.4667 68.2678 51.8667 67.7344 51.8667H62.1344C61.7344 51.8667 61.4678 51.6001 61.4678 51.2001V13.8667C61.4678 13.4667 61.7344 13.2001 62.1344 13.2001H95.3344C101.601 13.2001 106.268 18.8001 106.268 27.4667C106.268 31.0667 104.668 40.0001 97.0678 41.4667C96.8011 41.4667 96.6678 41.8667 96.8011 42.1334L105.334 50.6667C105.734 51.0667 105.468 51.7334 104.934 51.7334H97.6011C96.8011 51.8667 96.0011 51.6001 95.4678 51.0667ZM69.3344 35.2001H94.4011C98.4011 35.2001 99.2011 29.7334 99.2011 27.6001C99.2011 23.0667 97.7344 20.0001 94.6678 20.0001H69.3344C68.9344 20.0001 68.6678 20.2667 68.6678 20.6667V34.5334C68.6678 34.9334 68.8011 35.2001 69.3344 35.2001Z" fill="black"/>
<path d="M155.733 46.1334V50.9334C155.733 51.4667 155.333 51.8667 154.8 51.8667H122C116 51.8667 111.066 46.9334 111.066 40.9334V24.2667C111.066 18.2667 116 13.3334 122 13.3334H154.8C155.333 13.3334 155.733 13.7334 155.733 14.2667V19.0667C155.733 19.6 155.333 20 154.8 20H123.333C120.533 20 118.266 22.2667 118.266 25.0667V29.3334H142.666C143.2 29.3334 143.6 29.7334 143.6 30.2667V35.0667C143.6 35.6 143.2 36 142.666 36H118.266V40.2667C118.266 43.0667 120.533 45.3334 123.333 45.3334H154.8C155.333 45.3334 155.733 45.7334 155.733 46.1334Z" fill="black"/>
<path d="M167.734 51.8667H162.401C161.868 51.8667 161.468 51.4667 161.468 50.9334V24.2667C161.468 18.2667 166.401 13.3334 172.401 13.3334H205.201C205.734 13.3334 206.134 13.7334 206.134 14.2667V19.0667C206.134 19.6 205.734 20 205.201 20H173.734C170.934 20 168.668 22.2667 168.668 25.0667V29.3334H193.068C193.601 29.3334 194.001 29.7334 194.001 30.2667V34.9334C194.001 35.4667 193.601 35.8667 193.068 35.8667H168.668V50.9334C168.668 51.4667 168.268 51.8667 167.734 51.8667Z" fill="black"/>
<path d="M218.533 14.2666V40.2666C218.533 43.0666 220.8 45.3333 223.6 45.3333H243.6C244.133 45.3333 244.533 45.7333 244.533 46.2666V51.0666C244.533 51.6 244.133 52 243.6 52H222.266C216.266 52 211.333 47.0666 211.333 41.0666V14.4C211.333 13.8666 211.733 13.4666 212.266 13.4666H217.6C218.133 13.3333 218.533 13.7333 218.533 14.2666Z" fill="black"/>
<path d="M275.733 14.6667V20.1333C275.733 20.6667 275.333 21.0667 274.8 21.0667L268.533 19.3333C268.266 19.3333 268 19.4667 267.733 19.7333L256.933 32.2667C256.4 32.8 256.266 33.4667 256.266 34.2667V50.9333C256.266 51.4667 255.866 51.8667 255.333 51.8667H249.733C249.2 51.8667 248.8 51.4667 248.8 50.9333V34.1333C248.8 33.4667 248.533 32.6667 248.133 32.1333L237.333 19.6C237.2 19.3333 236.933 19.2 236.533 19.2L230.266 20.9333C229.733 20.9333 229.333 20.5333 229.333 20V14.6667C229.333 14.1333 229.733 13.7333 230.266 13.7333L239.466 12C239.866 12 240.4 12.1333 240.666 12.5333L251.866 25.4667C252.266 25.8667 252.933 25.8667 253.333 25.4667L264.533 12.5333C264.8 12.1333 265.2 12 265.733 12L274.933 13.7333C275.333 13.6 275.733 14 275.733 14.6667Z" fill="#FF5500"/>
</svg>
