<svg width="226" height="64" viewBox="0 0 226 64" fill="none" xmlns="http://www.w3.org/2000/svg">
<path d="M51.8465 12.5013L42.2225 22.7269H18.0621L17.1598 27.8397H46.834L37.7112 37.4637H15.3553L12.9493 52.0001H0.71875L7.73629 12.5013H51.8465Z" fill="black"/>
<path d="M89.6402 41.8748L80.9184 52.0001H46.0312L53.0488 12.5013H65.1791L59.9661 41.7745H89.6402V41.8748Z" fill="black"/>
<path d="M157.912 28.341C166.434 28.341 171.045 31.4487 171.045 37.2633C171.045 45.7846 165.632 52.0001 151.597 52.0001H131.246L126.033 41.8748H154.404C157.712 41.8748 159.115 40.772 159.115 38.4663C159.115 36.8623 157.912 36.0603 155.406 36.0603H133.852C124.93 36.0603 120.92 32.2507 120.92 26.5365C120.92 18.5164 126.434 12.4011 140.168 12.4011H174.454L164.83 22.6267H137.461C134.153 22.6267 132.749 23.5289 132.749 25.8347C132.749 27.4387 133.953 28.0402 136.559 28.0402H157.912V28.341Z" fill="black"/>
<path d="M218.062 52.0001H205.931L208.638 36.762H185.079L182.473 52.0001H170.242L177.26 12.5013H189.49L186.984 26.4362H210.543L213.049 12.5013H225.28L218.062 52.0001Z" fill="black"/>
<path d="M83.4247 52L92.6478 41.8747H102.472C104.878 41.8747 107.585 41.8747 109.49 41.9749C108.688 40.5714 107.385 38.1654 106.482 36.2606L101.269 25.8346L87.0337 39.9699H72.5977L95.3545 16.411C97.4598 14.1053 100.167 12 103.976 12C107.585 12 109.69 13.9048 110.994 16.411L129.239 52H83.4247Z" fill="#FF5500"/>
</svg>
