<svg width="512" height="64" viewBox="0 0 512 64" fill="none" xmlns="http://www.w3.org/2000/svg">
<path d="M29.1993 31.6L46.5327 52H33.3327L18.3993 34.6667H12.666V52H0.666016V12H12.5327V28.8H18.266L33.066 12H46.666L29.1993 31.6Z" fill="black"/>
<path d="M98.6656 52L68.2656 30.2667V52H56.2656V12L86.9323 33.6V12H98.6656V52Z" fill="black"/>
<path d="M105.6 12H117.6V52H105.6V12Z" fill="black"/>
<path d="M162.931 30.2667V52H122.131V12H162.931L157.864 17.8667H134.264V46.1333H150.931V30.2667H162.931Z" fill="black"/>
<path d="M217.332 12V52H205.332V34.9333H184.665V52H172.799V12H184.665V29.0667H205.332V12H217.332Z" fill="black"/>
<path d="M266.932 17.8667H254.399V52H241.332V17.8667H226.932L221.865 12H271.999L266.932 17.8667Z" fill="black"/>
<path d="M342 52H327.867L306.267 27.4667H326.667V17.8667H304.667V52H292.533V12H338.533V33.3333H325.867L342 52Z" fill="#FF5500"/>
<path d="M346.666 12H358.666V52H346.666V12Z" fill="#FF5500"/>
<path d="M395.466 12L408.133 32L398.8 52H363.066V12H395.466ZM375.066 46.1333H387.2L396.4 32.1333L387.2 18H375.066V46.1333Z" fill="#FF5500"/>
<path d="M452.399 46.1333L457.599 52H412.799V12H457.732L452.665 17.8667H424.799V29.0667H455.065V34.9333H424.799V46.1333H452.399Z" fill="#FF5500"/>
<path d="M511.332 52H497.199L475.599 27.4667H495.866V17.8667H473.866V52H461.732V12H507.732V33.3333H495.066L511.332 52Z" fill="#FF5500"/>
</svg>
