<?xml version="1.0" encoding="utf-8"?>
<!-- Generator: Adobe Illustrator 26.5.0, SVG Export Plug-In . SVG Version: 6.00 Build 0)  -->
<svg version="1.1" id="Layer_1" xmlns="http://www.w3.org/2000/svg" xmlns:xlink="http://www.w3.org/1999/xlink" x="0px" y="0px"
	 viewBox="0 0 400 64" style="enable-background:new 0 0 400 64;" xml:space="preserve">
<style type="text/css">
	.st0{fill:#FF5500;}
	.st1{enable-background:new    ;}
	.st2{fill:#FFFFFF;}
	.st3{fill:#FFFDFD;}
</style>
<g>
	<g>
		<path d="M238.7,50c-0.7-0.4-1.5-0.9-2.1-1.5c-0.9-0.8-1.6-1.7-2.1-2.9l0,0l0,0c-0.3-0.6-0.5-1.2-0.7-1.8c-8.3,0-17.2-0.1-22.1-0.2
			c-0.7,0-1.3-0.2-1.9-0.5c-0.5-0.3-1-0.9-1.2-1.5c-0.1-1,0.2-2.1,1.3-2.1c5.8-0.1,11.5-0.1,17.3,0c8.3-0.6,8.7-13.4,1.3-15.9
			c-6.8-0.6-13.6-0.6-20.3-0.2c-2,0.1-4,0.7-5.7,1.9c-1.5,1-2.7,2.4-3.2,4.3c-1.5,5-1.6,10.7,0.5,15.6c1.8,4,6.4,5.2,10.4,5.7
			c7.1,0.1,19.5-0.2,30.1,0C239.8,50.5,239.2,50.2,238.7,50z M209.9,29.9c0.4-0.4,1-0.7,1.6-0.7h12.8c1.2,0,2.3,1,2.3,2.3
			c0,0.6-0.3,1.2-0.7,1.6c-0.4,0.4-1,0.7-1.6,0.7h-12.8c-1.2,0-2.3-1-2.3-2.3C209.2,30.8,209.5,30.3,209.9,29.9z"/>
	</g>
	<g>
		<path d="M140.7,39.4c5.8-0.1,11.5-0.1,17.3,0c8.3-0.6,8.7-13.4,1.3-15.9c-6.8-0.6-13.6-0.6-20.3-0.2c-2,0.1-4,0.7-5.7,1.9
			c-1.5,1-2.7,2.4-3.2,4.3c-1.5,5-1.6,10.7,0.5,15.6c1.8,4,6.4,5.2,10.4,5.7c5.3,0.1,8.5,0,12-0.1l6.8-7.1c-5.7-0.2-11.5,0.3-17.3,0
			c-0.7,0-1.3-0.2-1.9-0.5c-0.6-0.3-1-0.9-1.2-1.5C139.3,40.4,139.7,39.4,140.7,39.4z M140.7,29.9c0.4-0.4,1-0.7,1.6-0.7h12.8
			c1.2,0,2.3,1,2.3,2.3c0,0.6-0.3,1.2-0.7,1.6c-0.4,0.4-1,0.7-1.6,0.7h-12.8c-1.2,0-2.3-1-2.3-2.3C140.1,30.8,140.3,30.3,140.7,29.9
			z"/>
	</g>
	<g>
		<path d="M269.5,43.8c-6.8-0.7-13.8,0.1-20.6-0.2c-0.7,0-1.3-0.2-1.9-0.5c-0.6-0.3-1-0.9-1.2-1.5c-0.2-1,0.2-2.1,1.3-2.1
			c5.8-0.1,11.5-0.1,17.3,0c8.3-0.6,8.7-13.4,1.3-15.9c-6.8-0.6-13.6-0.6-20.3-0.2c-2,0.1-4,0.7-5.7,1.9c-1.5,1-2.7,2.4-3.2,4.3
			c-1.5,5-1.6,10.7,0.5,15.6c1.8,4,6.4,5.2,10.4,5.7c9.6,0.2,19.2-0.4,28.8,0.4C273.8,48.6,271.9,46.4,269.5,43.8z M247.1,29.9
			c0.4-0.4,1-0.7,1.6-0.7h12.8c1.2,0,2.3,1,2.3,2.3c0,0.6-0.3,1.2-0.7,1.6c-0.4,0.4-1,0.7-1.6,0.7h-12.8c-1.2,0-2.3-1-2.3-2.3
			C246.4,30.8,246.7,30.3,247.1,29.9z"/>
	</g>
	<path class="st0" d="M214,0l0.5,9.7l-90.8,5.7 M150.3,64l-0.4-7.6l41.7-43.7l22.9-1.1L161,55.9l115.4-3.3"/>
</g>
</svg>
