<?xml version="1.0" encoding="utf-8"?>
<!-- Generator: Adobe Illustrator 26.5.0, SVG Export Plug-In . SVG Version: 6.00 Build 0)  -->
<svg version="1.1" id="Layer_1" xmlns="http://www.w3.org/2000/svg" xmlns:xlink="http://www.w3.org/1999/xlink" x="0px" y="0px"
	 viewBox="0 0 400 30" style="enable-background:new 0 0 400 30;" xml:space="preserve">
<style type="text/css">
	.st0{fill:#FF5500;}
	.st1{enable-background:new    ;}
	.st2{fill:#FFFFFF;}
	.st3{fill:#FFFDFD;}
</style>
<g>
	<path d="M78.1,8.1c3.4-1.5,8.4-2.4,13.9-2.9H75.9c-0.6,0-1.3-0.3-1.8-0.7c-0.5-0.5-0.7-1.2-0.7-1.8L73.5,0h44.7
		c0.7,0,1.3,0.3,1.7,0.9c0.4,0.6,0.4,1.3,0.1,1.9l-4.8,14.6c-0.6,1.5-2,2.7-3.6,2.7h-5.9l5.4,9.9H97.9l-5.7-10.2
		c-0.6-0.6-0.8-1.4-0.5-2.1l0-0.1c0.5-1.5,1.8-2.4,3.3-2.5h7.4c0,0,0.1,0,0.2,0l3.2-9.9H92.2L84.1,30H70.9L78.1,8.1z"/>
	<path d="M119.5,30c-0.6,0-1.3-0.3-1.7-0.9c-0.4-0.6-0.4-1.3-0.1-1.9l3.9-11.9c0-0.1,0-0.3,0.1-0.3c0-0.1,0.1-0.2,0.1-0.3l3.9-11.9
		v0l0-0.2c0.6-1.5,1.9-2.5,3.4-2.6h35c0.7,0,1.3,0.3,1.7,0.9c0.4,0.6,0.4,1.3,0.1,1.9l-8,24.4v0l0,0.2c-0.5,1.5-1.9,2.5-3.4,2.6
		H119.5z M135.7,12.6l-4,12.3h13.8l6.4-19.7h-13.8L135.7,12.6z"/>
	<path d="M167.9,16.8c-0.4-0.6-0.4-1.3-0.2-1.9l4-12.2c0.6-1.6,2-2.7,3.7-2.8h37.5L212,2.6c-0.5,1.5-1.9,2.5-3.4,2.6h-24.5l-2.4,7.4
		H206c0.7,0,1.3,0.3,1.7,0.9c0.4,0.6,0.5,1.3,0.2,1.9L204,27.2c-0.6,1.6-2,2.7-3.6,2.8h-37.5l0.9-2.6c0.5-1.5,1.8-2.5,3.4-2.6h24.5
		l2.3-7.2h-24.3C168.9,17.7,168.3,17.4,167.9,16.8z"/>
	<path d="M237.4,30l4-12.4h-15.3L222.1,30h-13.2l9.8-30h13.2l-4,12.4h15.3l4-12.4h13.2l-9.8,30H237.4z"/>
	<path d="M256.9,30l9.8-30h17.6l4.6,22.9L296.4,0h13.2l-9.8,30h-17.6l-4.6-22.9L270.1,30H256.9z"/>
	<path d="M306.1,30l9.8-30h13.2l-9.8,30H306.1z"/>
</g>
</svg>
