<?xml version="1.0" encoding="utf-8"?>
<!-- Generator: Adobe Illustrator 26.5.0, SVG Export Plug-In . SVG Version: 6.00 Build 0)  -->
<svg version="1.1" id="Layer_1" xmlns="http://www.w3.org/2000/svg" xmlns:xlink="http://www.w3.org/1999/xlink" x="0px" y="0px"
	 viewBox="0 0 400 64" style="enable-background:new 0 0 400 64;" xml:space="preserve">
<style type="text/css">
	.st0{fill:#FF5500;}
	.st1{enable-background:new    ;}
	.st2{fill:#FFFFFF;}
	.st3{fill:#FFFDFD;}
</style>
<g>
	<g>
		<path d="M93.5,28c2.2-1,5.4-1.6,9-1.9H92.1c-0.4,0-0.8-0.2-1.1-0.5c-0.3-0.3-0.5-0.7-0.5-1.2l0.1-1.7h28.9c0.4,0,0.9,0.2,1.1,0.6
			c0.2,0.4,0.3,0.8,0.1,1.2l-3.1,9.4c-0.4,1-1.3,1.7-2.4,1.8h-3.8l3.5,6.4h-8.5l-3.7-6.6c-0.4-0.4-0.5-0.9-0.3-1.4l0-0.1
			c0.3-0.9,1.2-1.6,2.2-1.6h4.8c0,0,0.1,0,0.1,0l2.1-6.4h-8.9l-5.2,16h-8.5L93.5,28z"/>
		<path d="M120.2,42.2c-0.4,0-0.9-0.2-1.1-0.6c-0.2-0.4-0.3-0.8-0.1-1.2l2.5-7.7c0-0.1,0-0.2,0.1-0.2c0-0.1,0.1-0.1,0.1-0.2l2.5-7.7
			v0l0-0.1c0.4-0.9,1.2-1.6,2.2-1.7H149c0.4,0,0.9,0.2,1.1,0.6c0.2,0.4,0.3,0.8,0.1,1.2L145,40.4v0l0,0.1c-0.3,0.9-1.2,1.6-2.2,1.7
			H120.2z M130.7,30.9l-2.6,7.9h8.9l4.1-12.7h-8.9L130.7,30.9z"/>
		<path d="M151.4,33.7c-0.2-0.4-0.3-0.8-0.1-1.2l2.6-7.9c0.4-1,1.3-1.7,2.4-1.8h24.2l-0.5,1.7c-0.3,0.9-1.2,1.6-2.2,1.7h-15.8
			l-1.5,4.8H176c0.4,0,0.9,0.2,1.1,0.6c0.2,0.4,0.3,0.8,0.1,1.2l-2.5,7.7c-0.4,1-1.3,1.7-2.4,1.8h-24.2l0.6-1.7
			c0.3-0.9,1.2-1.6,2.2-1.7h15.8l1.5-4.6h-15.7C152.1,34.3,151.7,34.1,151.4,33.7z"/>
		<path d="M196.3,42.2l2.6-8H189l-2.6,8h-8.5l6.3-19.4h8.5l-2.6,8h9.9l2.6-8h8.5l-6.3,19.4H196.3z"/>
		<path d="M208.9,42.2l6.3-19.4h11.3l3,14.8l4.8-14.8h8.5l-6.3,19.4h-11.3l-3-14.8l-4.8,14.8H208.9z"/>
		<path d="M240.6,42.2l6.3-19.4h8.5l-6.3,19.4H240.6z"/>
	</g>
	<g>
		<polygon class="st0" points="311.2,0 282.9,0 259.4,21.5 248.3,0 217.3,0 231.9,23.5 232.3,22.2 232.8,20.7 234.4,20.7 
			242.9,20.7 242.9,20.7 242.9,20.7 245.4,20.7 245.9,20.7 247,20.7 255.5,20.7 258.5,20.7 257.6,23.5 251.3,42.9 250.8,44.4 
			249.2,44.4 240.7,44.4 238.2,44.4 237.7,44.4 236.6,44.4 225.3,44.4 223.5,44.4 223.3,43.3 198.4,64 230.3,64 252.6,44.3 
			263.8,64 292,64 274.4,31.8 		"/>
	</g>
</g>
</svg>
