<svg width="276" height="40" viewBox="0 0 276 40" fill="none" xmlns="http://www.w3.org/2000/svg">
<path d="M6.53327 39.8667H1.19994C0.666608 39.8667 0.266602 39.4667 0.266602 38.9334V12.2667C0.266602 6.26671 5.19994 1.33337 11.1999 1.33337H43.9999C44.5333 1.33337 44.9333 1.73337 44.9333 2.26671V7.06671C44.9333 7.60004 44.5333 8.00004 43.9999 8.00004H12.5333C9.73327 8.00004 7.4666 10.2667 7.4666 13.0667V17.3334H31.8666C32.3999 17.3334 32.7999 17.7334 32.7999 18.2667V22.9334C32.7999 23.4667 32.3999 23.8667 31.8666 23.8667H7.4666V38.9334C7.4666 39.4667 7.06661 39.8667 6.53327 39.8667Z" fill="black"/>
<path d="M50.2683 1.33337H55.6016C56.135 1.33337 56.535 1.73337 56.535 2.26671V39.0667C56.535 39.6 56.135 40 55.6016 40H50.2683C49.735 40 49.335 39.6 49.335 39.0667V2.13337C49.335 1.73337 49.735 1.33337 50.2683 1.33337Z" fill="black"/>
<path d="M95.4678 39.0667L86.6678 30.5334C86.1344 30.0001 85.6011 29.8667 84.8011 29.8667H69.6011C69.0678 29.8667 68.6678 30.2667 68.6678 30.8001C68.6678 32.6667 68.6678 37.0667 68.6678 38.9334C68.6678 39.4667 68.2678 39.8667 67.7344 39.8667H62.1344C61.7344 39.8667 61.4678 39.6001 61.4678 39.2001V1.86674C61.4678 1.46674 61.7344 1.20007 62.1344 1.20007H95.3344C101.601 1.20007 106.268 6.80007 106.268 15.4667C106.268 19.0667 104.668 28.0001 97.0678 29.4667C96.8011 29.4667 96.6678 29.8667 96.8011 30.1334L105.334 38.6667C105.734 39.0667 105.468 39.7334 104.934 39.7334H97.6011C96.8011 39.8667 96.0011 39.6001 95.4678 39.0667ZM69.3344 23.2001H94.4011C98.4011 23.2001 99.2011 17.7334 99.2011 15.6001C99.2011 11.0667 97.7344 8.00007 94.6678 8.00007H69.3344C68.9344 8.00007 68.6678 8.26674 68.6678 8.66674V22.5334C68.6678 22.9334 68.8011 23.2001 69.3344 23.2001Z" fill="black"/>
<path d="M155.733 34.1334V38.9334C155.733 39.4667 155.333 39.8667 154.8 39.8667H122C116 39.8667 111.066 34.9334 111.066 28.9334V12.2667C111.066 6.26671 116 1.33337 122 1.33337H154.8C155.333 1.33337 155.733 1.73337 155.733 2.26671V7.06671C155.733 7.60004 155.333 8.00004 154.8 8.00004H123.333C120.533 8.00004 118.266 10.2667 118.266 13.0667V17.3334H142.666C143.2 17.3334 143.6 17.7334 143.6 18.2667V23.0667C143.6 23.6 143.2 24 142.666 24H118.266V28.2667C118.266 31.0667 120.533 33.3334 123.333 33.3334H154.8C155.333 33.3334 155.733 33.7334 155.733 34.1334Z" fill="black"/>
<path d="M167.734 39.8667H162.401C161.868 39.8667 161.468 39.4667 161.468 38.9334V12.2667C161.468 6.26671 166.401 1.33337 172.401 1.33337H205.201C205.734 1.33337 206.134 1.73337 206.134 2.26671V7.06671C206.134 7.60004 205.734 8.00004 205.201 8.00004H173.734C170.934 8.00004 168.668 10.2667 168.668 13.0667V17.3334H193.068C193.601 17.3334 194.001 17.7334 194.001 18.2667V22.9334C194.001 23.4667 193.601 23.8667 193.068 23.8667H168.668V38.9334C168.668 39.4667 168.268 39.8667 167.734 39.8667Z" fill="black"/>
<path d="M218.533 2.26664V28.2666C218.533 31.0666 220.8 33.3333 223.6 33.3333H243.6C244.133 33.3333 244.533 33.7333 244.533 34.2666V39.0666C244.533 39.6 244.133 40 243.6 40H222.266C216.266 40 211.333 35.0666 211.333 29.0666V2.39997C211.333 1.86664 211.733 1.46664 212.266 1.46664H217.6C218.133 1.3333 218.533 1.7333 218.533 2.26664Z" fill="black"/>
<path d="M275.733 2.66667V8.13333C275.733 8.66667 275.333 9.06667 274.8 9.06667L268.533 7.33333C268.266 7.33333 268 7.46667 267.733 7.73333L256.933 20.2667C256.4 20.8 256.266 21.4667 256.266 22.2667V38.9333C256.266 39.4667 255.866 39.8667 255.333 39.8667H249.733C249.2 39.8667 248.8 39.4667 248.8 38.9333V22.1333C248.8 21.4667 248.533 20.6667 248.133 20.1333L237.333 7.6C237.2 7.33333 236.933 7.2 236.533 7.2L230.266 8.93333C229.733 8.93333 229.333 8.53333 229.333 8V2.66667C229.333 2.13333 229.733 1.73333 230.266 1.73333L239.466 0C239.866 0 240.4 0.133333 240.666 0.533333L251.866 13.4667C252.266 13.8667 252.933 13.8667 253.333 13.4667L264.533 0.533333C264.8 0.133333 265.2 0 265.733 0L274.933 1.73333C275.333 1.6 275.733 2 275.733 2.66667Z" fill="#FF5500"/>
</svg>
