<?xml version="1.0" encoding="utf-8"?>
<!-- Generator: Adobe Illustrator 26.5.0, SVG Export Plug-In . SVG Version: 6.00 Build 0)  -->
<svg version="1.1" id="Layer_1" xmlns="http://www.w3.org/2000/svg" xmlns:xlink="http://www.w3.org/1999/xlink" x="0px" y="0px"
	 viewBox="0 0 400 30" style="enable-background:new 0 0 400 30;" xml:space="preserve">
<style type="text/css">
	.st0{fill:#FF5500;}
	.st1{enable-background:new    ;}
	.st2{fill:#FFFFFF;}
	.st3{fill:#FFFDFD;}
</style>
<g>
	<path d="M29.9,14.7l13,15.3h-9.9L21.8,17h-4.3v13H8.5V0h8.9v12.6h4.3L32.8,0h10.2L29.9,14.7z"/>
	<path d="M82,30L59.2,13.7V30h-9V0l23,16.2V0H82V30z"/>
	<path d="M87.2,0h9v30h-9V0z"/>
	<path d="M130.2,13.7V30H99.6V0h30.6l-3.8,4.4h-17.7v21.2h12.5V13.7H130.2z"/>
	<path d="M171,0v30h-9V17.2h-15.5V30h-8.9V0h8.9v12.8h15.5V0H171z"/>
	<path d="M208.2,4.4h-9.4V30H189V4.4h-10.8L174.4,0H212L208.2,4.4L208.2,4.4z"/>
	<g>
		<path class="st0" d="M264.5,30h-10.6l-16.2-18.4H253V4.4h-16.5V30h-9.1V0h34.5v16h-9.5L264.5,30z"/>
		<path class="st0" d="M268,0h9v30h-9V0z"/>
		<path class="st0" d="M304.6,0l9.5,15l-7,15h-26.8V0H304.6z M289.3,25.6h9.1l6.9-10.5l-6.9-10.6h-9.1V25.6z"/>
		<path class="st0" d="M347.3,25.6l3.9,4.4h-33.6V0h33.7l-3.8,4.4h-20.9v8.4h22.7v4.4h-22.7v8.4L347.3,25.6L347.3,25.6z"/>
		<path class="st0" d="M391.5,30h-10.6l-16.2-18.4h15.2V4.4h-16.5V30h-9.1V0h34.5v16h-9.5L391.5,30z"/>
	</g>
</g>
</svg>
