<?xml version="1.0" encoding="utf-8"?>
<!-- Generator: Adobe Illustrator 26.5.0, SVG Export Plug-In . SVG Version: 6.00 Build 0)  -->
<svg version="1.1" id="Layer_1" xmlns="http://www.w3.org/2000/svg" xmlns:xlink="http://www.w3.org/1999/xlink" x="0px" y="0px"
	 viewBox="0 0 400 40" style="enable-background:new 0 0 400 40;" xml:space="preserve">
<style type="text/css">
	.st0{fill:#FF5500;}
	.st1{enable-background:new    ;}
	.st2{fill:#FFFFFF;}
	.st3{fill:#FFFDFD;}
</style>
<g>
	<path d="M139.1,0.6l-9.6,10.2h-24.1l-0.9,5.1h29.6l-9.1,9.6h-22.3L100.3,40H88.1l7-39.4H139.1z"/>
	<path d="M176.8,29.9L168.1,40h-34.8l7-39.4h12.1l-5.2,29.2H176.8z"/>
	<path d="M244.9,16.4c8.5,0,13.1,3.1,13.1,8.9c0,8.5-5.4,14.7-19.4,14.7h-20.3l-5.2-10.1h28.3c3.3,0,4.7-1.1,4.7-3.4
		c0-1.6-1.2-2.4-3.7-2.4h-21.5c-8.9,0-12.9-3.8-12.9-9.5c0-8,5.5-14.1,19.2-14.1h34.2l-9.6,10.2h-27.3c-3.3,0-4.7,0.9-4.7,3.2
		c0,1.6,1.2,2.2,3.8,2.2H244.9z"/>
	<path d="M304.9,40h-12.1l2.7-15.2h-23.5L269.4,40h-12.2l7-39.4h12.2l-2.5,13.9h23.5l2.5-13.9h12.2L304.9,40z"/>
	<path class="st0" d="M170.6,40l9.2-10.1h9.8c2.4,0,5.1,0,7,0.1c-0.8-1.4-2.1-3.8-3-5.7l-5.2-10.4l-14.2,14.1h-14.4l22.7-23.5
		c2.1-2.3,4.8-4.4,8.6-4.4c3.6,0,5.7,1.9,7,4.4L216.3,40H170.6z"/>
</g>
</svg>
