<?xml version="1.0" encoding="utf-8"?>
<!-- Generator: Adobe Illustrator 26.5.0, SVG Export Plug-In . SVG Version: 6.00 Build 0)  -->
<svg version="1.1" id="Layer_1" xmlns="http://www.w3.org/2000/svg" xmlns:xlink="http://www.w3.org/1999/xlink" x="0px" y="0px"
	 viewBox="0 0 400 30" style="enable-background:new 0 0 400 30;" xml:space="preserve">
<style type="text/css">
	.st0{fill:#FF5500;}
	.st1{enable-background:new    ;}
	.st2{fill:#FFFFFF;}
	.st3{fill:#FFFDFD;}
</style>
<g>
	<path d="M191.6,0.1h13.6l15.7,29.3H208l-2.3-5h-14.7l-2.3,5h-12.9L191.6,0.1z M194.4,17.2h8l-4-8.6L194.4,17.2z"/>
	<path d="M242.3,0c6-0.1,11.2,5,11.1,11.1c0,2.2-0.6,4.2-1.8,6c-1.2,1.8-2.7,3.1-4.6,4l6.4,8.2h-12.2l-5.5-7.1h-10.2v7.1h-11.4V0
		H242.3z M225.5,8.6v5h13.9c0.7,0,1.3-0.2,1.8-0.7c0.5-0.5,0.7-1.1,0.7-1.8c0-1.4-1.1-2.5-2.5-2.5H225.5z"/>
	<path d="M147,0.1l-8.5,8.5h-21.4v2.1h25.6V30h-38.5l8.5-8.5h21.4v-2.1h-25.6V0.1H147z"/>
	<path d="M170.5,8.6h-29l8.5-8.5h29v21.4h-25.6V30h-8.5V10.8h8.5v2.1h17.1V8.6z"/>
	<path d="M272.3,10.8l10.7-10.7h12.8l-15,15l12.9,15h-12.8l-8.6-10.7h-8.5V30h-8.5V0.1h8.5v10.7H272.3z"/>
	<polygon class="st0" points="204.8,0 209.1,7.6 204.9,8.1 210.4,16.5 206.8,17 215.5,29.3 214.2,22 218.4,21.8 215.3,12.9 
		218.4,12.9 214.3,0 	"/>
</g>
</svg>
