<svg width="426" height="64" viewBox="0 0 426 64" fill="none" xmlns="http://www.w3.org/2000/svg">
<path d="M183.565 39.907V40.4385C183.565 43.6279 182.502 46.2857 180.376 48.412C178.25 50.6711 175.725 51.7342 172.801 51.7342H137.319V46.0199C137.319 45.4884 137.718 44.9568 138.382 44.9568H171.871C175.99 44.9568 176.256 40.4385 176.256 39.3754C176.123 38.4452 175.459 35.2558 172.27 35.2558H148.615C142.369 35.2558 137.319 30.206 137.319 24.093V23.2957C137.319 17.0498 142.369 12.1329 148.482 12.1329L182.502 12C183.034 12 183.565 12.5316 183.565 13.0631V17.8472C183.565 18.3787 183.167 18.9103 182.502 18.9103H149.545C146.887 18.9103 144.761 21.0365 144.761 23.6944C144.761 26.3522 146.887 28.4784 149.545 28.4784H171.871C182.502 28.4784 183.565 37.1163 183.565 39.907Z" fill="black"/>
<path d="M231.805 46.0199V50.9368C231.805 51.4684 231.406 51.867 230.875 51.867H206.157C195.26 51.867 186.356 42.9634 186.356 32.0664V31.9335C186.356 21.0365 195.26 12.1328 206.157 12.1328H230.875C231.406 12.1328 231.805 12.5315 231.805 13.063V17.98C231.805 18.5116 231.406 18.9102 230.875 18.9102H206.954C199.778 18.9102 193.931 24.7574 193.931 31.9335C193.931 39.1096 199.778 44.9567 206.954 44.9567H230.875C231.406 44.9567 231.805 45.4883 231.805 46.0199Z" fill="black"/>
<path d="M245.759 12H267.952C274.862 12 280.311 17.5814 280.311 24.3588V39.3754C280.311 46.2857 274.729 51.7342 267.952 51.7342H245.759C239.779 51.7342 234.862 46.8173 234.862 40.8372V22.897C234.995 16.9169 239.779 12 245.759 12ZM272.869 38.9767V24.8904C272.869 21.5681 270.211 18.9103 266.889 18.9103H248.417C245.095 18.9103 242.437 21.5681 242.437 24.8904V38.9767C242.437 42.299 245.095 44.9568 248.417 44.9568H266.889C270.211 45.0897 272.869 42.299 272.869 38.9767Z" fill="black"/>
<path d="M295.592 12H317.785C324.695 12 330.144 17.5814 330.144 24.3588V39.3754C330.144 46.2857 324.562 51.7342 317.785 51.7342H295.592C289.612 51.7342 284.695 46.8173 284.695 40.8372V22.897C284.695 16.9169 289.612 12 295.592 12ZM322.702 38.9767V24.8904C322.702 21.5681 320.044 18.9103 316.722 18.9103H298.117C294.795 18.9103 292.137 21.5681 292.137 24.8904V38.9767C292.137 42.299 294.795 44.9568 298.117 44.9568H316.722C320.044 45.0897 322.702 42.299 322.702 38.9767Z" fill="black"/>
<path d="M378.515 12.9302V17.8472C378.515 18.3787 378.117 18.7774 377.585 18.7774H359.778C359.246 18.7774 358.848 19.1761 358.848 19.7076V50.6711C358.848 51.2027 358.449 51.6013 357.917 51.6013H353C352.469 51.6013 352.07 51.2027 352.07 50.6711V19.8405C352.07 19.309 351.671 18.9103 351.14 18.9103H333.333C332.801 18.9103 332.402 18.5116 332.402 17.9801V12.9302C332.402 12.3987 332.801 12 333.333 12H377.585C377.984 12 378.515 12.3987 378.515 12.9302Z" fill="black"/>
<path d="M418.648 12H424.23C424.761 12 425.16 12.3987 425.16 12.9302V50.804C425.16 51.3355 424.761 51.7342 424.23 51.7342H418.648C418.117 51.7342 417.718 51.3355 417.718 50.804V36.5847C417.718 36.0532 417.319 35.6545 416.788 35.6545H387.685C386.887 35.6545 386.09 35.2558 385.426 34.7243L382.768 31.9336C382.369 31.5349 382.103 30.8704 381.971 30.3389L378.914 13.0631C378.914 12.5316 379.313 12.1329 379.844 12.1329H385.426C385.957 12.1329 386.356 12.5316 386.356 13.0631L389.014 27.4153C389.147 27.9468 389.545 28.2126 389.944 28.2126H416.655C417.187 28.2126 417.585 27.814 417.585 27.2824V13.0631C417.718 12.5316 418.117 12 418.648 12Z" fill="black"/>
<path d="M34.1963 12H42.0368C44.8275 12 47.2196 14.2591 47.2196 17.1827V51.4684C47.2196 51.6013 47.0867 51.8671 46.8209 51.8671H40.0435C39.9106 51.8671 39.6448 51.7342 39.6448 51.4684V20.505C39.6448 19.9734 39.2461 19.4419 38.5817 19.4419H36.8541C36.3226 19.4419 35.9239 19.8405 35.791 20.2392L28.7478 51.4684C28.7478 51.6013 28.6149 51.7342 28.3491 51.7342H19.5784C19.4455 51.7342 19.3126 51.6013 19.1797 51.4684L12.4023 20.3721C12.2694 19.8405 11.7378 19.4419 11.2063 19.4419H9.74448C9.08002 19.4419 8.41557 19.9734 8.41557 20.7708V51.4684C8.41557 51.6013 8.28268 51.8671 8.0169 51.8671H1.23949C1.1066 51.8671 0.84082 51.7342 0.84082 51.4684V17.1827C0.84082 14.2591 3.09996 12 6.02355 12H13.8641C16.389 12 18.5152 13.7276 19.0468 16.1196L23.698 39.1096C23.8309 39.5083 24.3624 39.5083 24.3624 39.1096L29.0136 16.1196C29.678 13.7276 31.8043 12 34.1963 12Z" fill="#FF5500"/>
<path d="M53.8648 12H59.4462C59.9778 12 60.3764 12.3987 60.3764 12.9302V50.804C60.3764 51.3355 59.9778 51.7342 59.4462 51.7342H53.8648C53.3332 51.7342 52.9346 51.3355 52.9346 50.804V12.9302C52.9346 12.3987 53.3332 12 53.8648 12Z" fill="#FF5500"/>
<path d="M72.203 51.867H66.7545C66.223 51.867 65.6914 51.4684 65.6914 50.8039V24.4916C65.6914 17.5813 71.2728 12.1328 78.0502 12.1328H100.243C106.223 12.1328 111.14 17.0498 111.14 23.0298V50.9368C111.14 51.4684 110.741 51.9999 110.077 51.9999H104.628C104.097 51.9999 103.565 51.6012 103.565 50.9368V24.8903C103.565 21.568 100.907 18.9102 97.5851 18.9102H79.2462C75.924 18.9102 73.2662 21.568 73.2662 24.8903V50.9368C73.2662 51.4684 72.7346 51.867 72.203 51.867Z" fill="#FF5500"/>
<path d="M117.652 12H123.233C123.765 12 124.164 12.3987 124.164 12.9302V50.804C124.164 51.3355 123.765 51.7342 123.233 51.7342H117.652C117.12 51.7342 116.722 51.3355 116.722 50.804V12.9302C116.589 12.3987 117.12 12 117.652 12Z" fill="#FF5500"/>
</svg>
