<svg width="224" height="64" viewBox="0 0 224 64" fill="none" xmlns="http://www.w3.org/2000/svg">
<path d="M5.40039 28C7.60039 27 10.8004 26.4 14.4004 26.1H4.00039C3.60039 26.1 3.20039 25.9 2.90039 25.6C2.60039 25.3 2.40039 24.9 2.40039 24.4L2.50039 22.7H31.4004C31.8004 22.7 32.3004 22.8999 32.5004 23.2999C32.7004 23.6999 32.8004 24.1 32.6004 24.5L29.5004 33.9C29.1004 34.9 28.2004 35.6 27.1004 35.7H23.3004L26.8004 42.0999H18.3004L14.6004 35.5C14.2004 35.1 14.1004 34.5999 14.3004 34.0999V34C14.6004 33.1 15.5004 32.4 16.5004 32.4H21.3004H21.4004L23.5004 26H14.6004L9.40039 42H0.900391L5.40039 28Z" fill="black"/>
<path d="M32.1 42.2001C31.7 42.2001 31.2 42 31 41.6C30.8 41.2 30.7 40.8001 30.9 40.4001L33.4 32.7001C33.4 32.6 33.4 32.5 33.5 32.5C33.5 32.4 33.6 32.4 33.6 32.3L36.1 24.6V24.5C36.5 23.6 37.3 22.9 38.3 22.8H60.9C61.3 22.8 61.8 23 62 23.4C62.2 23.8 62.3 24.2 62.1 24.6L56.9 40.4001V40.5C56.6 41.4 55.7 42.1 54.7 42.2001H32.1ZM42.6 30.9L40 38.8H48.9L53 26.1H44.1L42.6 30.9Z" fill="black"/>
<path d="M63.3 33.7001C63.1 33.3001 63 32.9 63.2 32.5L65.8 24.6C66.2 23.6 67.1 22.9 68.2 22.8H92.4L91.9 24.5C91.6 25.4 90.7 26.1001 89.7 26.2001H73.9L72.4 31H87.9C88.3 31 88.8 31.2001 89 31.6C89.2 32 89.3 32.4 89.1 32.8L86.6 40.5C86.2 41.5 85.3 42.2 84.2 42.3H60L60.6 40.6C60.9 39.7 61.8 39.0001 62.8 38.9001H78.6L80.1 34.3H64.4C64 34.3 63.6 34.1 63.3 33.7001Z" fill="black"/>
<path d="M108.201 42.2001L110.801 34.2001H100.901L98.3008 42.2001H89.8008L96.1008 22.8H104.601L102.001 30.8H111.901L114.501 22.8H123.001L116.701 42.2001H108.201Z" fill="black"/>
<path d="M120.8 42.2001L127.1 22.8H138.4L141.4 37.6L146.2 22.8H154.7L148.4 42.2001H137.1L134.1 27.4L129.3 42.2001H120.8Z" fill="black"/>
<path d="M152.5 42.2001L158.8 22.8H167.3L161 42.2001H152.5Z" fill="black"/>
<path d="M223.101 0H194.801L171.301 21.5L160.201 0H129.201L143.801 23.5L144.201 22.2L144.701 20.7H146.301H154.801H157.301H157.801H158.901H167.401H170.401L169.501 23.5L163.201 42.9L162.701 44.4H161.101H152.601H150.101H149.601H148.501H137.201H135.401L135.201 43.3L110.301 64H142.201L164.501 44.3L175.701 64H203.901L186.301 31.8L223.101 0Z" fill="#FF5500"/>
</svg>
