<svg width="344" height="64" viewBox="0 0 344 64" fill="none" xmlns="http://www.w3.org/2000/svg">
<path d="M10.0066 22.8969C14.5249 20.9036 21.1694 19.7076 28.4783 19.0431H7.08299C6.28565 19.0431 5.35542 18.6444 4.69096 18.1129C4.02651 17.4484 3.76074 16.5182 3.76074 15.7209L3.89362 12.1328H63.2956C64.2258 12.1328 65.0232 12.5315 65.5548 13.3288C66.0863 14.1262 66.0863 15.0564 65.6876 15.8537L59.3089 35.2557C58.5116 37.2491 56.6511 38.8438 54.5249 38.8438H46.6843L53.8604 51.9999H36.3189L28.7441 38.4451C27.9468 37.6478 27.681 36.5846 28.0797 35.6544V35.5215C28.7441 33.5282 30.4717 32.3321 32.4651 32.1993H42.2989C42.2989 32.1993 42.4318 32.1993 42.5647 32.1993L46.8172 19.0431H28.7441L17.98 51.9999H0.438477L10.0066 22.8969Z" fill="black"/>
<path d="M65.0229 51.9999C64.2255 51.9999 63.2953 51.6012 62.7638 50.8039C62.2322 50.0066 62.2322 49.0763 62.6309 48.279L67.8136 32.465C67.8136 32.3321 67.8136 32.0664 67.9465 32.0664C67.9465 31.9335 68.0794 31.8006 68.0794 31.6677L73.2621 15.8537V15.588C74.0594 13.5946 75.787 12.2657 77.7804 12.1328H124.292C125.222 12.1328 126.02 12.5315 126.551 13.3288C127.083 14.1262 127.083 15.0564 126.684 15.8537L116.053 48.279V48.5448C115.388 50.5381 113.528 51.867 111.535 51.9999H65.0229ZM86.5511 28.877L81.2355 45.2225H99.5744L108.079 19.0431H89.7405L86.5511 28.877Z" fill="black"/>
<path d="M129.343 34.4585C128.811 33.6611 128.811 32.7309 129.077 31.9336L134.393 15.7209C135.19 13.5947 137.05 12.1329 139.31 12H189.143L187.947 15.588C187.283 17.5814 185.423 18.9103 183.429 19.0432H150.871L147.682 28.8771H179.974C180.904 28.8771 181.702 29.2757 182.233 30.0731C182.765 30.8704 182.898 31.8007 182.499 32.598L177.316 48.2791C176.519 50.4053 174.658 51.8671 172.532 52H122.698L123.894 48.5448C124.559 46.5515 126.286 45.2226 128.413 45.0897H160.971L164.027 35.5216H131.735C130.672 35.6545 129.874 35.2558 129.343 34.4585Z" fill="black"/>
<path d="M221.702 51.9999L227.017 35.5215H206.685L201.37 51.9999H183.828L196.851 12.1328H214.393L209.077 28.6112H229.41L234.725 12.1328H252.267L239.243 51.9999H221.702Z" fill="black"/>
<path d="M247.615 51.9999L260.639 12.1328H284.027L290.14 42.5647L300.107 12.1328H317.648L304.625 51.9999H281.237L275.124 21.568L265.157 51.9999H247.615Z" fill="black"/>
<path d="M312.997 51.9999L326.02 12.1328H343.562L330.539 51.9999H312.997Z" fill="black"/>
</svg>
