<svg width="256" height="64" viewBox="0 0 256 64" fill="none" xmlns="http://www.w3.org/2000/svg">
<path d="M116.837 12.1349H134.91L155.772 51.0697H138.63L135.574 44.4256H116.04L112.984 51.0697H95.8418L116.837 12.1349ZM120.558 34.858H131.189L125.873 23.43L120.558 34.858Z" fill="black"/>
<path d="M184.21 12.002C192.183 11.8692 199.093 18.6462 198.96 26.7521C198.96 29.6755 198.163 32.3332 196.569 34.7251C194.974 37.117 192.981 38.8445 190.456 40.0405L198.96 50.9369H182.749L175.44 41.5022H161.886V50.9369H146.737V12.002H184.21ZM161.886 23.43V30.0742H180.357C181.287 30.0742 182.084 29.8084 182.749 29.144C183.413 28.4796 183.679 27.6823 183.679 26.7521C183.679 24.8917 182.217 23.43 180.357 23.43H161.886Z" fill="black"/>
<path d="M57.5724 12.1349L46.2773 23.43H17.8402V26.2205H51.8584V51.867H0.698242L11.9933 40.5719H40.4304V37.7814H6.41224V12.1349H57.5724Z" fill="black"/>
<path d="M88.8009 23.43H50.2646L61.5597 12.1349H100.096V40.5719H66.0778V51.867H54.7827V26.3534H66.0778V29.144H88.8009V23.43Z" fill="black"/>
<path d="M224.075 26.3534L238.293 12.1349H255.302L235.37 32.0674L252.512 51.9999H235.503L224.075 37.7814H212.779V51.867H201.484V12.1349H212.779V26.3534H224.075Z" fill="black"/>
<path d="M134.378 12.0021L140.092 22.1012L134.511 22.7656L141.819 33.9278L137.036 34.5923L148.596 50.9369L146.869 41.2364L152.45 40.9707L148.331 29.144H152.45L147.002 12.0021H134.378Z" fill="#FF5500"/>
</svg>
