<svg width="220" height="24" viewBox="0 0 220 24" fill="none" xmlns="http://www.w3.org/2000/svg">
<mask id="mask0_3995_7097" style="mask-type:luminance" maskUnits="userSpaceOnUse" x="52" y="2" width="116" height="21">
<path d="M167.511 2.00049H52.5547V22.0005H167.511V2.00049Z" fill="white"/>
</mask>
<g mask="url(#mask0_3995_7097)">
<path d="M56.3394 2.00049L62.307 17.8082C62.4817 18.274 62.8014 18.4783 63.2672 18.4783C63.733 18.4783 64.0241 18.274 64.2284 17.8082L70.4872 2.00049H74.3005L67.3716 19.4672C66.6433 21.3008 65.3051 21.9995 63.2672 21.9995C61.3458 21.9995 59.8615 21.3876 59.1332 19.4672L52.5547 2.00049H56.3394Z" fill="#0A0A0A"/>
<path d="M78.4959 2.00049H75.0605V21.6511H78.4959V2.00049Z" fill="#0A0A0A"/>
<path d="M96.0804 2.00049V5.4358H88.4824C84.6978 5.4358 83.0388 7.32764 83.0388 11.8406C83.0388 16.3536 84.6691 18.2158 88.4824 18.2158H96.0804V21.6511H88.4824C82.7477 21.6511 79.6035 18.4201 79.6035 11.8406C79.6035 5.26112 82.7763 2.00049 88.4824 2.00049H96.0804Z" fill="#0A0A0A"/>
<path d="M111.813 2.00049V5.4358H106.078V21.6511H102.614V5.4358H96.8789V2.00049H111.813Z" fill="#0A0A0A"/>
<path d="M123.37 2.00049C129.076 2.00049 132.249 5.26112 132.249 11.8692C132.249 18.4773 129.105 21.6511 123.37 21.6511H120.691C114.957 21.6511 111.812 18.4487 111.812 11.8692C111.812 5.28974 114.985 2.00049 120.691 2.00049H123.37ZM120.691 5.4358C116.907 5.4358 115.248 7.35724 115.248 11.8692C115.248 16.3812 116.878 18.2158 120.691 18.2158H123.37C127.154 18.2158 128.785 16.3526 128.785 11.8406C128.785 7.32862 127.154 5.4358 123.37 5.4358H120.691Z" fill="#0A0A0A"/>
<path d="M143.608 2.00049C148.033 2.00049 149.925 4.73709 149.925 7.88127C149.925 10.3267 148.761 12.9469 145.763 13.7907L150.333 21.6511H146.52L142.036 14.0532H136.912C136.593 14.0532 136.418 14.1992 136.418 14.5476V21.6511H132.983V13.8775C132.983 11.6649 133.914 10.7629 136.069 10.7629H143.725C145.675 10.7629 146.461 9.42376 146.461 8.02634C146.461 6.62893 145.618 5.4358 143.725 5.4358H132.953V2.00049H143.608Z" fill="#0A0A0A"/>
<path d="M152.373 2.00049L157.874 10.4136L163.434 2.00049H167.51L159.592 13.1798V21.6511H156.128V13.1798L148.209 2.00049H152.373Z" fill="#0A0A0A"/>
</g>
</svg>
