<svg width="1076" height="402" viewBox="0 0 1076 402" fill="none" xmlns="http://www.w3.org/2000/svg">
<path d="M206.284 357.307C188.185 374.164 171.349 381.458 147.594 386.11C126.18 390.144 103.022 394.031 81.3716 396.002C73.7953 396.587 54.1014 397.609 48.0796 393.836C45.4289 392.069 43.1602 390.602 41.7614 387.643C36.9977 377.091 35.5295 362.295 32.7218 350.794C21.8931 305.119 15.7495 257.814 12.0875 210.895C10.7925 194.694 10.4489 177.667 8.4733 161.549C8.17886 159.146 6.9593 149.197 7.47072 147.733C8.55759 142.377 66.3934 134.917 76.0275 134.078C78.4256 133.783 80.8236 133.488 83.0485 134.598C88.1849 133.966 87.3386 149.739 87.4619 153.563C92.0512 148.468 96.726 144.07 102.165 140.271C186.646 83.5651 243.627 210.969 164.323 250.331C212.443 260.082 243.119 323.169 206.284 357.307ZM90.9789 239.153C99.8489 237.716 109.508 237.22 117.278 232.442C133.438 222.446 130.712 194.574 114.093 198.003C105.621 199.737 95.7084 206.887 88.6355 211.58C89.4312 220.89 89.8429 229.885 90.9789 239.153ZM123.709 324.626C140.499 319.776 152.116 292.578 132.879 283.098C123.253 278.367 107.326 284.495 96.5876 284.778C98.3543 299.191 101.184 313.82 104.666 328.006C111.221 327.546 117.337 326.448 123.725 324.624L123.709 324.626Z" fill="#32CFB8"/>
<path d="M360.362 223.632C364.291 224.286 364.935 225.788 366.065 229.505C367.279 233.903 371.713 264.448 368.578 266.646C366.07 268.322 362.66 268.28 359.76 268.637C345.922 270.339 238.587 288.863 228.595 286.912C218.137 284.788 219.38 267.153 219.057 259.021C217.812 230.341 214.376 193.049 212.45 164.453C211.578 151.841 209.187 137.833 209.463 125.327C209.614 119.179 217.124 119.392 221.58 118.844C227.154 118.159 255.016 114.27 258.275 116.835C261.533 119.4 260.201 130.669 260.212 134.523C259.833 166.583 263.933 207.417 264.473 239.595C269.326 238.537 357.543 223.04 360.344 223.618L360.362 223.632Z" fill="#32CFB8"/>
<path d="M436.248 343.735C433.42 347.362 390.281 351.943 383.103 352.826C374.499 353.884 369.163 354.903 370.025 344.219C372.546 317.284 384.584 100.558 390.25 96.203C391.918 94.9105 403.834 94.1698 406.718 93.8151C436.987 91.1794 464.086 83.4801 493.603 77.6582C503.561 75.7084 507.433 89.4511 510.157 96.7775C522.057 128.513 529.377 161.537 537.384 194.115C546.319 231.323 552.767 272.116 565.568 308.123C567.211 312.666 572.35 324.803 567.366 328.695C563.721 331.697 494.798 339.812 488.172 339.161C485.973 339.069 484.459 338.53 483.838 336.415C480.581 327.688 474.888 275.335 473.029 266.073C459.584 266.277 445.672 268.713 432.401 270.346C432.349 275.822 438.813 340.503 436.297 343.729L436.248 343.735ZM436.647 234.136C446.249 232.23 456.162 229.907 465.985 229.802C459.869 194.801 455.243 186.72 448.415 151.807C444.885 188.357 439.108 197.717 436.647 234.136Z" fill="#FF5500"/>
<path d="M692.796 248.862C701.095 248.533 1055.42 197.569 1058.24 203.484C1058.66 204.124 1065.78 241.407 1066.2 247.633C1066.32 251.457 1068.14 257.84 1062.71 258.855C1056.59 259.953 1049.87 259.034 1043.63 259.109C1019.05 260.039 685.763 310.507 661.417 313.156C641.85 315.217 620.497 316.789 601.65 321.908C596.938 323.179 576.342 330.936 575.417 323.388C573.105 304.527 569.228 278.527 572.136 259.716C573.097 253.336 580.978 246.782 584.889 241.786C613.724 207.594 648.079 153.214 667.01 111.887C641.091 121.698 594.652 122.434 568.832 132.926C563.865 134.937 546.599 144.36 543.445 138.487C543.063 138.188 543.275 137.107 543.192 136.425C540.371 116.227 535.024 95.2839 533.268 75.3166C535.031 72.6613 535.501 70.857 538.878 70.0956C568.339 63.6874 618.02 66.721 647.44 59.9719C671.848 54.8772 695.266 47.4659 719.209 41.3905C721.905 40.7128 723.366 41.2251 724.383 43.8845C724.89 45.2061 725.61 48.2645 725.777 49.6279C729.174 65.9335 732.511 81.8839 740.916 96.5189C742.232 98.7956 743.605 101.411 742.904 104.282C743.539 106.642 741.947 107.876 740.755 109.423C718.654 136.164 678.089 219.316 665.003 251.572C674.255 250.434 683.491 249.298 692.826 248.841L692.796 248.862Z" fill="#32CFB8"/>
<path d="M774.508 228.728C769.893 228.785 767.522 225.946 767.052 222.115C764.134 198.304 741.781 51.3668 749.924 39.9688C751.161 38.2514 753.06 37.2434 754.99 36.4789C760.811 34.4612 1030.29 3.91842 1038.7 4.18628C1044.49 4.24763 1042.89 12.5017 1042.76 16.1586C1042.73 20.5784 1045.26 48.3425 1042.32 50.2529C1040.45 51.5206 1035.61 52.1165 1033.05 52.4314C1014.88 55.1929 827.839 76.634 809.579 78.6164C809.324 85.9302 809.311 92.9342 809.331 100.214C823.449 97.4398 1023.85 69.4133 1036.53 69.155C1042 69.0088 1042.13 74.7109 1042.6 78.5415C1043.58 84.138 1048.32 113.442 1046.71 116.755C1043.68 122.844 822.959 147.654 813.804 148.516L817.61 177.145C832.128 175.359 846.338 173.348 860.779 170.797C865.592 169.941 1039.5 147.512 1044.33 146.918C1047.18 146.568 1048.11 146.981 1049.52 149.147C1052.05 153.252 1055.72 183.199 1055.31 189.23C1051.01 191.836 787.188 228.454 774.506 228.712L774.508 228.728Z" fill="#FF5500"/>
</svg>
