<svg width="24" height="24" viewBox="0 0 24 24" fill="none" xmlns="http://www.w3.org/2000/svg">
<mask id="mask0_3300_4378" style="mask-type:alpha" maskUnits="userSpaceOnUse" x="0" y="-1" width="24" height="25">
<rect y="-0.355469" width="24" height="24" fill="#D9D9D9"/>
</mask>
<g mask="url(#mask0_3300_4378)">
<path d="M9.4521 3.45447L10.7819 6.64594C11.0146 7.17785 10.8816 7.80949 10.4162 8.17518L8.78721 9.53821C9.88427 11.8653 11.7792 13.7603 14.1063 14.8573L15.4693 13.2283C15.835 12.7629 16.4667 12.6299 16.9986 12.8627L20.1901 14.1924C20.8217 14.4251 21.1209 15.1233 20.9547 15.7549L20.1568 18.6804C19.9906 19.2456 19.4919 19.6445 18.8935 19.6445C10.6489 19.6445 4 12.9956 4 4.751C4 4.1526 4.39893 3.65393 4.96409 3.48771L7.88961 2.68984C8.52125 2.52362 9.21938 2.82282 9.4521 3.45447Z" fill="#FF7700"/>
</g>
</svg>
