<svg width="24" height="24" viewBox="0 0 24 24" fill="none" xmlns="http://www.w3.org/2000/svg">
<mask id="mask0_3303_4553" style="mask-type:alpha" maskUnits="userSpaceOnUse" x="0" y="0" width="24" height="24">
<rect width="24" height="24" fill="#D9D9D9"/>
</mask>
<g mask="url(#mask0_3303_4553)">
<path d="M21.5186 11.8448C21.5186 16.7156 17.8376 20.7313 13.1527 21.3262V14.7821H15.7182L16.2388 11.8448H13.1527V10.8408C13.1527 9.27921 13.7476 8.68429 15.3092 8.68429C15.7926 8.68429 16.1644 8.72148 16.3875 8.72148V6.11874C15.9785 5.97001 14.9374 5.85846 14.3425 5.85846C11.1449 5.85846 9.69475 7.38292 9.69475 10.6178V11.8448H7.72411V14.7821H9.69475V21.1031C5.53037 20.062 2.48145 16.3066 2.48145 11.8448C2.48145 6.6021 6.72019 2.32617 12 2.32617C17.2427 2.32617 21.5186 6.6021 21.5186 11.8448Z" fill="#FF7700"/>
</g>
</svg>
