<svg width="24" height="24" viewBox="0 0 24 24" fill="none" xmlns="http://www.w3.org/2000/svg">
<mask id="mask0_3303_4557" style="mask-type:alpha" maskUnits="userSpaceOnUse" x="0" y="0" width="24" height="24">
<rect width="24" height="24" fill="#D9D9D9"/>
</mask>
<g mask="url(#mask0_3303_4557)">
<path d="M12.4978 6.97461C15.1696 6.97461 17.375 9.17997 17.375 11.8518C17.375 14.5661 15.1696 16.7291 12.4978 16.7291C9.78348 16.7291 7.62054 14.5661 7.62054 11.8518C7.62054 9.17997 9.78348 6.97461 12.4978 6.97461ZM12.4978 15.0326C14.2366 15.0326 15.6362 13.6331 15.6362 11.8518C15.6362 10.113 14.2366 8.71345 12.4978 8.71345C10.7165 8.71345 9.31696 10.113 9.31696 11.8518C9.31696 13.6331 10.7589 15.0326 12.4978 15.0326ZM18.6897 6.80497C18.6897 6.16881 18.1808 5.65988 17.5446 5.65988C16.9085 5.65988 16.3996 6.16881 16.3996 6.80497C16.3996 7.44113 16.9085 7.95006 17.5446 7.95006C18.1808 7.95006 18.6897 7.44113 18.6897 6.80497ZM21.9129 7.95006C21.9978 9.51925 21.9978 14.2268 21.9129 15.796C21.8281 17.3228 21.4888 18.6376 20.3862 19.7826C19.2835 20.8853 17.9263 21.2246 16.3996 21.3094C14.8304 21.3943 10.1228 21.3943 8.55357 21.3094C7.02679 21.2246 5.71205 20.8853 4.56696 19.7826C3.46429 18.6376 3.125 17.3228 3.04018 15.796C2.95536 14.2268 2.95536 9.51925 3.04018 7.95006C3.125 6.42327 3.46429 5.06613 4.56696 3.96345C5.71205 2.86077 7.02679 2.52148 8.55357 2.43666C10.1228 2.35184 14.8304 2.35184 16.3996 2.43666C17.9263 2.52148 19.2835 2.86077 20.3862 3.96345C21.4888 5.06613 21.8281 6.42327 21.9129 7.95006ZM19.8772 17.4501C20.3862 16.2201 20.2589 13.2514 20.2589 11.8518C20.2589 10.4947 20.3862 7.52595 19.8772 6.25363C19.5379 5.44782 18.9018 4.76925 18.096 4.47238C16.8237 3.96345 13.8549 4.09068 12.4978 4.09068C11.0982 4.09068 8.12946 3.96345 6.89955 4.47238C6.05134 4.81166 5.41518 5.44782 5.07589 6.25363C4.56696 7.52595 4.6942 10.4947 4.6942 11.8518C4.6942 13.2514 4.56696 16.2201 5.07589 17.4501C5.41518 18.2983 6.05134 18.9344 6.89955 19.2737C8.12946 19.7826 11.0982 19.6554 12.4978 19.6554C13.8549 19.6554 16.8237 19.7826 18.096 19.2737C18.9018 18.9344 19.5804 18.2983 19.8772 17.4501Z" fill="#FF7700"/>
</g>
</svg>
