<svg width="24" height="24" viewBox="0 0 24 24" fill="none" xmlns="http://www.w3.org/2000/svg">
<mask id="mask0_3303_4617" style="mask-type:alpha" maskUnits="userSpaceOnUse" x="0" y="0" width="24" height="24">
<rect width="24" height="24" fill="#D9D9D9"/>
</mask>
<g mask="url(#mask0_3303_4617)">
<path d="M20.4827 2.34961C21.2037 2.34961 21.8398 2.98577 21.8398 3.74916V19.9925C21.8398 20.7559 21.2037 21.3496 20.4827 21.3496H4.15458C3.43359 21.3496 2.83984 20.7559 2.83984 19.9925V3.74916C2.83984 2.98577 3.43359 2.34961 4.15458 2.34961H20.4827ZM8.56529 18.6353V9.60184H5.76618V18.6353H8.56529ZM7.16574 8.32952C8.05636 8.32952 8.77734 7.60854 8.77734 6.71791C8.77734 5.82729 8.05636 5.0639 7.16574 5.0639C6.2327 5.0639 5.51172 5.82729 5.51172 6.71791C5.51172 7.60854 6.2327 8.32952 7.16574 8.32952ZM19.1256 18.6353V13.6733C19.1256 11.2559 18.5742 9.34738 15.7327 9.34738C14.3756 9.34738 13.4425 10.1108 13.0608 10.8318H13.0184V9.60184H10.3465V18.6353H13.1456V14.1822C13.1456 12.9947 13.3577 11.8496 14.8421 11.8496C16.284 11.8496 16.284 13.2068 16.284 14.2246V18.6353H19.1256Z" fill="#FF7700"/>
</g>
</svg>
