<svg width="24" height="24" viewBox="0 0 24 24" fill="none" xmlns="http://www.w3.org/2000/svg">
<mask id="mask0_3300_4399" style="mask-type:alpha" maskUnits="userSpaceOnUse" x="0" y="0" width="24" height="24">
<rect width="24" height="24" fill="#D9D9D9"/>
</mask>
<g mask="url(#mask0_3300_4399)">
<path fill-rule="evenodd" clip-rule="evenodd" d="M18.696 5.26114C17.8241 4.38279 16.7864 3.6864 15.6431 3.21241C14.4999 2.73842 13.2739 2.49628 12.0362 2.50004C6.84805 2.50004 2.62565 6.72323 2.62565 11.9146C2.62555 13.5667 3.06025 15.1897 3.88607 16.6207L2.54688 21.5L7.53813 20.19C8.91762 20.942 10.4635 21.3366 12.0347 21.3378C13.8972 21.3382 15.7181 20.7862 17.267 19.7517C18.8158 18.7171 20.0231 17.2466 20.7362 15.5259C21.4492 13.8052 21.6359 11.9117 21.2728 10.0848C20.9096 8.25799 20.0129 6.57988 18.696 5.26272V5.26114ZM12.0394 19.752C10.6368 19.7514 9.26017 19.3731 8.05411 18.657L7.76736 18.4861L4.80538 19.262L5.59315 16.3749L5.40802 16.0787C4.3815 14.4488 3.99196 12.4976 4.31394 10.5985C4.63591 8.69936 5.6468 6.98563 7.15319 5.78516C8.65958 4.58469 10.5557 3.98177 12.4788 4.09177C14.4019 4.20176 16.2169 5.01694 17.5766 6.38134C18.6717 7.47676 19.4175 8.87231 19.7197 10.3915C20.0218 11.9108 19.8667 13.4855 19.2739 14.9166C18.6812 16.3477 17.6775 17.5709 16.3896 18.4316C15.1017 19.2923 13.5876 19.7518 12.0386 19.752H12.0394ZM16.3327 13.8863C16.0964 13.7674 14.9407 13.2002 14.7264 13.1214C14.5122 13.0426 14.3546 13.0025 14.1947 13.2404C14.0348 13.4783 13.5866 14.0053 13.4495 14.1636C13.3124 14.322 13.1746 14.3425 12.9414 14.2235C12.7082 14.1045 11.9464 13.8564 11.0508 13.0545C10.5349 12.5787 10.0917 12.0298 9.73519 11.4254C9.59733 11.189 9.72022 11.0622 9.83996 10.9472C9.9597 10.8322 10.0763 10.6731 10.1921 10.5352C10.29 10.4164 10.3697 10.2836 10.4284 10.1413C10.4597 10.0765 10.4743 10.0049 10.471 9.93293C10.4677 9.86101 10.4466 9.79104 10.4095 9.72932C10.3457 9.61116 9.87305 8.45315 9.68399 7.98128C9.49492 7.50941 9.29877 7.5874 9.15382 7.57637C9.00888 7.56534 8.85999 7.56928 8.7048 7.56928C8.58516 7.57209 8.46739 7.59964 8.35893 7.65022C8.25047 7.70079 8.15365 7.77328 8.07459 7.86312C7.86268 8.09708 7.25375 8.66821 7.25375 9.82622C7.25375 10.9842 8.09586 12.1013 8.21403 12.2604C8.33219 12.4195 9.87305 14.7946 12.2363 15.8132C12.7972 16.0543 13.2352 16.1992 13.5755 16.3111C14.0554 16.4558 14.5624 16.4873 15.0565 16.4032C15.5087 16.3371 16.4477 15.8353 16.6454 15.2862C16.8432 14.7371 16.8424 14.2621 16.7833 14.1684C16.7242 14.0746 16.5714 14.0061 16.3343 13.8855L16.3327 13.8863Z" fill="#25D366"/>
</g>
</svg>
