<svg width="44" height="44" viewBox="0 0 44 44" fill="none" xmlns="http://www.w3.org/2000/svg">
<mask id="mask0_3262_8030" style="mask-type:alpha" maskUnits="userSpaceOnUse" x="0" y="0" width="44" height="44">
<rect width="44" height="44" fill="#D9D9D9"/>
</mask>
<g mask="url(#mask0_3262_8030)">
<path d="M16.3932 27.0423C13.4669 27.0423 10.9785 26.0169 8.9279 23.966C6.87701 21.9154 5.85156 19.427 5.85156 16.5007C5.85156 15.9953 5.88869 15.487 5.96294 14.9758C6.03688 14.4646 6.16078 13.9751 6.33465 13.5073C6.45228 13.2252 6.61102 13.0167 6.81085 12.8816C7.01038 12.7466 7.23588 12.6485 7.48735 12.5874C7.73913 12.5263 7.99244 12.5309 8.24727 12.6012C8.50241 12.6717 8.73448 12.8117 8.94348 13.021L13.8266 17.8688L17.7614 13.934L12.931 9.08619C12.722 8.87689 12.5822 8.64191 12.5116 8.38127C12.441 8.12033 12.4363 7.86412 12.4974 7.61265C12.5585 7.36118 12.6596 7.13553 12.8008 6.93569C12.9417 6.73586 13.1473 6.57712 13.4177 6.45948C13.8855 6.27401 14.3721 6.14415 14.8775 6.0699C15.3826 5.99596 15.8878 5.95898 16.3932 5.95898C19.3195 5.95898 21.8081 6.98443 23.859 9.03532C25.9096 11.0859 26.9349 13.5743 26.9349 16.5007C26.9349 17.274 26.862 17.9944 26.7163 18.6617C26.5705 19.3293 26.3519 19.9747 26.0604 20.5977L36.0241 30.5046C36.7926 31.273 37.1768 32.2108 37.1768 33.3178C37.1768 34.4248 36.7926 35.3627 36.0241 36.1315C35.2556 36.9 34.3179 37.2842 33.2109 37.2842C32.1038 37.2842 31.1659 36.8905 30.3971 36.1031L20.4903 26.1678C19.8437 26.4477 19.1868 26.6634 18.5194 26.815C17.8518 26.9665 17.1431 27.0423 16.3932 27.0423Z" fill="#461A04"/>
</g>
</svg>
