<svg width="44" height="44" viewBox="0 0 44 44" fill="none" xmlns="http://www.w3.org/2000/svg">
<mask id="mask0_3262_8012" style="mask-type:alpha" maskUnits="userSpaceOnUse" x="0" y="0" width="44" height="44">
<rect width="44" height="44" fill="#D9D9D9"/>
</mask>
<g mask="url(#mask0_3262_8012)">
<path d="M23.8679 38.4296V40.5238C23.8679 40.8263 23.7375 41.06 23.4765 41.225C23.2156 41.39 22.9423 41.4009 22.6566 41.2576L15.2444 37.5203C15.054 37.4097 14.9793 37.2516 15.0203 37.0459C15.0612 36.8403 15.1911 36.7375 15.4099 36.7375H20.4479V34.6433C20.4479 34.3408 20.5783 34.1071 20.8393 33.9421C21.1002 33.7771 21.3735 33.7662 21.6592 33.9096L29.0719 37.6468C29.2622 37.7574 29.3369 37.9155 29.296 38.1212C29.2547 38.3268 29.1247 38.4296 28.9059 38.4296H23.8679ZM13.0109 30.8144C11.6112 30.8144 10.4206 30.3242 9.43916 29.3436C8.45802 28.3634 7.96745 27.1731 7.96745 25.7728H5.95766C5.48832 25.7728 5.09477 25.6139 4.77699 25.2961C4.45952 24.9786 4.30078 24.5851 4.30078 24.1154V20.7311C4.30078 18.8321 4.97178 17.2114 6.31378 15.8691C7.65578 14.5271 9.27645 13.8561 11.1758 13.8561H14.7366C15.648 13.8561 16.4283 14.1806 17.0773 14.8296C17.7263 15.4786 18.0508 16.2588 18.0508 17.1703V23.0228H25.1371L31.8008 14.7659V10.013C31.8008 9.84858 31.7479 9.71353 31.6422 9.6078C31.5362 9.50178 31.401 9.44876 31.2366 9.44876H27.6758C27.2862 9.44876 26.9596 9.31707 26.6959 9.05368C26.4325 8.78999 26.3008 8.46319 26.3008 8.0733C26.3008 7.68372 26.4325 7.35723 26.6959 7.09385C26.9596 6.83076 27.2862 6.69922 27.6758 6.69922H31.2366C32.148 6.69922 32.9283 7.02372 33.5773 7.67272C34.2263 8.32172 34.5508 9.1018 34.5508 10.013V14.5289C34.5508 14.9265 34.4881 15.2959 34.3629 15.6372C34.2379 15.9782 34.0642 16.2987 33.8417 16.5988L27.5415 24.5211C27.2399 24.9103 26.856 25.2163 26.3897 25.4391C25.9237 25.6615 25.4393 25.7728 24.9363 25.7728H18.0508C18.0508 27.1713 17.5608 28.3611 16.5809 29.3423C15.601 30.3237 14.411 30.8144 13.0109 30.8144ZM13.0091 28.0644C13.6459 28.0644 14.187 27.8417 14.6325 27.3962C15.078 26.9507 15.3008 26.4095 15.3008 25.7728H10.7174C10.7174 26.4095 10.94 26.9507 11.3852 27.3962C11.8307 27.8417 12.372 28.0644 13.0091 28.0644ZM16.6758 11.2821H11.1758C10.7862 11.2821 10.4596 11.1504 10.1959 10.887C9.93248 10.6233 9.80078 10.2965 9.80078 9.90664C9.80078 9.51705 9.93248 9.19057 10.1959 8.92718C10.4596 8.6641 10.7862 8.53255 11.1758 8.53255H16.6758C17.0654 8.53255 17.3918 8.66425 17.6552 8.92764C17.9189 9.19133 18.0508 9.51812 18.0508 9.90801C18.0508 10.2976 17.9189 10.6241 17.6552 10.8875C17.3918 11.1506 17.0654 11.2821 16.6758 11.2821ZM34.6585 30.8144C33.2584 30.8144 32.0678 30.3245 31.0867 29.3446C30.1053 28.3646 29.6145 27.1747 29.6145 25.7746C29.6145 24.3748 30.1045 23.1842 31.0844 22.2028C32.0643 21.2217 33.2543 20.7311 34.6544 20.7311C36.0541 20.7311 37.2447 21.2211 38.2262 22.201C39.2073 23.1809 39.6979 24.3707 39.6979 25.7705C39.6979 27.1705 39.2079 28.3611 38.228 29.3423C37.2481 30.3237 36.0582 30.8144 34.6585 30.8144ZM34.6562 28.0644C35.2933 28.0644 35.8346 27.8417 36.2801 27.3962C36.7253 26.9507 36.9479 26.4095 36.9479 25.7728C36.9479 25.1357 36.7253 24.5944 36.2801 24.1489C35.8346 23.7037 35.2933 23.4811 34.6562 23.4811C34.0194 23.4811 33.4783 23.7037 33.0328 24.1489C32.5873 24.5944 32.3645 25.1357 32.3645 25.7728C32.3645 26.4095 32.5873 26.9507 33.0328 27.3962C33.4783 27.8417 34.0194 28.0644 34.6562 28.0644Z" fill="#1C1B1F"/>
</g>
</svg>
