<svg width="44" height="44" viewBox="0 0 44 44" fill="none" xmlns="http://www.w3.org/2000/svg">
<mask id="mask0_3262_8006" style="mask-type:alpha" maskUnits="userSpaceOnUse" x="0" y="0" width="44" height="44">
<rect width="44" height="44" fill="#D9D9D9"/>
</mask>
<g mask="url(#mask0_3262_8006)">
<path d="M23.375 31.5045C24.79 30.7688 26.2156 30.2287 27.6517 29.8843C29.0878 29.54 30.565 29.3678 32.0833 29.3678C33.1833 29.3678 34.2164 29.4477 35.1826 29.6075C36.1484 29.7673 37.0662 29.9952 37.9358 30.2913C38.077 30.3503 38.2062 30.3416 38.3235 30.2652C38.4412 30.1888 38.5 30.0683 38.5 29.9036V12.5644C38.5 12.4586 38.4707 12.3647 38.412 12.2825C38.353 12.2003 38.2531 12.1297 38.1123 12.0707C37.1039 11.6784 36.122 11.3958 35.1665 11.2228C34.2111 11.0502 33.1833 10.9639 32.0833 10.9639C30.565 10.9639 29.056 11.1736 27.5564 11.5932C26.0567 12.0127 24.6629 12.642 23.375 13.481V31.5045ZM22 34.7688C21.6428 34.7688 21.3085 34.7242 20.9972 34.6349C20.6855 34.5457 20.3911 34.427 20.114 34.2788C18.8517 33.5644 17.5313 33.0256 16.1526 32.6623C14.7742 32.2993 13.3623 32.1178 11.9167 32.1178C10.798 32.1178 9.69925 32.2417 8.62033 32.4895C7.54142 32.7376 6.50131 33.1026 5.5 33.5844C4.84672 33.8851 4.22507 33.8375 3.63504 33.4415C3.04501 33.0455 2.75 32.4843 2.75 31.758V11.8526C2.75 11.4575 2.85175 11.0867 3.05525 10.7402C3.25844 10.3934 3.55162 10.1436 3.93479 9.99083C5.1946 9.40569 6.4926 8.96324 7.82879 8.66349C9.16499 8.36374 10.5276 8.21387 11.9167 8.21387C13.7005 8.21387 15.4434 8.4577 17.1453 8.94537C18.847 9.43334 20.4652 10.1532 22 11.105C23.5348 10.1532 25.153 9.43334 26.8547 8.94537C28.5566 8.4577 30.2995 8.21387 32.0833 8.21387C33.4724 8.21387 34.835 8.36374 36.1712 8.66349C37.5074 8.96324 38.8054 9.40569 40.0652 9.99083C40.4484 10.1436 40.7416 10.3934 40.9448 10.7402C41.1483 11.0867 41.25 11.4575 41.25 11.8526V31.758C41.25 32.4843 40.9432 33.0396 40.3297 33.424C39.7161 33.8081 39.0709 33.8498 38.3941 33.5492C37.4047 33.0789 36.3794 32.7228 35.3183 32.4808C34.2571 32.2388 33.1788 32.1178 32.0833 32.1178C30.6378 32.1178 29.2258 32.2993 27.8474 32.6623C26.4688 33.0256 25.1483 33.5644 23.886 34.2788C23.6089 34.427 23.3145 34.5457 23.0028 34.6349C22.6915 34.7242 22.3572 34.7688 22 34.7688ZM25.5608 16.2452C25.5608 16.0408 25.6337 15.8317 25.7794 15.6178C25.9252 15.4039 26.0909 15.2569 26.2767 15.1769C27.1863 14.8126 28.1224 14.5366 29.0849 14.3487C30.0474 14.1604 31.0469 14.0663 32.0833 14.0663C32.6828 14.0663 33.2628 14.1016 33.8232 14.1722C34.3839 14.2428 34.9485 14.3392 35.5172 14.4614C35.7335 14.5106 35.9203 14.6281 36.0777 14.8139C36.2354 14.9996 36.3142 15.2158 36.3142 15.4624C36.3142 15.8761 36.1843 16.1788 35.9246 16.3704C35.6649 16.562 35.3282 16.6084 34.9145 16.5097C34.4748 16.418 34.0181 16.3522 33.5445 16.3122C33.0709 16.2721 32.5838 16.2521 32.0833 16.2521C31.1948 16.2521 30.3246 16.3374 29.4727 16.5079C28.6205 16.6784 27.8078 16.9094 27.0348 17.2009C26.6021 17.3677 26.2483 17.3582 25.9733 17.1725C25.6983 16.987 25.5608 16.6779 25.5608 16.2452ZM25.5608 26.258C25.5608 26.0536 25.6337 25.8415 25.7794 25.6218C25.9252 25.4021 26.0909 25.2523 26.2767 25.1722C27.1628 24.808 28.0989 24.5348 29.0849 24.3527C30.0709 24.1706 31.0704 24.0795 32.0833 24.0795C32.6828 24.0795 33.2628 24.1147 33.8232 24.185C34.3839 24.2555 34.9485 24.3519 35.5172 24.4742C35.7335 24.5237 35.9203 24.6411 36.0777 24.8266C36.2354 25.0124 36.3142 25.2287 36.3142 25.4756C36.3142 25.889 36.1843 26.1915 35.9246 26.3831C35.6649 26.5747 35.3282 26.6211 34.9145 26.5224C34.4748 26.4308 34.0181 26.3649 33.5445 26.3249C33.0709 26.2852 32.5838 26.2653 32.0833 26.2653C31.2067 26.2653 30.3452 26.3487 29.4988 26.5156C28.6527 26.6824 27.843 26.9174 27.0696 27.2205C26.6373 27.3992 26.2778 27.3947 25.9912 27.2067C25.7043 27.0185 25.5608 26.7023 25.5608 26.258ZM25.5608 21.2695C25.5608 21.0651 25.6337 20.8559 25.7794 20.642C25.9252 20.4281 26.0909 20.2812 26.2767 20.2011C27.1863 19.8369 28.1224 19.5607 29.0849 19.3725C30.0474 19.1845 31.0469 19.0906 32.0833 19.0906C32.6828 19.0906 33.2628 19.1259 33.8232 19.1964C34.3839 19.2667 34.9485 19.363 35.5172 19.4852C35.7335 19.5347 35.9203 19.6523 36.0777 19.8381C36.2354 20.0236 36.3142 20.2398 36.3142 20.4867C36.3142 20.9004 36.1843 21.203 35.9246 21.3946C35.6649 21.5862 35.3282 21.6326 34.9145 21.5339C34.4748 21.4423 34.0181 21.3764 33.5445 21.3364C33.0709 21.2964 32.5838 21.2764 32.0833 21.2764C31.1948 21.2764 30.3246 21.3616 29.4727 21.5321C28.6205 21.7023 27.8078 21.9332 27.0348 22.2247C26.6021 22.3915 26.2483 22.3822 25.9733 22.1967C25.6983 22.0109 25.5608 21.7019 25.5608 21.2695Z" fill="#00331F"/>
</g>
</svg>
