<svg width="1301" height="363" viewBox="0 0 1301 363" fill="none" xmlns="http://www.w3.org/2000/svg">
<path d="M0.640002 281V5.34998H116.82C135.073 5.34998 150.613 8.55665 163.44 14.97C176.513 21.1367 186.503 30.0167 193.41 41.61C200.563 52.9567 204.14 66.77 204.14 83.05C204.14 95.63 200.687 107.47 193.78 118.57C187.12 129.423 176.39 138.427 161.59 145.58V122.27C175.157 127.45 185.887 133.863 193.78 141.51C201.673 149.157 207.223 157.667 210.43 167.04C213.637 176.413 215.24 186.28 215.24 196.64C215.24 223.033 206.483 243.753 188.97 258.8C171.703 273.6 147.653 281 116.82 281H0.640002ZM50.96 236.6H122C135.073 236.6 145.433 233.023 153.08 225.87C160.973 218.47 164.92 208.727 164.92 196.64C164.92 184.553 160.973 174.81 153.08 167.41C145.433 160.01 135.073 156.31 122 156.31H50.96V236.6ZM50.96 112.28H119.41C129.77 112.28 138.033 109.32 144.2 103.4C150.367 97.2333 153.45 89.34 153.45 79.72C153.45 70.1 150.367 62.4533 144.2 56.78C138.033 51.1067 129.77 48.27 119.41 48.27H50.96V112.28ZM347.85 285.44C327.13 285.44 309 280.753 293.46 271.38C277.92 262.007 265.834 249.303 257.2 233.27C248.567 217.237 244.25 199.477 244.25 179.99C244.25 159.763 248.567 141.88 257.2 126.34C266.08 110.553 278.044 98.0967 293.09 88.97C308.384 79.8433 325.404 75.28 344.15 75.28C359.937 75.28 373.75 77.87 385.59 83.05C397.677 88.23 407.914 95.3833 416.3 104.51C424.687 113.637 431.1 124.12 435.54 135.96C439.98 147.553 442.2 160.133 442.2 173.7C442.2 177.153 441.954 180.73 441.46 184.43C441.214 188.13 440.597 191.337 439.61 194.05H284.21V157.05H412.23L389.29 174.44C391.51 163.093 390.894 152.98 387.44 144.1C384.234 135.22 378.807 128.19 371.16 123.01C363.76 117.83 354.757 115.24 344.15 115.24C334.037 115.24 325.034 117.83 317.14 123.01C309.247 127.943 303.204 135.343 299.01 145.21C295.064 154.83 293.584 166.547 294.57 180.36C293.584 192.693 295.187 203.67 299.38 213.29C303.82 222.663 310.234 229.94 318.62 235.12C327.254 240.3 337.12 242.89 348.22 242.89C359.32 242.89 368.694 240.547 376.34 235.86C384.234 231.173 390.4 224.883 394.84 216.99L434.06 236.23C430.114 245.85 423.947 254.36 415.56 261.76C407.174 269.16 397.184 274.957 385.59 279.15C374.244 283.343 361.664 285.44 347.85 285.44ZM478.943 281V79.72H524.453V119.31L520.753 112.28C525.44 100.193 533.086 91.0667 543.693 84.9C554.546 78.4866 567.126 75.28 581.433 75.28C596.233 75.28 609.306 78.4866 620.653 84.9C632.246 91.3133 641.25 100.317 647.663 111.91C654.076 123.257 657.283 136.453 657.283 151.5V281H608.813V162.97C608.813 154.09 607.086 146.443 603.633 140.03C600.18 133.617 595.37 128.683 589.203 125.23C583.283 121.53 576.253 119.68 568.113 119.68C560.22 119.68 553.19 121.53 547.023 125.23C540.856 128.683 536.046 133.617 532.593 140.03C529.14 146.443 527.413 154.09 527.413 162.97V281H478.943ZM698.269 281V0.909989H746.739V281H698.269ZM791.492 281V79.72H839.962V281H791.492ZM791.492 57.15V5.34998H839.962V57.15H791.492ZM884.715 281V79.72H930.225V119.31L926.525 112.28C931.211 100.193 938.858 91.0667 949.465 84.9C960.318 78.4866 972.898 75.28 987.205 75.28C1002 75.28 1015.08 78.4866 1026.42 84.9C1038.02 91.3133 1047.02 100.317 1053.43 111.91C1059.85 123.257 1063.05 136.453 1063.05 151.5V281H1014.58V162.97C1014.58 154.09 1012.86 146.443 1009.4 140.03C1005.95 133.617 1001.14 128.683 994.975 125.23C989.055 121.53 982.025 119.68 973.885 119.68C965.991 119.68 958.961 121.53 952.795 125.23C946.628 128.683 941.818 133.617 938.365 140.03C934.911 146.443 933.185 154.09 933.185 162.97V281H884.715ZM1201.72 362.4C1186.67 362.4 1172.74 359.933 1159.91 355C1147.08 350.067 1135.98 343.16 1126.61 334.28C1117.48 325.647 1110.82 315.41 1106.63 303.57L1151.77 286.55C1154.73 295.923 1160.53 303.447 1169.16 309.12C1178.04 315.04 1188.89 318 1201.72 318C1211.59 318 1220.22 316.15 1227.62 312.45C1235.27 308.75 1241.19 303.323 1245.38 296.17C1249.57 289.263 1251.67 280.877 1251.67 271.01V225.13L1260.92 236.23C1254.01 248.317 1244.76 257.443 1233.17 263.61C1221.58 269.777 1208.38 272.86 1193.58 272.86C1174.83 272.86 1158.06 268.543 1143.26 259.91C1128.46 251.277 1116.87 239.437 1108.48 224.39C1100.09 209.343 1095.9 192.447 1095.9 173.7C1095.9 154.707 1100.09 137.81 1108.48 123.01C1116.87 108.21 1128.34 96.6167 1142.89 88.23C1157.44 79.5966 1173.97 75.28 1192.47 75.28C1207.52 75.28 1220.71 78.4866 1232.06 84.9C1243.65 91.0667 1253.27 100.07 1260.92 111.91L1254.26 124.12V79.72H1300.14V271.01C1300.14 288.523 1295.82 304.187 1287.19 318C1278.8 331.813 1267.21 342.667 1252.41 350.56C1237.86 358.453 1220.96 362.4 1201.72 362.4ZM1199.5 228.09C1209.86 228.09 1218.86 225.87 1226.51 221.43C1234.4 216.743 1240.57 210.33 1245.01 202.19C1249.45 194.05 1251.67 184.677 1251.67 174.07C1251.67 163.71 1249.33 154.46 1244.64 146.32C1240.2 137.933 1234.03 131.397 1226.14 126.71C1218.49 122.023 1209.61 119.68 1199.5 119.68C1189.39 119.68 1180.26 122.023 1172.12 126.71C1163.98 131.397 1157.57 137.933 1152.88 146.32C1148.44 154.46 1146.22 163.71 1146.22 174.07C1146.22 184.43 1148.44 193.68 1152.88 201.82C1157.57 209.96 1163.86 216.373 1171.75 221.06C1179.89 225.747 1189.14 228.09 1199.5 228.09Z" fill="white"/>
</svg>
