<svg width="222" height="91" viewBox="0 0 222 91" fill="none" xmlns="http://www.w3.org/2000/svg">
<g clip-path="url(#clip0_2810_4330)">
<path d="M137.39 14.6418C136.913 14.6418 136.468 14.5526 136.053 14.3732C135.638 14.1939 135.279 13.9512 134.974 13.6434C134.67 13.3356 134.43 12.9761 134.254 12.5649C134.078 12.1537 133.99 11.7158 133.99 11.2512V11.232C133.99 10.7674 134.078 10.3295 134.254 9.9183C134.43 9.50709 134.671 9.14592 134.979 8.83562C135.286 8.5245 135.648 8.27844 136.066 8.0966C136.484 7.91477 136.931 7.82385 137.408 7.82385C137.885 7.82385 138.331 7.9131 138.745 8.09243C139.16 8.27093 139.519 8.51449 139.824 8.82227C140.128 9.13007 140.369 9.48957 140.545 9.90078C140.721 10.312 140.808 10.7499 140.808 11.2145V11.2337C140.808 11.6983 140.72 12.1362 140.545 12.5474C140.369 12.9586 140.127 13.3198 139.82 13.6301C139.512 13.9412 139.149 14.1872 138.732 14.3691C138.314 14.5509 137.867 14.6418 137.39 14.6418ZM137.39 14.3782C137.836 14.3782 138.25 14.2948 138.633 14.1288C139.016 13.9629 139.347 13.7368 139.626 13.4507C139.906 13.1655 140.125 12.8326 140.285 12.4523C140.445 12.0728 140.525 11.6657 140.525 11.2328V11.2137C140.525 10.7808 140.447 10.3737 140.29 9.9942C140.133 9.61469 139.915 9.28355 139.635 9.00079C139.356 8.71801 139.027 8.4953 138.646 8.33265C138.267 8.16917 137.854 8.08743 137.408 8.08743C136.963 8.08743 136.548 8.17084 136.166 8.33683C135.783 8.50281 135.452 8.72885 135.172 9.01497C134.893 9.30106 134.673 9.63304 134.513 10.0134C134.353 10.3929 134.273 10.7999 134.273 11.2328V11.252C134.273 11.6849 134.351 12.092 134.508 12.4715C134.665 12.8518 134.884 13.1821 135.163 13.4649C135.442 13.7477 135.772 13.9704 136.151 14.1338C136.531 14.2973 136.944 14.3782 137.389 14.3782M136.09 9.41617H137.634C137.848 9.41617 138.042 9.44787 138.218 9.51042C138.394 9.57298 138.535 9.65806 138.642 9.76482C138.717 9.83989 138.78 9.93331 138.831 10.0426C138.881 10.1527 138.906 10.2736 138.906 10.4054V10.4246C138.906 10.7074 138.82 10.9301 138.647 11.0935C138.474 11.257 138.247 11.3638 137.965 11.4138L139.113 12.8635H138.586L137.494 11.4797H136.496V12.8635H136.091V9.417L136.09 9.41617ZM137.569 11.1019C137.832 11.1019 138.051 11.0468 138.222 10.9376C138.395 10.8275 138.481 10.6632 138.481 10.4429V10.4238C138.481 10.2353 138.404 10.0851 138.25 9.97168C138.097 9.85908 137.884 9.80236 137.614 9.80236H136.493V11.1019H137.567H137.569Z" fill="#FF5500"/>
<path d="M79.4699 20.8343C82.9523 16.9991 87.1913 14.0072 92.0958 12.1538C112.571 4.41751 136.865 19.4047 146.362 45.6271C146.68 46.5071 146.978 47.3879 147.256 48.2696C147.217 48.0677 147.182 47.8667 147.142 47.6657C146.175 42.7628 144.588 37.8208 142.348 32.9838C130.401 7.18673 104.388 -5.8361 84.2469 3.89787C82.0698 4.94967 80.0513 6.22501 78.1963 7.6947C78.0611 8.87662 77.9902 10.0777 77.9902 11.2955C77.9902 14.6177 78.509 17.8215 79.4699 20.8343Z" fill="#FF5500"/>
<path d="M147.178 60.0712C147.436 60.7835 147.677 61.4967 147.901 62.2107C147.882 62.1056 147.863 62.0005 147.843 61.8954C147.063 57.8675 145.768 53.8046 143.927 49.8301C134.249 28.935 113.179 18.387 96.8644 26.2709C93.1577 28.0617 90.0181 30.6524 87.4883 33.8287C89.4543 35.7646 91.6721 37.4545 94.0894 38.8508C96.6893 36.2893 99.7496 34.2716 103.223 32.9587C119.807 26.6929 139.486 38.8316 147.178 60.072" fill="#FF5500"/>
<path d="M143.13 41.6634C132.378 18.4462 108.966 6.72708 90.8387 15.4868C86.7841 17.4461 83.3392 20.2662 80.5508 23.721C81.8228 26.6679 83.5335 29.3879 85.6022 31.806C88.9019 27.8348 93.039 24.7553 97.9027 22.9178C116.33 15.9556 138.196 29.443 146.743 53.0439C147.026 53.8271 147.292 54.6112 147.538 55.3961C147.542 55.4044 147.544 55.4136 147.547 55.4219C147.515 55.2518 147.484 55.0816 147.451 54.9106C146.582 50.4874 145.151 46.0283 143.13 41.6642" fill="#FF5500"/>
<path d="M42.234 76.4471C39.8151 76.4471 37.5705 75.9692 35.4986 75.0166C33.4258 74.0632 31.6359 72.7604 30.1286 71.108C28.6214 69.4565 27.4437 67.5072 26.5962 65.2585C25.7488 63.0106 25.3242 60.61 25.3242 58.0552V57.9526C25.3242 55.3985 25.7479 53.0063 26.5962 50.7751C27.4437 48.5439 28.6214 46.5854 30.1286 44.8997C31.6359 43.2132 33.4417 41.8853 35.5453 40.9144C37.6489 39.9435 39.9735 39.4589 42.5167 39.4589C44.0865 39.4589 45.4995 39.5957 46.7556 39.8667C48.0118 40.1403 49.1578 40.514 50.1938 40.9911C51.2298 41.4682 52.1881 42.0471 53.0673 42.7285C53.9464 43.41 54.763 44.1582 55.517 44.9756L50.9003 50.7493C49.6124 49.4898 48.3021 48.5014 46.9675 47.7857C45.6321 47.0717 44.1332 46.713 42.4692 46.713C41.0862 46.713 39.8076 47.0033 38.6298 47.5822C37.4521 48.161 36.4395 48.961 35.592 49.9827C34.7437 51.0045 34.084 52.1881 33.6135 53.5327C33.1423 54.8789 32.907 56.3177 32.907 57.85V57.9517C32.907 59.4848 33.1423 60.932 33.6135 62.2941C34.0848 63.657 34.7362 64.8481 35.5678 65.8699C36.3994 66.8916 37.4045 67.7007 38.5831 68.2963C39.7609 68.8926 41.0554 69.1904 42.4692 69.1904C44.3534 69.1904 45.9466 68.8076 47.2494 68.041C48.5523 67.2745 49.8476 66.2619 51.1355 65.0016L55.7523 70.0595C54.904 71.0471 54.0248 71.9321 53.1148 72.7153C52.2031 73.4994 51.2072 74.1708 50.1237 74.733C49.0402 75.296 47.855 75.7214 46.5671 76.01C45.2793 76.2995 43.8354 76.4454 42.234 76.4454" fill="#FF5500"/>
<path d="M57.0723 40.0719H72.1445C76.3208 40.0719 79.5238 41.2813 81.7533 43.6986C83.6376 45.7421 84.5802 48.468 84.5802 51.8728V51.9754C84.5802 54.8697 83.9278 57.2285 82.625 59.0511C81.3213 60.8727 79.6172 62.2098 77.5144 63.0614L85.5694 75.8332H77.0907L70.025 64.3893H64.3256V75.8332H57.0723V40.0719ZM71.6741 57.493C73.464 57.493 74.8378 57.0317 75.7953 56.1083C76.7529 55.1833 77.2325 53.9514 77.2325 52.4108V52.309C77.2325 50.5966 76.7295 49.3137 75.7253 48.4571C74.7202 47.6022 73.3231 47.1743 71.5331 47.1743H64.3264V57.4938H71.6741V57.493Z" fill="#FF5500"/>
<path d="M102.667 76.4472C100.123 76.4472 97.783 75.9609 95.6477 74.99C93.5116 74.02 91.6674 72.7088 90.1134 71.0564C88.5587 69.4049 87.3501 67.4631 86.4868 65.2319C85.6226 63.0015 85.1914 60.6093 85.1914 58.0544V57.9518C85.1914 55.3978 85.631 53.0056 86.5101 50.7744C87.3893 48.5432 88.6062 46.5847 90.161 44.899C91.7157 43.2124 93.5683 41.8845 95.7194 40.9136C97.8698 39.9427 100.218 39.4581 102.761 39.4581C105.304 39.4581 107.644 39.9427 109.78 40.9136C111.914 41.8845 113.76 43.1957 115.314 44.8473C116.869 46.4996 118.077 48.4414 118.942 50.6718C119.805 52.903 120.237 55.2961 120.237 57.8501V57.9518C120.237 60.5059 119.797 62.8997 118.918 65.1301C118.039 67.3613 116.822 69.319 115.267 71.0055C113.713 72.6912 111.86 74.02 109.709 74.99C107.558 75.9609 105.211 76.4472 102.668 76.4472M102.761 69.1922C104.236 69.1922 105.579 68.9036 106.789 68.3239C107.997 67.745 109.033 66.9443 109.897 65.9225C110.761 64.9007 111.436 63.718 111.923 62.3726C112.41 61.028 112.653 59.5883 112.653 58.0561V57.9535C112.653 56.4204 112.41 54.9741 111.923 53.6112C111.436 52.2491 110.745 51.0571 109.85 50.0345C108.956 49.0128 107.903 48.2045 106.695 47.6081C105.485 47.0126 104.142 46.714 102.668 46.714C101.193 46.714 99.8883 47.0042 98.6638 47.5831C97.4394 48.162 96.3951 48.9619 95.5309 49.9837C94.6668 51.0054 93.992 52.189 93.5057 53.5336C93.0186 54.8798 92.7751 56.3187 92.7751 57.8509V57.9527C92.7751 59.4857 93.0178 60.9329 93.5057 62.295C93.992 63.6579 94.6835 64.849 95.5785 65.8716C96.4726 66.8934 97.5328 67.7025 98.7572 68.298C99.9817 68.8944 101.317 69.1922 102.761 69.1922Z" fill="#FF5500"/>
<path d="M116.844 40.072H124.616L131.446 64.2876L138.841 39.9702H145.058L152.454 64.2876L159.283 40.072H166.867L155.609 76.0893H149.298L141.855 52.6911L134.413 76.0893H128.102L116.844 40.072Z" fill="#FF5500"/>
<path d="M167.762 40.0719H174.45L189.9 62.0905V40.0719H197.06V75.8332H190.89L174.921 53.0989V75.8332H167.762V40.0719Z" fill="#FF5500"/>
<path d="M92.7664 87.2007C92.4661 87.2007 92.165 87.199 91.8647 87.2015C91.768 87.2024 91.7246 87.1682 91.7254 87.0673C91.7271 86.5635 91.7271 86.0588 91.7246 85.555C91.7246 85.4616 91.7647 85.4216 91.8556 85.4216C92.4678 85.4216 93.0809 85.4216 93.6931 85.4191C93.779 85.4191 93.8082 85.4608 93.8082 85.54C93.8074 86.048 93.8074 86.5559 93.809 87.0639C93.809 87.1623 93.7657 87.1999 93.6681 87.199C93.3678 87.1957 93.0675 87.1982 92.7664 87.1982V87.1999V87.2007Z" fill="white"/>
<path d="M92.7697 88.8656C93.0666 88.8656 93.3627 88.8681 93.6597 88.8639C93.7597 88.8622 93.7948 88.9006 93.7948 88.999C93.7964 89.4836 93.804 89.9682 93.8073 90.4529C93.8081 90.6097 93.7939 90.6222 93.6346 90.6222C93.2301 90.6222 92.8256 90.6222 92.421 90.6222C92.3051 90.6222 92.1916 90.6063 92.0807 90.5705C91.8847 90.5062 91.7863 90.3578 91.7571 90.1709C91.6953 89.7697 91.737 89.3643 91.7295 88.9606C91.7279 88.8747 91.7896 88.8647 91.8572 88.8647C92.1616 88.8647 92.4661 88.8647 92.7705 88.8647" fill="white"/>
<path d="M92.7434 83.7565C92.4506 83.7565 92.157 83.7531 91.8642 83.7581C91.7608 83.7598 91.7191 83.7264 91.7208 83.6188C91.7249 83.2568 91.7208 82.8948 91.7224 82.5328C91.7241 82.2651 91.9143 82.0574 92.1778 82.0182C92.3121 81.9982 92.4464 81.9973 92.5815 81.9973C92.9402 81.9973 93.2989 81.9973 93.6567 81.9957C93.7359 81.9957 93.791 82.0098 93.791 82.1074C93.7893 82.6196 93.7893 83.1317 93.791 83.6439C93.791 83.7323 93.7468 83.7548 93.6675 83.7548C93.3589 83.7531 93.0511 83.7548 92.7425 83.7548V83.7565H92.7434Z" fill="white"/>
<path d="M100.998 83.7431H95.1179C95.0604 83.7431 95.0137 83.6964 95.0137 83.6388V82.0999C95.0137 82.0424 95.0604 81.9957 95.1179 81.9957H100.998C101.056 81.9957 101.103 82.0424 101.103 82.0999V83.6388C101.103 83.6964 101.056 83.7431 100.998 83.7431Z" fill="white"/>
<path d="M100.998 87.1665H95.1179C95.0604 87.1665 95.0137 87.1198 95.0137 87.0622V85.5233C95.0137 85.4658 95.0604 85.4191 95.1179 85.4191H100.998C101.056 85.4191 101.103 85.4658 101.103 85.5233V87.0622C101.103 87.1198 101.056 87.1665 100.998 87.1665Z" fill="white"/>
<path d="M100.998 90.6105H95.1179C95.0604 90.6105 95.0137 90.5638 95.0137 90.5062V88.9673C95.0137 88.9097 95.0604 88.863 95.1179 88.863H100.998C101.056 88.863 101.103 88.9097 101.103 88.9673V90.5062C101.103 90.5638 101.056 90.6105 100.998 90.6105Z" fill="white"/>
<path d="M116.636 83.7981H113.301L113.295 82.1274H121.649V83.7981H118.308V90.4929H116.636V83.7981Z" fill="white"/>
<path d="M150.854 90.4929V82.1274H152.528L155.856 88.2558L159.21 82.1274H160.879V90.4929H159.208V86.0313L156.701 90.4929H155.031L152.524 86.0313V90.4929H150.854Z" fill="white"/>
<path d="M188.227 82.1274H186.557V90.4929H188.227V82.1274Z" fill="white"/>
<path d="M43.7078 81.9855H42.0371V90.7123H43.7078V81.9855Z" fill="white"/>
<path d="M200.454 82.1274H198.783V90.4929H200.454V82.1274Z" fill="white"/>
<path d="M168.689 82.1275H167.883V83.7982H168.411C169.339 83.7982 169.803 84.263 169.803 85.1922V87.4226C169.803 88.3518 169.339 88.8164 168.411 88.8164H167.883V90.4888L168.689 90.4871C170.546 90.4838 171.474 89.5546 171.474 87.7004V84.9136C171.474 83.0558 170.546 82.1266 168.689 82.1266" fill="white"/>
<path d="M166.711 90.4912V88.8164H166.183C165.254 88.8164 164.791 88.3518 164.791 87.4226V85.1922C164.791 84.263 165.162 83.7981 165.904 83.7981H166.711V82.1274H165.904C164.047 82.1274 163.119 83.0566 163.119 84.9144V87.7012C163.119 89.5587 164.047 90.4879 165.904 90.4879V90.4937L166.711 90.4921V90.4912Z" fill="white"/>
<path d="M206.038 83.7981H202.701L202.695 82.1274H211.05V83.7981H207.708V90.4929H206.038V83.7981Z" fill="white"/>
<path d="M216.355 87.1465L212.734 82.1274H214.678L217.187 85.4716L219.696 82.1274H221.646L218.026 87.1448V90.4929H216.355V87.1465Z" fill="white"/>
<path d="M192.554 85.1922C192.554 86.1706 192.562 87.149 192.551 88.1274C192.546 88.6045 192.83 88.8748 193.305 88.8748C194.423 88.8748 195.541 88.8731 196.659 88.8723C196.809 88.8723 196.884 88.9482 196.884 89.1008C196.884 89.5554 196.885 90.01 196.884 90.4646C196.884 90.6064 196.875 90.6131 196.733 90.6156C195.079 90.6373 193.425 90.6389 191.771 90.6306C191.312 90.6281 190.912 90.4679 190.676 90.0417C190.562 89.8357 190.491 89.6105 190.49 89.3694C190.488 88.4027 190.496 87.4351 190.482 86.4684C190.461 85.0396 190.473 83.6095 190.469 82.1807C190.469 81.9889 190.47 81.9872 190.661 81.9864C191.236 81.9864 191.811 81.9855 192.386 81.9855C192.552 81.9855 192.556 81.9889 192.556 82.1524C192.556 83.1658 192.556 84.1788 192.556 85.1922H192.554Z" fill="white"/>
<path d="M178.525 85.4416C179.168 85.4416 179.811 85.4533 180.453 85.4374C180.912 85.4258 181.367 85.3699 181.789 85.1639C182.062 85.0304 182.192 84.8069 182.188 84.5124C182.185 84.2447 182.02 84.0837 181.789 83.9758C181.557 83.8682 181.311 83.8123 181.059 83.8014C179.113 83.7139 177.165 83.7681 175.218 83.7556C174.579 83.7514 173.94 83.7556 173.301 83.7556C173.154 83.7556 173.146 83.7481 173.146 83.6038C173.146 83.1383 173.146 82.6721 173.146 82.2066C173.146 82.0673 173.156 82.059 173.292 82.0573C175.962 82.0281 178.632 82.0398 181.301 82.0432C181.622 82.0432 181.942 82.1182 182.263 82.1432C182.674 82.1749 183.062 82.285 183.425 82.4735C183.9 82.7204 184.192 83.1041 184.285 83.6421C184.377 84.1738 184.258 84.6417 183.906 85.0446C183.721 85.2556 183.492 85.4149 183.242 85.5409C182.946 85.6902 182.651 85.8378 182.352 85.9804C182.269 86.0205 182.255 86.0755 182.277 86.1531C182.301 86.234 182.321 86.3024 182.438 86.3007C182.708 86.2974 182.979 86.2807 183.248 86.3216C183.978 86.4317 184.707 86.8804 184.908 87.682C185.031 88.1691 185.037 88.6754 184.836 89.155C184.704 89.472 184.466 89.7064 184.176 89.8899C183.789 90.1343 183.36 90.2669 182.916 90.3603C182.412 90.4671 181.902 90.518 181.387 90.5396C180.18 90.5914 178.974 90.5547 177.767 90.5638C176.932 90.5705 176.097 90.5563 175.263 90.5697C174.624 90.5797 173.985 90.5763 173.346 90.5814C173.156 90.583 173.149 90.5755 173.149 90.387C173.149 89.9474 173.149 89.5079 173.149 89.0683C173.149 88.8764 173.154 88.8706 173.343 88.8706C174.528 88.8706 175.711 88.8706 176.896 88.8706C178.189 88.8706 179.482 88.8731 180.776 88.8656C181.177 88.8631 181.58 88.8481 181.977 88.773C182.163 88.738 182.342 88.6796 182.503 88.577C182.686 88.4594 182.766 88.2826 182.758 88.0682C182.744 87.6995 182.553 87.4635 182.21 87.335C181.935 87.2324 181.651 87.1849 181.362 87.1657C180.683 87.1223 180.002 87.1373 179.322 87.1373C178.615 87.1373 177.908 87.1365 177.202 87.139C176.977 87.139 176.751 87.1473 176.526 87.1549C176.419 87.1582 176.379 87.1107 176.379 87.0064C176.381 86.5293 176.382 86.0522 176.379 85.5751C176.378 85.46 176.434 85.4391 176.532 85.4391C177.198 85.4416 177.863 85.4408 178.529 85.4408L178.525 85.4416Z" fill="white"/>
<path d="M174.189 85.4408C174.481 85.4408 174.775 85.4441 175.068 85.4391C175.17 85.4375 175.206 85.4717 175.205 85.5759C175.201 86.0564 175.202 86.5368 175.205 87.0173C175.205 87.1199 175.168 87.1566 175.067 87.1566C174.477 87.1541 173.887 87.1549 173.298 87.1566C173.193 87.1566 173.148 87.1157 173.148 87.0098C173.151 86.5335 173.152 86.0564 173.148 85.5801C173.148 85.4783 173.186 85.4391 173.288 85.4408C173.588 85.445 173.889 85.4425 174.189 85.4425L174.189 85.4408Z" fill="white"/>
<path d="M104.497 87.4768V87.1999C104.213 87.1974 103.929 87.1991 103.645 87.1991V87.2008C103.373 87.2008 103.099 87.1991 102.826 87.2016V87.7046C102.826 89.5638 103.755 90.493 105.611 90.493H111.181V88.8223H105.845C104.946 88.8223 104.497 88.3735 104.497 87.4768Z" fill="white"/>
<path d="M105.611 82.1274C103.755 82.1274 102.826 83.0566 102.826 84.9161V85.4224C103.383 85.4224 103.941 85.4224 104.497 85.4207V85.1388C104.497 84.2455 104.944 83.799 105.839 83.799H111.18V82.1283H105.61L105.611 82.1274Z" fill="white"/>
<path d="M138.016 87.4768V87.1999C137.733 87.1974 137.448 87.1991 137.165 87.1991V87.2008C136.892 87.2008 136.618 87.1991 136.346 87.2016V87.7046C136.346 89.5638 137.274 90.493 139.131 90.493H144.7V88.8223H139.364C138.466 88.8223 138.016 88.3735 138.016 87.4768Z" fill="white"/>
<path d="M139.131 82.1274C137.274 82.1274 136.346 83.0566 136.346 84.9161V85.4224C136.903 85.4224 137.46 85.4224 138.016 85.4207V85.1388C138.016 84.2455 138.463 83.799 139.358 83.799H144.699V82.1283H139.13L139.131 82.1274Z" fill="white"/>
<path d="M132.434 82.1274V84.5941C132.712 84.5925 132.991 84.5933 133.269 84.5933V84.5916C133.548 84.5916 133.827 84.5908 134.105 84.5925V82.1274H132.434H132.434Z" fill="white"/>
<path d="M133.269 84.5925C132.991 84.5925 132.712 84.5916 132.434 84.5933V90.4921H134.104V84.5916C133.826 84.5899 133.547 84.5908 133.269 84.5908V84.5925Z" fill="white"/>
<path d="M126.85 87.1457H127.407C129.264 87.1457 130.192 86.3091 130.192 84.6359C130.192 82.9624 129.264 82.1266 127.407 82.1266H123.678V83.7974H127.128C128.057 83.7974 128.521 84.077 128.521 84.6359C128.521 85.1947 128.057 85.4741 127.128 85.4741H123.678V87.1449H124.343L128.242 90.4921H130.738L126.849 87.1457H126.85Z" fill="white"/>
<path d="M85.6587 85.1922C85.6587 86.1706 85.6662 87.149 85.6554 88.1274C85.6504 88.6045 85.9348 88.8748 86.4102 88.8748C87.5288 88.8748 88.6465 88.8731 89.765 88.8723C89.9143 88.8723 89.9894 88.9482 89.9894 89.1008C89.9894 89.5554 89.9902 90.01 89.9894 90.4646C89.9894 90.6064 89.981 90.6131 89.8384 90.6156C88.1844 90.6373 86.5304 90.6389 84.8763 90.6306C84.4176 90.6281 84.018 90.4679 83.7819 90.0417C83.6676 89.8357 83.5967 89.6105 83.5959 89.3694C83.5934 88.4027 83.6017 87.4351 83.5876 86.4684C83.5667 85.0396 83.5784 83.6095 83.5742 82.1807C83.5742 81.9889 83.5759 81.9872 83.7669 81.9864C84.3417 81.9864 84.9164 81.9855 85.4911 81.9855C85.6579 81.9855 85.6612 81.9889 85.6612 82.1524C85.6612 83.1658 85.6612 84.1788 85.6612 85.1922H85.6596H85.6587Z" fill="white"/>
<path d="M73.5145 87.2007C73.2142 87.2007 72.9131 87.199 72.6128 87.2015C72.516 87.2024 72.4727 87.1682 72.4735 87.0673C72.4752 86.5635 72.4752 86.0588 72.4727 85.555C72.4727 85.4616 72.5127 85.4216 72.6036 85.4216C73.2158 85.4216 73.8289 85.4216 74.4411 85.4191C74.5271 85.4191 74.5562 85.4608 74.5562 85.54C74.5554 86.048 74.5554 86.5559 74.5571 87.0639C74.5571 87.1623 74.5137 87.1999 74.4161 87.199C74.1158 87.1957 73.8156 87.1982 73.5145 87.1982V87.1999V87.2007Z" fill="white"/>
<path d="M73.5158 88.8656C73.8127 88.8656 74.1088 88.8681 74.4057 88.8639C74.5058 88.8622 74.5409 88.9006 74.5409 88.999C74.5425 89.4836 74.55 89.9682 74.5534 90.4529C74.5542 90.6097 74.54 90.6222 74.3807 90.6222C73.9762 90.6222 73.5716 90.6222 73.1671 90.6222C73.0512 90.6222 72.9377 90.6063 72.8268 90.5705C72.6308 90.5062 72.5323 90.3578 72.5032 90.1709C72.4414 89.7697 72.4831 89.3643 72.4756 88.9606C72.474 88.8747 72.5357 88.8647 72.6032 88.8647C72.9077 88.8647 73.2121 88.8647 73.5166 88.8647" fill="white"/>
<path d="M73.4914 83.7565C73.1986 83.7565 72.905 83.7531 72.6123 83.7581C72.5088 83.7598 72.4671 83.7264 72.4688 83.6188C72.473 83.2568 72.4688 82.8948 72.4705 82.5328C72.4721 82.2651 72.6623 82.0574 72.9259 82.0182C73.0602 81.9982 73.1945 81.9973 73.3296 81.9973C73.6883 81.9973 74.0469 81.9973 74.4047 81.9957C74.484 81.9957 74.539 82.0098 74.539 82.1074C74.5374 82.6196 74.5374 83.1317 74.539 83.6439C74.539 83.7323 74.4948 83.7548 74.4156 83.7548C74.107 83.7531 73.7992 83.7548 73.4906 83.7548V83.7565H73.4914Z" fill="white"/>
<path d="M81.7444 83.7431H75.864C75.8065 83.7431 75.7598 83.6964 75.7598 83.6388V82.0999C75.7598 82.0424 75.8065 81.9957 75.864 81.9957H81.7444C81.802 81.9957 81.8487 82.0424 81.8487 82.0999V83.6388C81.8487 83.6964 81.802 83.7431 81.7444 83.7431Z" fill="white"/>
<path d="M81.7444 87.1665H75.864C75.8065 87.1665 75.7598 87.1198 75.7598 87.0622V85.5233C75.7598 85.4658 75.8065 85.4191 75.864 85.4191H81.7444C81.802 85.4191 81.8487 85.4658 81.8487 85.5233V87.0622C81.8487 87.1198 81.802 87.1665 81.7444 87.1665Z" fill="white"/>
<path d="M81.7444 90.6105H75.864C75.8065 90.6105 75.7598 90.5638 75.7598 90.5062V88.9673C75.7598 88.9097 75.8065 88.863 75.864 88.863H81.7444C81.802 88.863 81.8487 88.9097 81.8487 88.9673V90.5062C81.8487 90.5638 81.802 90.6105 81.7444 90.6105Z" fill="white"/>
<path d="M60.8007 81.9989C62.378 81.9989 63.9545 81.9989 65.5318 81.9989C65.6427 81.9989 65.7536 81.9906 65.8646 81.9864C65.9546 81.9831 65.9955 82.0231 65.9947 82.1173C65.9922 82.5769 65.993 83.0374 65.9964 83.4978C65.9964 83.5954 65.9555 83.6254 65.8646 83.6221C65.7461 83.6179 65.6268 83.6204 65.5076 83.6221C62.7992 83.6438 60.0901 83.6396 57.3817 83.6446C57.0431 83.6446 56.7161 83.6971 56.4309 83.899C56.1481 84.0987 55.9938 84.3823 55.9846 84.7176C55.9663 85.3648 55.9763 86.0129 55.9763 86.661C55.9763 87.159 55.9763 87.6578 55.9813 88.1557C55.983 88.3359 56.0472 88.4994 56.1456 88.6504C56.254 88.8155 56.4125 88.9139 56.5952 88.9723C56.737 89.0174 56.883 89.0449 57.0356 89.0449C58.4552 89.0407 59.8749 89.0491 61.2945 89.0366C61.8734 89.0316 62.4531 89.0341 63.032 89.0224C63.3839 89.0149 63.7034 88.9148 63.957 88.6529C64.2472 88.3518 64.3098 87.8329 64.1029 87.4668C63.8636 87.0439 63.4832 86.852 63.0178 86.8479C61.6482 86.837 60.2777 86.8445 58.9082 86.8445C58.8698 86.8445 58.8314 86.8429 58.7931 86.8445C58.7313 86.8462 58.6988 86.8153 58.698 86.7553C58.6963 86.4066 58.6955 86.058 58.6955 85.7093C58.6955 85.6493 58.7297 85.6184 58.7905 85.6184C58.8406 85.6184 58.8906 85.6167 58.9398 85.6167C60.6548 85.6159 62.3705 85.6192 64.0854 85.6101C64.5425 85.6076 64.9112 85.7844 65.2298 86.088C65.5943 86.4358 65.7895 86.8771 65.9038 87.3592C66.0155 87.8321 66.0264 88.3101 65.9405 88.7847C65.8295 89.3994 65.586 89.9516 65.0722 90.3444C64.8111 90.5438 64.5183 90.6647 64.1797 90.6639C63.0361 90.6606 61.8926 90.6522 60.749 90.6672C59.0917 90.6881 57.4343 90.6806 55.7769 90.6756C55.3649 90.6739 54.9495 90.6764 54.54 90.5955C54.2055 90.5296 54.0487 90.3803 53.9886 90.0408C53.9169 89.6346 53.9286 89.2251 53.9236 88.8155C53.9211 88.5853 53.9261 88.3551 53.9219 88.1257C53.901 86.9188 53.9085 85.711 53.9044 84.504C53.9035 84.1279 53.9085 83.7514 53.9528 83.3793C54.0003 82.979 54.1254 82.6061 54.4832 82.3634C54.7293 82.1966 55.0112 82.1215 55.3015 82.0756C55.7352 82.0064 56.1723 82.0039 56.6094 82.0039C58.0057 82.0047 59.4028 82.0039 60.7999 82.0039V82.0022L60.8007 81.9989Z" fill="white"/>
<path d="M6.22975 85.5008C6.88618 85.5008 7.54179 85.5133 8.19823 85.4966C8.66616 85.485 9.13073 85.4274 9.56196 85.2172C9.84056 85.0813 9.97234 84.8536 9.96901 84.5524C9.96484 84.2797 9.79635 84.1145 9.56113 84.0049C9.32508 83.8948 9.07318 83.8381 8.81629 83.8264C6.8303 83.7372 4.84347 83.7922 2.85664 83.7797C2.20437 83.7756 1.5521 83.7797 0.899833 83.7797C0.750529 83.7797 0.742188 83.7722 0.742188 83.6254C0.742188 83.15 0.742188 82.6745 0.742188 82.1999C0.742188 82.0581 0.751363 82.049 0.890658 82.0481C3.614 82.0189 6.33818 82.0298 9.06234 82.0331C9.39014 82.0331 9.71627 82.1099 10.0449 82.1349C10.4645 82.1674 10.8607 82.2792 11.2302 82.4719C11.7148 82.7238 12.0126 83.115 12.1076 83.6646C12.2011 84.2071 12.0801 84.6842 11.7198 85.0963C11.5313 85.3115 11.2977 85.4741 11.0425 85.6026C10.7414 85.7544 10.4394 85.9062 10.135 86.0513C10.0499 86.0922 10.0357 86.1481 10.0583 86.2273C10.0816 86.3099 10.1025 86.3791 10.2209 86.3783C10.4962 86.375 10.7731 86.3583 11.0483 86.3991C11.7932 86.5118 12.5372 86.9688 12.7416 87.7879C12.8658 88.2851 12.8734 88.8022 12.6682 89.291C12.533 89.6146 12.2903 89.8532 11.9942 90.0408C11.5988 90.2902 11.1618 90.4254 10.7089 90.5213C10.1942 90.6297 9.67373 90.6823 9.14825 90.7048C7.91713 90.7582 6.686 90.7198 5.45486 90.7298C4.60325 90.7365 3.75079 90.7223 2.90001 90.7356C2.24774 90.7465 1.59548 90.7423 0.94404 90.7473C0.750529 90.749 0.743022 90.7406 0.743022 90.5488C0.743022 90.1001 0.743022 89.6521 0.743022 89.2034C0.743022 89.0074 0.748026 89.0024 0.940704 89.0024C2.14932 89.0024 3.3571 89.0024 4.56571 89.0024C5.88526 89.0024 7.20564 89.004 8.52519 88.9974C8.93474 88.9949 9.34593 88.979 9.75047 88.9031C9.93981 88.8673 10.1233 88.8072 10.286 88.7029C10.4728 88.5837 10.5554 88.4027 10.547 88.1841C10.5329 87.8079 10.3385 87.5669 9.98819 87.4359C9.70793 87.3317 9.4185 87.2825 9.12323 87.2641C8.43011 87.2199 7.7353 87.2358 7.04133 87.2349C6.31983 87.2349 5.59833 87.2341 4.87767 87.2366C4.64745 87.2366 4.41808 87.2449 4.18786 87.2524C4.07943 87.2558 4.03689 87.2074 4.03773 87.1006C4.03939 86.6135 4.04023 86.1272 4.03689 85.6401C4.03606 85.5225 4.09278 85.5008 4.1937 85.5017C4.87266 85.5042 5.55162 85.5033 6.23141 85.5033L6.22975 85.5008Z" fill="white"/>
<path d="M32.5629 87.8054C32.5629 88.1774 32.5629 88.5486 32.5621 88.9206C32.5621 88.9598 32.5805 89.0149 32.5262 89.0299C32.482 89.0424 32.4662 88.9907 32.4412 88.964C32.0625 88.547 31.6838 88.1307 31.3068 87.712C30.9406 87.305 30.5786 86.8938 30.2116 86.4867C29.8755 86.1139 29.536 85.7444 29.199 85.3732C28.9755 85.1263 28.7536 84.8777 28.5309 84.6292C28.5059 84.6017 28.4859 84.5483 28.4466 84.5625C28.3999 84.58 28.4208 84.6375 28.4216 84.6767C28.4517 86.033 28.4325 87.3892 28.4391 88.7463C28.4416 89.3402 28.4408 89.9341 28.4408 90.5279C28.4408 90.6939 28.435 90.6998 28.264 90.6998C27.6851 90.7006 27.1054 90.7014 26.5265 90.7014C26.3814 90.7014 26.3689 90.6914 26.3697 90.5438C26.3739 89.6246 26.3906 88.7046 26.3806 87.7854C26.3614 86.1297 26.3814 84.4749 26.3614 82.8189C26.3564 82.4077 26.6333 82.1066 27.0704 82.1149C27.5416 82.1241 28.0138 82.1175 28.4859 82.1133C28.5568 82.1133 28.6026 82.1433 28.6443 82.1892C29.0263 82.6137 29.4075 83.0383 29.7879 83.4637C30.089 83.7998 30.3909 84.1371 30.6912 84.4749C31.014 84.8385 31.3343 85.2047 31.6571 85.5684C31.9265 85.872 32.1959 86.1756 32.4695 86.4759C32.5363 86.5493 32.5654 86.626 32.5646 86.7244C32.5613 87.0848 32.5629 87.4451 32.5638 87.8054" fill="white"/>
<path d="M52.309 87.8054C52.309 88.1774 52.309 88.5486 52.3082 88.9206C52.3082 88.9598 52.3265 89.0149 52.2723 89.0299C52.2281 89.0424 52.2123 88.9907 52.1873 88.964C51.8086 88.547 51.4299 88.1307 51.0529 87.712C50.6867 87.305 50.3247 86.8938 49.9577 86.4867C49.6216 86.1139 49.2821 85.7444 48.9451 85.3732C48.7216 85.1263 48.4997 84.8777 48.277 84.6292C48.252 84.6017 48.2319 84.5483 48.1927 84.5625C48.146 84.58 48.1669 84.6375 48.1677 84.6767C48.1977 86.033 48.1786 87.3892 48.1852 88.7463C48.1877 89.3402 48.1869 89.9341 48.1869 90.5279C48.1869 90.6939 48.1811 90.6998 48.0101 90.6998C47.4312 90.7006 46.8515 90.7014 46.2726 90.7014C46.1275 90.7014 46.115 90.6914 46.1158 90.5438C46.12 89.6246 46.1367 88.7046 46.1267 87.7854C46.1075 86.1297 46.1275 84.4749 46.1075 82.8189C46.1025 82.4077 46.3794 82.1066 46.8165 82.1149C47.2877 82.1241 47.7598 82.1175 48.2319 82.1133C48.3028 82.1133 48.3487 82.1433 48.3904 82.1892C48.7724 82.6137 49.1536 83.0383 49.534 83.4637C49.8351 83.7998 50.137 84.1371 50.4373 84.4749C50.7601 84.8385 51.0804 85.2047 51.4032 85.5684C51.6726 85.872 51.942 86.1756 52.2156 86.4759C52.2823 86.5493 52.3115 86.626 52.3107 86.7244C52.3074 87.0848 52.309 87.4451 52.3099 87.8054" fill="white"/>
<path d="M35.9017 85.2873C35.9017 86.2607 35.9092 87.2341 35.8984 88.2075C35.8934 88.6813 36.1761 88.9507 36.6491 88.9507C37.7617 88.9499 38.8744 88.949 39.9863 88.9482C40.1354 88.9482 40.2098 89.0233 40.2098 89.1751C40.2098 89.6272 40.2107 90.0792 40.2098 90.5322C40.2098 90.6731 40.2015 90.6798 40.0597 90.6823C38.414 90.704 36.7692 90.7057 35.1235 90.6973C34.6672 90.6948 34.2694 90.5355 34.035 90.1118C33.9215 89.9066 33.8506 89.6822 33.8498 89.4428C33.8473 88.4811 33.8557 87.5186 33.8415 86.5568C33.8206 85.1347 33.8323 83.7131 33.8281 82.2918C33.8281 82.1008 33.8298 82.0991 34.0191 82.0983C34.5905 82.0983 35.1627 82.0975 35.734 82.0975C35.9 82.0975 35.9034 82.1008 35.9034 82.2635C35.9034 83.2711 35.9034 84.2797 35.9034 85.2873H35.9017Z" fill="white"/>
<path d="M15.9363 87.32C15.6377 87.32 15.3383 87.3183 15.0397 87.3208C14.9429 87.3216 14.9004 87.2874 14.9012 87.1873C14.9029 86.686 14.9029 86.1839 14.9004 85.6826C14.9004 85.5892 14.9396 85.55 15.0305 85.55C15.6402 85.55 16.2491 85.55 16.8589 85.5475C16.9439 85.5475 16.9731 85.5892 16.9731 85.6684C16.9723 86.1739 16.9723 86.6794 16.974 87.1848C16.974 87.2832 16.9314 87.32 16.8338 87.3191C16.5352 87.3158 16.2358 87.3183 15.9372 87.3183V87.32H15.9363Z" fill="white"/>
<path d="M1.80401 85.5C2.10262 85.5 2.40206 85.5034 2.70067 85.4983C2.80493 85.4967 2.84163 85.5317 2.8408 85.6376C2.83663 86.1281 2.83746 86.6177 2.8408 87.1082C2.8408 87.2124 2.80243 87.2508 2.699 87.25C2.09761 87.2475 1.49539 87.2483 0.894005 87.25C0.78724 87.25 0.741365 87.2083 0.742199 87.0998C0.744701 86.6135 0.745535 86.1273 0.742199 85.641C0.742199 85.5376 0.779733 85.4975 0.883996 85.4992C1.19095 85.5034 1.49706 85.5009 1.80401 85.5009V85.5Z" fill="white"/>
<path d="M15.9404 88.9765C16.2357 88.9765 16.531 88.979 16.8254 88.9748C16.9247 88.9732 16.9597 89.0107 16.9605 89.1091C16.9622 89.5912 16.9697 90.0734 16.9722 90.5555C16.9731 90.7123 16.9589 90.724 16.8004 90.724C16.3984 90.724 15.9955 90.724 15.5935 90.724C15.4783 90.724 15.3657 90.7081 15.2548 90.6722C15.0596 90.6088 14.9612 90.4612 14.9328 90.2744C14.8711 89.8757 14.9128 89.472 14.9053 89.0708C14.9037 88.9857 14.9645 88.9757 15.0321 88.9757C15.3349 88.9757 15.6377 88.9757 15.9404 88.9757" fill="white"/>
<path d="M15.9153 83.894C15.6242 83.894 15.3322 83.8907 15.0411 83.8957C14.9385 83.8973 14.8968 83.864 14.8985 83.7572C14.9027 83.3969 14.8985 83.0365 14.9002 82.6771C14.9018 82.411 15.0912 82.2041 15.3531 82.1649C15.4865 82.1449 15.62 82.1441 15.7543 82.1441C16.1113 82.1441 16.4674 82.1441 16.8244 82.1424C16.9037 82.1424 16.9587 82.1566 16.9579 82.2542C16.9562 82.7638 16.9562 83.2734 16.9579 83.7831C16.9579 83.8707 16.9137 83.894 16.8353 83.8932C16.5283 83.8915 16.2214 83.8932 15.9153 83.8932V83.8948V83.894Z" fill="white"/>
<path d="M24.1249 83.8799H18.2761C18.2186 83.8799 18.1719 83.8332 18.1719 83.7756V82.2459C18.1719 82.1883 18.2186 82.1416 18.2761 82.1416H24.1249C24.1824 82.1416 24.2291 82.1883 24.2291 82.2459V83.7756C24.2291 83.8332 24.1824 83.8799 24.1249 83.8799Z" fill="white"/>
<path d="M24.1249 87.2858H18.2761C18.2186 87.2858 18.1719 87.239 18.1719 87.1815V85.6517C18.1719 85.5942 18.2186 85.5475 18.2761 85.5475H24.1249C24.1824 85.5475 24.2291 85.5942 24.2291 85.6517V87.1815C24.2291 87.239 24.1824 87.2858 24.1249 87.2858Z" fill="white"/>
<path d="M24.1249 90.7123H18.2761C18.2186 90.7123 18.1719 90.6656 18.1719 90.608V89.0783C18.1719 89.0207 18.2186 88.974 18.2761 88.974H24.1249C24.1824 88.974 24.2291 89.0207 24.2291 89.0783V90.608C24.2291 90.6656 24.1824 90.7123 24.1249 90.7123Z" fill="white"/>
</g>
<defs>
<clipPath id="clip0_2810_4330">
<rect width="220.629" height="90" fill="white" transform="translate(0.685547 0.610107)"/>
</clipPath>
</defs>
</svg>
