<svg width="177" height="40" viewBox="0 0 177 40" fill="none" xmlns="http://www.w3.org/2000/svg">
<path fill-rule="evenodd" clip-rule="evenodd" d="M30.6624 10.8675C31.826 11.574 31.826 12.0727 31.6182 13.4442C30.2052 22.1714 25.0935 30.0675 17.6961 35.2208C17.1559 35.5948 17.1559 35.5532 16.6156 35.2208C9.21822 30.1091 4.10653 22.213 2.69354 13.4442C2.48575 12.0727 2.52731 11.574 3.64939 10.8675C11.7533 6.17143 22.6 6.17143 30.6624 10.8675ZM0.0338045 10.5766C0.823415 21.6727 7.34809 32.2286 16.8234 38.0052C17.0312 38.1299 17.2806 38.1299 17.4884 38.0052C26.9637 32.187 33.5299 21.6312 34.278 10.5766C34.3611 8.95584 34.4026 8.29091 32.9896 7.45974C28.252 4.63377 23.3481 2.18182 18.1948 0.187013C17.4468 -0.0623377 16.8234 -0.0623377 16.1169 0.187013C10.9637 2.18182 6.05978 4.63377 1.32212 7.45974C-0.0908707 8.33247 -0.0493124 8.95584 0.0338045 10.5766ZM19.6078 27.2831C18.4442 28.8623 15.8676 28.8208 14.7455 27.2831C14.4961 26.9091 13.9974 26.6182 13.4572 26.6182C12.626 26.6182 11.9611 27.2416 11.9611 27.948C11.9611 28.2805 12.0858 28.5714 12.3351 28.8208C12.7091 29.2779 13.2078 29.6519 13.7481 29.9013C13.7481 29.9013 16.7819 31.3558 17.0312 31.439C17.1974 31.5221 17.2806 31.5221 17.4468 31.439L20.6468 29.9013C21.2286 29.6104 21.7273 29.2364 22.1429 28.7792C22.3507 28.5299 22.5169 28.239 22.5169 27.9065C22.5169 27.1584 21.852 26.5766 21.0208 26.5766C20.3559 26.6182 19.8572 26.8675 19.6078 27.2831ZM7.26497 15.7714C6.6416 16.0208 6.22601 16.5195 6.22601 17.1429C6.22601 17.9325 6.97406 18.5974 7.88835 18.5974C8.1377 18.5974 8.34549 18.5558 8.55329 18.4727C14.1221 16.6442 20.2728 16.6442 25.8416 18.4727C26.0494 18.5558 26.2572 18.5974 26.465 18.5974C27.3793 18.5974 28.1273 17.9325 28.1273 17.1429C28.1273 16.4779 27.6286 15.9377 26.9637 15.7299C20.5637 13.6104 13.5403 13.6519 7.26497 15.7714ZM10.2987 21.2571C9.67536 21.4649 9.21822 22.0052 9.21822 22.6286C9.21822 23.4182 9.96627 24.0831 10.8806 24.0831C11.0884 24.0831 11.2546 24.0416 11.4624 24C15.2026 22.8364 19.3169 22.8364 23.0572 24.0416C23.2234 24.0831 23.3897 24.0831 23.5559 24.0831C24.4702 24.0831 25.2182 23.4182 25.2182 22.6286C25.2182 21.9636 24.7195 21.3818 24.013 21.2156C19.5247 19.8442 14.7039 19.8442 10.2987 21.2571Z" fill="#FF7700"/>
<path d="M9.59227 11.6571C9.50915 11.9896 9.67538 11.8649 9.88317 12.1143C10.0079 12.239 10.0078 12.4883 10.0494 12.6961C10.0494 12.987 9.84162 13.2364 9.55071 13.361C8.92733 13.5688 8.30395 13.7351 7.63902 13.9013C7.43123 13.9429 7.38967 13.9429 7.34811 13.7351C7.0572 12.9455 6.80785 12.1974 6.5585 11.4078C6.47538 11.2 6.51694 11.1584 6.72473 11.1169C7.38967 10.9091 8.0546 10.7013 8.71954 10.5351C8.7611 10.5351 8.84421 10.4935 8.88577 10.4935C9.38447 10.4519 9.63382 10.6182 9.71694 11.1169C9.67538 11.1584 9.71694 11.4909 9.59227 11.6571ZM8.59486 11.1584C8.30395 11.2416 7.92993 11.3662 7.5559 11.4909C7.43123 11.5325 7.47278 11.6571 7.51434 11.7818C7.5559 11.8649 7.5559 11.9896 7.72214 11.9481C8.0546 11.8649 8.42863 11.7403 8.7611 11.6571C8.88577 11.6156 8.92733 11.5325 8.88577 11.4078C8.84421 11.2831 8.80266 11.1584 8.59486 11.1584ZM8.96889 12.239C8.63642 12.3636 8.26239 12.4468 7.92993 12.5714C7.76369 12.613 7.88837 12.7792 7.88837 12.9039C7.92993 13.0286 7.97149 13.0701 8.09616 13.0286C8.30395 12.987 8.51175 12.9039 8.67798 12.8623C8.80266 12.8208 8.92733 12.7792 9.05201 12.7377C9.17668 12.6961 9.21824 12.5714 9.17668 12.4468C9.13512 12.3636 9.09356 12.2805 8.96889 12.239Z" fill="#FF7700"/>
<path d="M25.5091 10.4519C25.5507 10.4519 25.6754 10.4519 25.7585 10.4935C26.3819 10.6597 27.0052 10.8675 27.6286 11.0753C27.8364 11.1584 27.878 11.2 27.7949 11.4078C27.7117 11.6571 27.5455 11.7403 27.2962 11.6571C26.839 11.4909 26.3819 11.3662 25.8832 11.2416C25.6338 11.1584 25.5507 11.2 25.5091 11.4493C25.426 11.7818 25.3429 12.1143 25.2598 12.4052C25.2182 12.6545 25.2598 12.6961 25.4676 12.7792C25.7169 12.8623 25.9663 12.9455 26.2156 12.987C26.3819 13.0286 26.465 13.0286 26.5065 12.8208C26.5481 12.613 26.5481 12.5714 26.3819 12.5299C26.2572 12.4883 26.1325 12.4467 26.0078 12.4052C25.9247 12.3636 25.8832 12.3221 25.8832 12.1974V12.1558C26.0078 11.6571 26.0078 11.6987 26.4234 11.8234C26.7143 11.9065 27.0468 12.0312 27.3377 12.1143C27.5039 12.1558 27.5039 12.239 27.4624 12.4052C27.2962 12.8623 27.1715 13.2779 27.0052 13.7351C26.9637 13.9013 26.8806 13.9013 26.7143 13.8597C26.091 13.6519 25.4676 13.4857 24.8442 13.2779C24.4702 13.1532 24.2624 12.8623 24.3455 12.4467C24.4702 11.9065 24.5949 11.4078 24.7195 10.8675C24.8858 10.6182 25.1351 10.4519 25.5091 10.4519Z" fill="#FF7700"/>
<path d="M13.0417 12.4052C13.0832 12.5714 12.9585 12.613 12.8339 12.613C12.1689 12.7377 11.504 12.8623 10.8391 12.987C10.6313 13.0286 10.5897 12.987 10.5481 12.8208C10.465 12.4052 10.3819 12.0312 10.2572 11.6156C10.1741 11.2416 10.091 10.826 10.0079 10.4519C9.96633 10.2442 10.0079 10.2026 10.2157 10.161C10.9637 10.0364 11.7118 9.87012 12.4183 9.74545C12.6676 9.70389 12.7092 9.70389 12.7507 10.0364C12.7923 10.2857 12.7507 10.3688 12.5014 10.4104C12.0442 10.4935 11.5871 10.5766 11.13 10.6597C10.9222 10.7013 10.9222 10.7429 10.9637 10.9506C11.0053 11.1169 11.0884 11.1169 11.2131 11.1169C11.5455 11.0753 11.878 10.9922 12.2105 10.9506C12.2936 10.9506 12.4598 10.9506 12.4598 10.9922C12.5014 11.1584 12.5014 11.3247 12.5014 11.4909C12.5014 11.5325 12.3767 11.574 12.2936 11.574C11.9611 11.6156 11.6702 11.6987 11.3378 11.7403C11.0884 11.7818 11.0053 12.0312 11.1715 12.1974C11.2131 12.239 11.2962 12.239 11.3793 12.239C11.7533 12.1974 12.1689 12.1143 12.543 12.0312C13.0001 11.948 13.0417 11.9896 13.0417 12.4052Z" fill="#FF7700"/>
<path d="M24.304 10.7844C24.304 10.8675 24.2624 10.9922 24.2624 11.1169C24.1378 11.6987 24.0131 12.239 23.8884 12.8208C23.8468 13.0286 23.8053 13.0701 23.5559 13.0286C22.9741 12.9039 23.0572 12.9455 23.1404 12.4468C23.2235 11.9896 23.3482 11.4909 23.4313 11.0338C23.4728 10.7429 23.4313 10.6597 23.1819 10.6182C22.891 10.5766 22.6001 10.5351 22.3507 10.452C22.1845 10.4104 22.1014 10.452 22.1014 10.6597C22.0183 11.2 21.9352 11.7403 21.852 12.2805C21.852 12.3636 21.852 12.4052 21.8105 12.4883C21.7689 12.6961 21.7274 12.6961 21.3118 12.6545C21.0624 12.613 21.0209 12.5714 21.0624 12.3636C21.0624 12.2805 21.0624 12.1974 21.104 12.1143C21.1871 11.3662 21.3118 10.6597 21.3949 9.91169C21.4226 9.74546 21.5057 9.67619 21.6443 9.7039C22.3092 9.78702 22.9741 9.91169 23.6391 10.0364C23.7637 10.0364 23.8884 10.0779 23.9715 10.161C24.1793 10.2442 24.3456 10.452 24.304 10.7844Z" fill="#FF7700"/>
<path d="M16.3663 11.4909V12.1558C16.3663 12.2805 16.3247 12.3636 16.2001 12.3636C15.6598 12.4052 15.6183 12.3636 15.6183 11.8234C15.6183 11.3662 15.5767 10.8675 15.5351 10.4104C15.5351 10.161 15.4936 10.161 15.2442 10.161C14.9533 10.161 14.6624 10.2026 14.3299 10.2026C14.1637 10.2026 14.1222 10.2857 14.1222 10.4519C14.1637 10.9091 14.2053 11.4078 14.2468 11.8649C14.2468 12.0312 14.2884 12.1558 14.2884 12.3221C14.2884 12.4468 14.2468 12.4883 14.1222 12.5299H13.9559C13.6789 12.5576 13.5126 12.4329 13.4572 12.1558C13.3741 11.4078 13.291 10.6597 13.2079 9.95324C13.1663 9.74545 13.2079 9.66233 13.4157 9.66233C14.1222 9.62078 14.8286 9.53766 15.5351 9.4961C16.0338 9.45454 16.2832 9.74545 16.2832 10.2442C16.2832 10.4519 16.3247 10.7013 16.3247 10.9091C16.3663 11.0753 16.3663 11.2831 16.3663 11.4909Z" fill="#FF7700"/>
<path d="M16.8234 10.826V9.66233C16.8234 9.45454 16.865 9.41298 17.0728 9.37142C17.4329 9.34372 17.613 9.50995 17.613 9.87012V11.4078C17.613 11.5463 17.6961 11.6294 17.8624 11.6571C18.3195 11.6987 18.7767 11.6987 19.1922 11.7403C19.4416 11.7818 19.4832 11.8234 19.4416 12.1143C19.4416 12.3221 19.3585 12.4052 19.1091 12.3636C18.4026 12.3221 17.7377 12.3221 17.0312 12.2805C16.8234 12.2805 16.7819 12.239 16.7819 12.0312C16.8234 11.6156 16.8234 11.2416 16.8234 10.826Z" fill="#FF7700"/>
<path d="M19.7741 12.0727C19.8157 11.3247 19.8988 10.5766 19.9819 9.82857C20.0235 9.4961 20.065 9.4961 20.356 9.53766C20.6607 9.56536 20.7992 9.74545 20.7715 10.0779C20.6884 10.7844 20.6053 11.4909 20.5637 12.1974C20.5222 12.4467 20.5222 12.4883 20.2313 12.4883H20.1066C19.691 12.4052 19.7741 12.3636 19.7741 12.0727Z" fill="#FF7700"/>
<path d="M60.4182 35.8442C60.4182 35.6779 60.4598 35.5532 60.5013 35.4701C60.5429 35.387 60.626 35.3039 60.7091 35.2208C60.7922 35.1377 60.9169 35.0961 61 35.0961C61.1247 35.0545 61.2494 35.0545 61.3741 35.0545H64.4078C64.7819 35.0545 65.1143 35.0545 65.3637 35.0961C65.613 35.1377 65.8208 35.2208 65.9455 35.3039C66.1117 35.387 66.1948 35.5117 66.278 35.6779C66.3611 35.8442 66.3611 36.0104 66.3611 36.2597C66.3611 36.5091 66.3195 36.7169 66.278 36.8416C66.1948 36.9662 66.1117 37.0909 65.9455 37.174C65.8624 37.2156 65.8208 37.2571 65.8208 37.2987C65.8208 37.3403 65.8208 37.3818 65.8624 37.3818C65.8624 37.3818 65.9039 37.4234 65.9455 37.4234C66.1533 37.5065 66.278 37.6312 66.4026 37.7974C66.4857 37.9636 66.5273 38.1714 66.5273 38.4623C66.5273 38.7533 66.4857 38.961 66.4442 39.1688C66.3611 39.3351 66.278 39.5013 66.1117 39.5844C65.9871 39.7091 65.7793 39.7507 65.5715 39.7922C65.3637 39.8338 65.0728 39.8753 64.7819 39.8753H61.3741C61.2494 39.8753 61.1247 39.8753 61 39.8338C60.8754 39.7922 60.7922 39.7507 60.7091 39.7091C60.626 39.626 60.5429 39.5429 60.5013 39.4597C60.4598 39.3766 60.4182 39.2519 60.4182 39.0857V35.8442ZM64.4909 36.9662C64.6572 36.9662 64.7819 36.9247 64.8234 36.8831C64.9065 36.8 64.9481 36.7169 64.9481 36.5091C64.9481 36.3429 64.9065 36.2182 64.8234 36.1351C64.7403 36.0519 64.6156 36.0519 64.4909 36.0519H62.1221C62.039 36.0519 61.9559 36.0519 61.9143 36.0935C61.8728 36.1351 61.8312 36.1766 61.8312 36.2597V36.7169C61.8312 36.8 61.8728 36.8831 61.9143 36.9247C61.9559 36.9662 62.039 36.9662 62.1221 36.9662H64.4909ZM62.1221 37.9221C62.039 37.9221 61.9559 37.9221 61.9143 37.9636C61.8728 38.0052 61.8312 38.0468 61.8312 38.1299V38.6286C61.8312 38.7117 61.8728 38.7948 61.9143 38.8364C61.9559 38.8779 62.039 38.8779 62.1221 38.8779H64.5325C64.7403 38.8779 64.9065 38.8364 64.9896 38.7532C65.0728 38.6701 65.1143 38.5455 65.1143 38.3792C65.1143 38.213 65.0728 38.0883 64.9896 38.0052C64.9065 37.9221 64.7403 37.8805 64.5325 37.8805H62.1221V37.9221Z" fill="#FF7700"/>
<path d="M71.1819 39.5013C71.1819 39.626 71.1404 39.7506 71.0988 39.8338C71.0573 39.9169 70.9326 39.9584 70.8079 39.9584H70.1014C69.9767 39.9584 69.8521 39.9169 69.8105 39.8338C69.7689 39.7506 69.7274 39.626 69.7274 39.5013V38.4208C69.7274 38.2961 69.6858 38.213 69.6443 38.1299L67.5248 35.7195C67.4832 35.6779 67.4417 35.5948 67.4001 35.5532C67.3586 35.5117 67.3586 35.4286 67.3586 35.3455C67.3586 35.2623 67.4001 35.1792 67.4832 35.0961C67.5664 35.0545 67.6495 35.013 67.7741 35.013H68.4391C68.5637 35.013 68.6469 35.013 68.73 35.0545C68.8131 35.0961 68.8547 35.1377 68.9378 35.2208L70.3923 36.8831C70.4339 36.9247 70.4754 36.9662 70.4754 36.9662C70.517 36.9662 70.517 37.0078 70.5586 37.0078C70.6001 37.0078 70.6001 37.0078 70.6417 36.9662C70.6832 36.9662 70.6832 36.9247 70.7248 36.8831L72.1378 35.2208C72.1793 35.1377 72.2625 35.0961 72.3456 35.0545C72.4287 35.013 72.5118 35.013 72.6365 35.013H73.3014C73.4261 35.013 73.5092 35.0545 73.5923 35.0961C73.6754 35.1377 73.6754 35.2208 73.6754 35.3455C73.6754 35.4286 73.6754 35.4701 73.6339 35.5532C73.5923 35.5948 73.5508 35.6779 73.5092 35.7195L71.3897 38.1299C71.3482 38.1714 71.3066 38.213 71.3066 38.2545V39.5013H71.1819Z" fill="#FF7700"/>
<path d="M78.7039 37.548C78.7039 37.839 78.7039 38.0467 78.7455 38.213C78.787 38.3792 78.8286 38.5039 78.9533 38.587C79.078 38.6701 79.2442 38.7117 79.4935 38.7532C79.7429 38.7532 80.0338 38.7948 80.4494 38.7948H83.026C83.1507 38.7948 83.2754 38.8364 83.3585 38.8779C83.4416 38.9195 83.4832 39.0442 83.4832 39.1688V39.3766C83.4832 39.5013 83.4416 39.5844 83.4 39.6675C83.3585 39.7506 83.2338 39.7922 83.0676 39.8338C82.9013 39.8753 82.652 39.9169 82.3195 39.9169C81.9871 39.9169 81.5715 39.9584 81.0312 39.9584H80.4909C79.9922 39.9584 79.5767 39.9584 79.2442 39.9169C78.9117 39.8753 78.5793 39.8338 78.3715 39.7922C78.1221 39.7091 77.9143 39.626 77.7896 39.5429C77.6234 39.4182 77.5403 39.2935 77.4572 39.1273C77.3741 38.961 77.3325 38.7532 77.2909 38.4623C77.2494 38.213 77.2494 37.9221 77.2494 37.548V37.4234C77.2494 37.0909 77.2494 36.7584 77.2909 36.5091C77.3325 36.2597 77.3741 36.0104 77.4572 35.8442C77.5403 35.6779 77.665 35.5117 77.8312 35.387C77.9974 35.2623 78.2052 35.1792 78.413 35.1377C78.6624 35.0961 78.9533 35.013 79.2858 35.013C79.6182 34.9714 80.0338 34.9714 80.4909 34.9714H81.0312C81.5715 34.9714 81.9871 34.9714 82.3195 35.013C82.652 35.013 82.9013 35.0545 83.0676 35.0961C83.2338 35.1377 83.3585 35.1792 83.4 35.2623C83.4416 35.3455 83.4832 35.4286 83.4832 35.5532V35.761C83.4832 35.8857 83.4416 36.0104 83.3585 36.0519C83.2754 36.0935 83.1922 36.1351 83.026 36.1351H80.4494C80.0338 36.1351 79.7013 36.1351 79.4935 36.1766C79.2442 36.2182 79.078 36.2597 78.9533 36.3428C78.8286 36.426 78.7455 36.5506 78.7455 36.7584C78.7039 36.9247 78.7039 37.174 78.7039 37.4649V37.548Z" fill="#FF7700"/>
<path d="M86.1845 39.5013C86.1845 39.626 86.1429 39.7506 86.1014 39.8338C86.0598 39.9169 85.9351 39.9584 85.8105 39.9584H85.1455C85.0209 39.9584 84.8962 39.9169 84.8546 39.8338C84.8131 39.7506 84.7715 39.6675 84.7715 39.5013V35.8442C84.7715 35.6779 84.8131 35.5532 84.8546 35.4701C84.8962 35.387 84.9793 35.3039 85.0624 35.2208C85.1455 35.1377 85.2702 35.0961 85.3533 35.0961C85.478 35.0545 85.6027 35.0545 85.7274 35.0545H88.5533C88.9274 35.0545 89.2183 35.0545 89.4676 35.0961C89.717 35.1377 89.9248 35.2208 90.1326 35.3039C90.2988 35.387 90.4235 35.5532 90.5066 35.7195C90.5897 35.8857 90.6312 36.1351 90.6312 36.426V36.6753C90.6312 36.9662 90.5481 37.174 90.4235 37.3403C90.2988 37.5065 90.1326 37.6312 89.9248 37.7143C89.8832 37.7143 89.8416 37.7558 89.8416 37.7558C89.8001 37.7558 89.8001 37.7974 89.8001 37.839C89.8001 37.8805 89.8001 37.9221 89.8416 37.9221C89.8832 37.9221 89.8832 37.9636 89.9248 37.9636C90.0494 38.0052 90.1326 38.0468 90.2157 38.1299C90.2988 38.1714 90.3819 38.2545 90.4235 38.3792C90.465 38.4623 90.5066 38.587 90.5481 38.7532C90.5897 38.9195 90.5897 39.0857 90.5897 39.2935V39.5013C90.5897 39.626 90.5481 39.7506 90.5066 39.8338C90.465 39.9169 90.3403 39.9584 90.2157 39.9584H89.5507C89.4261 39.9584 89.3014 39.9169 89.2598 39.8338C89.2183 39.7506 89.1767 39.6675 89.1767 39.5013V39.4182C89.1767 39.2104 89.1767 39.0442 89.1351 38.961C89.0936 38.8364 89.052 38.7532 88.9274 38.7117C88.8027 38.6701 88.6364 38.6286 88.4286 38.587C88.2209 38.587 87.8884 38.5455 87.4728 38.5455H86.4338C86.3507 38.5455 86.2676 38.5455 86.2261 38.587C86.1845 38.6286 86.1429 38.6701 86.1429 38.7532V39.5013H86.1845ZM87.9715 37.5065C88.2209 37.5065 88.3871 37.5065 88.5533 37.4649C88.7196 37.4649 88.8027 37.4234 88.8858 37.3818C88.9689 37.3403 89.0105 37.2987 89.052 37.2156C89.0936 37.1325 89.0936 37.0494 89.0936 36.9247V36.6753C89.0936 36.5507 89.0936 36.4675 89.052 36.3844C89.0105 36.3013 88.9689 36.2597 88.8858 36.2182C88.8027 36.1766 88.678 36.1351 88.5533 36.1351C88.3871 36.1351 88.1793 36.0935 87.93 36.0935H86.4338C86.3507 36.0935 86.2676 36.0935 86.2261 36.1351C86.1845 36.1766 86.1429 36.2182 86.1429 36.3013V37.2156C86.1429 37.3818 86.2261 37.4649 86.4338 37.4649H87.9715V37.5065Z" fill="#FF7700"/>
<path d="M94.9948 39.9584C94.5377 39.9584 94.1221 39.9584 93.7896 39.9169C93.4572 39.9169 93.1663 39.8753 92.9169 39.7922C92.6676 39.7507 92.5013 39.6675 92.3351 39.5429C92.1689 39.4182 92.0857 39.2935 92.0026 39.1273C91.9195 38.961 91.878 38.7117 91.8364 38.4623C91.7948 38.213 91.7948 37.8805 91.7948 37.5481V37.4649C91.7948 37.0909 91.7948 36.8 91.8364 36.5506C91.878 36.3013 91.9195 36.0519 92.0026 35.8857C92.0857 35.7195 92.2104 35.5532 92.3351 35.4701C92.5013 35.3455 92.6676 35.2623 92.9169 35.2208C93.1663 35.1792 93.4572 35.1377 93.7896 35.0961C94.1221 35.0961 94.5377 35.0545 94.9948 35.0545H95.2026C95.6598 35.0545 96.0754 35.0545 96.4078 35.0961C96.7403 35.0961 97.0312 35.1377 97.2805 35.2208C97.5299 35.2623 97.6961 35.3455 97.8624 35.4701C98.0286 35.5948 98.1117 35.7195 98.1948 35.8857C98.2779 36.0519 98.3195 36.3013 98.3611 36.5506C98.4026 36.8 98.4026 37.1325 98.4026 37.4649V37.5481C98.4026 37.9221 98.4026 38.213 98.3611 38.4623C98.3195 38.7117 98.2779 38.961 98.1948 39.1273C98.1117 39.2935 97.987 39.4597 97.8624 39.5429C97.6961 39.6675 97.5299 39.7507 97.2805 39.7922C97.0312 39.8338 96.7403 39.8753 96.4078 39.9169C96.0754 39.9169 95.6598 39.9584 95.2026 39.9584H94.9948ZM95.1611 38.8364C95.5766 38.8364 95.9091 38.8364 96.1585 38.7948C96.4078 38.7533 96.5741 38.7117 96.6987 38.6286C96.8234 38.5455 96.9065 38.4208 96.9065 38.213C96.9481 38.0468 96.9481 37.7974 96.9481 37.5065V37.4649C96.9481 37.1325 96.9481 36.9247 96.9065 36.7169C96.865 36.5507 96.8234 36.3844 96.6987 36.3013C96.5741 36.2182 96.4078 36.1351 96.1585 36.1351H95.0364C94.6208 36.1351 94.2883 36.1351 94.039 36.1766C93.7896 36.2182 93.6234 36.2597 93.4987 36.3429C93.3741 36.426 93.2909 36.5507 93.2909 36.7584C93.2494 36.9247 93.2494 37.174 93.2494 37.5065V37.5481C93.2494 37.839 93.2494 38.0883 93.2909 38.2545C93.3325 38.4208 93.3741 38.587 93.4987 38.6701C93.6234 38.7533 93.7896 38.8364 94.039 38.8364C94.2883 38.8779 94.6208 38.8779 95.0364 38.8779H95.1611V38.8364Z" fill="#FF7700"/>
<path d="M102.683 39.626C102.642 39.7506 102.6 39.8338 102.517 39.8753C102.434 39.9169 102.351 39.9584 102.184 39.9584H101.229C101.104 39.9584 100.979 39.9169 100.896 39.8753C100.813 39.8338 100.771 39.7506 100.73 39.626L99.4416 35.6364C99.4416 35.5948 99.4001 35.5532 99.4001 35.4701V35.3455C99.4001 35.2208 99.4416 35.1792 99.5247 35.0961C99.6078 35.0545 99.691 35.013 99.8156 35.013H100.397C100.522 35.013 100.647 35.0545 100.688 35.0961C100.771 35.1377 100.813 35.2623 100.855 35.387L101.686 38.3792C101.686 38.4623 101.727 38.5039 101.81 38.5039C101.852 38.5039 101.894 38.4623 101.935 38.3792L102.933 35.387C102.974 35.2208 103.057 35.1377 103.14 35.0961C103.223 35.0545 103.307 35.013 103.473 35.013H104.138C104.262 35.013 104.387 35.0545 104.47 35.0961C104.553 35.1377 104.595 35.2623 104.636 35.387L105.675 38.3792C105.717 38.4623 105.758 38.5039 105.8 38.5039C105.842 38.5039 105.883 38.4623 105.925 38.3792L106.756 35.387C106.797 35.2208 106.839 35.1377 106.922 35.0961C107.005 35.0545 107.088 35.013 107.255 35.013H107.795C107.92 35.013 108.003 35.0545 108.086 35.0961C108.169 35.1377 108.21 35.2208 108.21 35.3455V35.4701C108.21 35.5117 108.169 35.5532 108.169 35.6364L106.881 39.626C106.839 39.7506 106.797 39.8338 106.714 39.8753C106.631 39.9169 106.548 39.9584 106.382 39.9584H105.426C105.301 39.9584 105.177 39.9169 105.094 39.8753C105.01 39.8338 104.969 39.7506 104.927 39.626L103.971 36.9662C103.93 36.8831 103.888 36.8416 103.847 36.8416C103.805 36.8416 103.764 36.8831 103.722 36.9662L102.683 39.626Z" fill="#FF7700"/>
<path d="M115.649 39.3351C115.649 39.5429 115.608 39.7091 115.483 39.7922C115.359 39.8753 115.192 39.9584 114.984 39.9584H113.613C113.53 39.9584 113.488 39.9169 113.447 39.9169C113.405 39.8753 113.364 39.8753 113.322 39.7922C113.281 39.7507 113.239 39.7091 113.197 39.626L110.953 36.6753C110.912 36.6338 110.87 36.5922 110.829 36.5506C110.787 36.5091 110.746 36.5091 110.704 36.5091C110.662 36.5091 110.621 36.5091 110.621 36.5506C110.579 36.5922 110.579 36.6338 110.579 36.6753V39.5429C110.579 39.6675 110.538 39.7922 110.496 39.8753C110.455 39.9584 110.33 40 110.205 40H109.54C109.416 40 109.291 39.9584 109.249 39.8753C109.208 39.7922 109.166 39.6675 109.166 39.5429V35.7195C109.166 35.5117 109.208 35.3455 109.333 35.2623C109.457 35.1792 109.623 35.0961 109.831 35.0961H111.244C111.286 35.0961 111.369 35.1377 111.41 35.1377C111.452 35.1792 111.494 35.1792 111.535 35.2623C111.577 35.3039 111.618 35.3455 111.66 35.4286L113.862 38.3792C113.904 38.4208 113.946 38.4623 113.987 38.5039C114.029 38.5455 114.07 38.5455 114.112 38.5455C114.153 38.5455 114.195 38.5455 114.195 38.5039C114.236 38.4623 114.236 38.4208 114.236 38.3792V35.5117C114.236 35.387 114.278 35.2623 114.32 35.1792C114.361 35.0961 114.486 35.0545 114.61 35.0545H115.275C115.4 35.0545 115.525 35.0961 115.566 35.1792C115.608 35.2623 115.649 35.387 115.649 35.5117V39.3351Z" fill="#FF7700"/>
<path d="M125.914 38.213C125.914 38.5454 125.873 38.7948 125.873 39.0442C125.831 39.2519 125.707 39.4597 125.54 39.5844C125.374 39.7091 125.125 39.8338 124.792 39.8753C124.46 39.9169 124.003 39.9584 123.379 39.9584H122.964C122.465 39.9584 122.049 39.9584 121.717 39.9169C121.384 39.8753 121.052 39.8338 120.844 39.7922C120.595 39.7506 120.387 39.626 120.262 39.5429C120.096 39.4182 119.972 39.2935 119.888 39.0857C119.805 38.9195 119.764 38.7117 119.722 38.4623C119.681 38.213 119.681 37.9221 119.681 37.5896V37.4649C119.681 37.1325 119.681 36.8 119.722 36.5506C119.764 36.3013 119.805 36.0519 119.888 35.8857C119.972 35.7195 120.096 35.5532 120.262 35.4286C120.429 35.3039 120.636 35.2208 120.844 35.1792C121.094 35.1377 121.384 35.0545 121.717 35.0545C122.049 35.013 122.465 35.013 122.922 35.013H123.296C123.836 35.013 124.252 35.013 124.584 35.0545C124.917 35.0545 125.166 35.0961 125.333 35.1377C125.499 35.1792 125.623 35.2208 125.665 35.3039C125.707 35.387 125.748 35.4701 125.748 35.5948V35.761C125.748 35.8857 125.707 36.0104 125.623 36.0519C125.54 36.0935 125.457 36.1351 125.291 36.1351H122.839C122.423 36.1351 122.091 36.1351 121.883 36.1766C121.634 36.2182 121.468 36.2597 121.343 36.3429C121.218 36.426 121.135 36.5506 121.135 36.7584C121.094 36.9247 121.094 37.174 121.094 37.4649V37.6312C121.094 37.9221 121.094 38.1714 121.135 38.3377C121.177 38.5039 121.218 38.6286 121.343 38.7117C121.468 38.7948 121.634 38.8364 121.883 38.8779C122.133 38.9195 122.423 38.9195 122.839 38.9195H123.92C124.086 38.9195 124.21 38.8779 124.294 38.8779C124.377 38.8364 124.418 38.8364 124.46 38.7532C124.46 38.7117 124.501 38.6701 124.501 38.587V38.2961C124.501 38.1714 124.418 38.0883 124.252 38.0883H123.005C122.881 38.0883 122.756 38.0467 122.673 38.0052C122.59 37.9636 122.548 37.839 122.548 37.7143V37.5065C122.548 37.3818 122.59 37.2571 122.673 37.2156C122.756 37.174 122.839 37.1325 123.005 37.1325H125.125C125.416 37.1325 125.582 37.174 125.707 37.2987C125.831 37.3818 125.873 37.548 125.873 37.7558V38.213H125.914Z" fill="#FF7700"/>
<path d="M128.616 39.5013C128.616 39.626 128.574 39.7506 128.533 39.8338C128.491 39.9169 128.366 39.9584 128.242 39.9584H127.577C127.452 39.9584 127.327 39.9169 127.286 39.8338C127.244 39.7506 127.203 39.6675 127.203 39.5013V35.8442C127.203 35.6779 127.244 35.5532 127.286 35.4701C127.327 35.387 127.411 35.3039 127.494 35.2208C127.577 35.1377 127.701 35.0961 127.785 35.0961C127.909 35.0545 128.034 35.0545 128.159 35.0545H130.985C131.359 35.0545 131.649 35.0545 131.899 35.0961C132.148 35.1377 132.356 35.2208 132.564 35.3039C132.73 35.387 132.855 35.5532 132.938 35.7195C133.021 35.8857 133.062 36.1351 133.062 36.426V36.6753C133.062 36.9662 132.979 37.174 132.855 37.3403C132.73 37.5065 132.564 37.6312 132.356 37.7143C132.314 37.7143 132.273 37.7558 132.273 37.7558C132.231 37.7558 132.231 37.7974 132.231 37.839C132.231 37.8805 132.231 37.9221 132.273 37.9221C132.314 37.9221 132.314 37.9636 132.356 37.9636C132.481 38.0052 132.564 38.0468 132.647 38.1299C132.73 38.1714 132.813 38.2545 132.855 38.3792C132.896 38.4623 132.938 38.587 132.979 38.7532C133.021 38.9195 133.021 39.0857 133.021 39.2935V39.5013C133.021 39.626 132.979 39.7506 132.938 39.8338C132.896 39.9169 132.772 39.9584 132.647 39.9584H131.982C131.857 39.9584 131.733 39.9169 131.691 39.8338C131.649 39.7506 131.608 39.6675 131.608 39.5013V39.4182C131.608 39.2104 131.608 39.0442 131.566 38.961C131.525 38.8364 131.483 38.7532 131.359 38.7117C131.234 38.6701 131.068 38.6286 130.86 38.587C130.652 38.587 130.32 38.5455 129.904 38.5455H128.907C128.824 38.5455 128.74 38.5455 128.699 38.587C128.657 38.6286 128.616 38.6701 128.616 38.7532V39.5013ZM130.403 37.5065C130.652 37.5065 130.818 37.5065 130.985 37.4649C131.151 37.4649 131.234 37.4234 131.317 37.3818C131.4 37.3403 131.442 37.2987 131.483 37.2156C131.525 37.1325 131.525 37.0494 131.525 36.9247V36.6753C131.525 36.5507 131.525 36.4675 131.483 36.3844C131.442 36.3013 131.4 36.2597 131.317 36.2182C131.234 36.1766 131.109 36.1351 130.985 36.1351C130.818 36.1351 130.611 36.0935 130.361 36.0935H128.865C128.782 36.0935 128.699 36.0935 128.657 36.1351C128.616 36.1766 128.574 36.2182 128.574 36.3013V37.2156C128.574 37.3818 128.657 37.4649 128.865 37.4649H130.403V37.5065Z" fill="#FF7700"/>
<path d="M137.384 39.9584C136.927 39.9584 136.512 39.9584 136.179 39.9169C135.847 39.9169 135.556 39.8753 135.307 39.7922C135.057 39.7507 134.891 39.6675 134.725 39.5429C134.558 39.4182 134.475 39.2935 134.392 39.1273C134.309 38.961 134.268 38.7117 134.226 38.4623C134.184 38.213 134.184 37.8805 134.184 37.5481V37.4649C134.184 37.0909 134.184 36.8 134.226 36.5506C134.268 36.3013 134.309 36.0519 134.392 35.8857C134.475 35.7195 134.6 35.5532 134.725 35.4701C134.891 35.3455 135.057 35.2623 135.307 35.2208C135.556 35.1792 135.847 35.1377 136.179 35.0961C136.512 35.0961 136.927 35.0545 137.384 35.0545H137.592C138.049 35.0545 138.465 35.0545 138.797 35.0961C139.13 35.0961 139.421 35.1377 139.67 35.2208C139.919 35.2623 140.086 35.3455 140.252 35.4701C140.418 35.5948 140.501 35.7195 140.584 35.8857C140.668 36.0519 140.709 36.3013 140.751 36.5506C140.792 36.8 140.792 37.1325 140.792 37.4649V37.5481C140.792 37.9221 140.792 38.213 140.751 38.4623C140.709 38.7117 140.668 38.961 140.584 39.1273C140.501 39.2935 140.377 39.4597 140.252 39.5429C140.086 39.6675 139.919 39.7507 139.67 39.7922C139.421 39.8338 139.13 39.8753 138.797 39.9169C138.465 39.9169 138.049 39.9584 137.592 39.9584H137.384ZM137.592 38.8364C138.008 38.8364 138.34 38.8364 138.59 38.7948C138.839 38.7533 139.005 38.7117 139.13 38.6286C139.255 38.5455 139.338 38.4208 139.338 38.213C139.379 38.0468 139.379 37.7974 139.379 37.5065V37.4649C139.379 37.1325 139.379 36.9247 139.338 36.7169C139.296 36.5507 139.255 36.3844 139.13 36.3013C139.005 36.2182 138.839 36.1351 138.59 36.1351C138.34 36.0935 138.008 36.0935 137.592 36.0935H137.468C137.052 36.0935 136.72 36.0935 136.47 36.1351C136.221 36.1766 136.055 36.2182 135.93 36.3013C135.805 36.3844 135.722 36.5091 135.722 36.7169C135.681 36.8831 135.681 37.1325 135.681 37.4649V37.5065C135.681 37.7974 135.681 38.0468 135.722 38.213C135.764 38.3792 135.805 38.5455 135.93 38.6286C136.055 38.7117 136.221 38.7948 136.47 38.7948C136.72 38.8364 137.052 38.8364 137.468 38.8364H137.592Z" fill="#FF7700"/>
<path d="M146.694 35.4701C146.694 35.3455 146.735 35.2208 146.777 35.1377C146.818 35.0545 146.943 35.013 147.068 35.013H147.774C147.899 35.013 148.023 35.0545 148.065 35.1377C148.107 35.2208 148.148 35.3039 148.148 35.4701V38.2961C148.148 38.6701 148.107 38.961 147.982 39.2104C147.857 39.4182 147.691 39.5844 147.483 39.7091C147.234 39.8338 146.943 39.9169 146.569 39.9584C146.195 40 145.738 40 145.197 40H145.031C144.491 40 144.034 40 143.66 39.9584C143.286 39.9169 142.995 39.8338 142.745 39.7506C142.496 39.626 142.33 39.4597 142.247 39.2519C142.164 39.0442 142.081 38.7117 142.081 38.3377V35.5117C142.081 35.387 142.122 35.2623 142.164 35.1792C142.205 35.0961 142.33 35.0545 142.455 35.0545H143.161C143.286 35.0545 143.41 35.0961 143.452 35.1792C143.494 35.2623 143.535 35.3455 143.535 35.5117V37.8805C143.535 38.1299 143.535 38.2961 143.577 38.4208C143.618 38.5455 143.701 38.6701 143.784 38.7117C143.909 38.7948 144.034 38.8364 144.242 38.8364C144.449 38.8364 144.699 38.8779 144.99 38.8779H145.197C145.488 38.8779 145.738 38.8779 145.945 38.8364C146.112 38.8364 146.278 38.7948 146.403 38.7117C146.527 38.6286 146.569 38.5455 146.61 38.4208C146.652 38.2961 146.652 38.0883 146.652 37.8805V35.4701H146.694Z" fill="#FF7700"/>
<path d="M152.886 35.0545C153.385 35.0545 153.759 35.0961 154.049 35.1377C154.34 35.1792 154.59 35.2623 154.756 35.387C154.922 35.5117 155.047 35.6779 155.13 35.9273C155.213 36.1351 155.213 36.4675 155.213 36.8V36.9247C155.213 37.2987 155.172 37.5896 155.13 37.7974C155.047 38.0467 154.964 38.213 154.756 38.3377C154.59 38.4623 154.34 38.5455 154.049 38.587C153.759 38.6286 153.343 38.6701 152.886 38.6701H151.223C151.14 38.6701 151.057 38.6701 151.016 38.7117C150.974 38.7532 150.933 38.7948 150.933 38.8779V39.4597C150.933 39.5844 150.891 39.7091 150.849 39.7922C150.808 39.8753 150.683 39.9169 150.559 39.9169H149.894C149.769 39.9169 149.644 39.8753 149.603 39.7922C149.561 39.7091 149.52 39.5844 149.52 39.4597V35.8026C149.52 35.6364 149.561 35.5117 149.603 35.4286C149.644 35.3455 149.727 35.2623 149.81 35.1792C149.894 35.0961 150.018 35.0545 150.101 35.0545C150.226 35.013 150.351 35.013 150.475 35.013H152.886V35.0545ZM151.223 36.1351C151.14 36.1351 151.057 36.1351 151.016 36.1766C150.974 36.2182 150.933 36.2597 150.933 36.3429V37.2987C150.933 37.4649 151.016 37.548 151.223 37.548H152.636C152.886 37.548 153.135 37.548 153.26 37.5065C153.426 37.5065 153.551 37.4649 153.634 37.4234C153.717 37.3818 153.759 37.2987 153.8 37.2156C153.842 37.1325 153.842 37.0078 153.842 36.8416V36.7584C153.842 36.5922 153.842 36.4675 153.8 36.3844C153.759 36.3013 153.717 36.2182 153.634 36.1766C153.551 36.1351 153.426 36.0935 153.26 36.0935C153.094 36.0935 152.886 36.0519 152.636 36.0519H151.223V36.1351Z" fill="#FF7700"/>
<path d="M176.159 11.6571H158.995C157.166 11.6571 155.338 11.6987 153.509 11.7818C151.764 11.8649 150.6 13.0701 150.559 14.8156C150.517 17.5169 150.517 20.2182 150.559 22.8779C150.6 24.6234 151.639 25.6208 153.385 25.6208H168.262C168.844 25.6208 169.509 25.4961 170.049 25.2883C171.338 24.7896 171.961 23.5429 171.712 22.213C171.462 20.9662 170.133 19.9273 168.844 19.9273C165.353 19.9688 161.862 19.9688 158.372 20.0104C157.831 20.0104 157.665 19.8442 157.665 19.3039C157.707 18.7221 157.707 18.0987 157.665 17.5169C157.624 16.9351 157.914 16.8104 158.413 16.8104C162.735 16.8104 167.057 16.7273 171.421 16.8104C173.457 16.8519 174.787 18.1403 175.535 19.9688C176.533 22.4208 176.449 24.9143 175.203 27.2831C174.372 28.8623 173.083 29.6935 171.213 29.6935C164.065 29.6519 156.959 29.6935 149.811 29.6935C148.896 29.6935 147.982 29.6519 147.109 29.5273C146.029 29.361 145.738 28.987 145.613 27.948C145.53 26.9922 145.488 26.0364 145.488 25.039V12.8623C145.488 12.0727 145.572 11.2831 145.738 10.5351C145.987 9.24675 146.777 8.37402 148.065 8.12467C149.52 7.83376 151.016 7.66753 152.512 7.62597C156.418 7.54286 160.366 7.58441 164.314 7.62597C168.013 7.62597 171.67 7.66753 175.369 7.66753C175.992 7.66753 176.242 7.79221 176.2 8.45714C176.159 9.45454 176.159 10.4935 176.159 11.6571Z" fill="white"/>
<path d="M39.4728 12.0727V7.83377C39.7222 7.79221 39.9715 7.75065 40.1793 7.75065C46.7871 7.7091 53.4364 7.62598 60.0442 7.66754C61.7066 7.66754 63.4105 8.04156 65.0312 8.41559C66.8598 8.87273 68.1066 10.0779 68.3144 12.0312C68.5637 14.1091 67.6494 15.5636 65.8624 16.561C65.239 16.9351 64.5325 17.1844 63.9092 17.5584C63.5351 17.7662 62.8702 17.7662 63.078 18.3896C63.1611 18.639 63.7429 18.6805 64.1585 18.7636C65.239 18.9714 66.3611 19.013 67.3585 19.4286C69.2702 20.2182 70.0598 21.8805 70.1014 23.8753C70.1429 25.9117 69.3118 27.4078 67.4832 28.3221C65.8624 29.1533 64.0754 29.4857 62.2884 29.6104C59.878 29.7766 57.4676 29.8597 55.0572 29.8597C50.1118 29.8597 45.2079 29.8182 40.304 29.7766C40.0546 29.7766 39.7637 29.7351 39.4728 29.7351V25.4961H41.052C47.3689 25.4961 53.6858 25.5377 60.0442 25.4961C61.0001 25.4961 61.9559 25.3299 62.9118 25.1221C63.8676 24.9143 64.3663 24.2909 64.4079 23.5429C64.491 22.6286 63.9923 21.7558 63.0364 21.5065C61.8728 21.2156 60.6676 20.9662 59.504 20.9247C55.9299 20.8416 52.3559 20.8831 48.7819 20.9247C48.0754 20.9247 47.826 20.7584 47.8676 20.0104C47.9092 19.0961 47.9092 18.1818 47.8676 17.2675C47.8676 16.7273 47.9923 16.4779 48.5741 16.5195C51.8572 16.561 55.1403 16.6026 58.4235 16.5195C59.4624 16.5195 60.5429 16.2701 61.5819 15.9792C62.6208 15.6883 62.9533 15.0234 62.9118 14.026C62.8702 13.2779 62.4131 12.6961 61.4157 12.4883C60.252 12.239 59.0053 12.1143 57.8416 12.0727C54.1014 11.9896 50.3611 11.9896 46.6209 11.9896C44.5845 11.9896 42.5066 12.0312 40.4702 12.0312H39.4728V12.0727Z" fill="white"/>
<path d="M120.262 25.3714C116.896 21.6312 113.488 17.8493 110.122 14.1091C110.081 14.1506 109.998 14.1506 109.914 14.1922V28.9039C109.914 29.6104 109.748 29.8597 109 29.8182C107.92 29.7766 106.798 29.7766 105.675 29.8182C104.969 29.8597 104.636 29.6519 104.72 28.9039C104.803 27.8234 104.803 26.7013 104.803 25.5792C104.803 20.3844 104.761 15.1896 104.72 9.9948C104.72 8.4987 105.26 7.95844 106.756 7.95844C107.546 7.95844 108.335 8 109.083 7.95844C109.956 7.87532 110.538 8.20779 111.12 8.83117C114.029 12.1558 116.979 15.3974 119.888 18.7221C120.221 19.0961 120.387 19.6779 120.429 20.1766C120.47 21.8805 120.47 23.5844 120.47 25.3299C120.429 25.2883 120.387 25.3299 120.262 25.3714Z" fill="white"/>
<path d="M129.073 7.83377V12.4052C129.073 15.3974 129.114 18.3896 129.114 21.3818C129.114 22.0052 129.156 22.6701 129.114 23.2935C129.114 24.7481 129.696 25.4545 131.192 25.4545C133.852 25.4545 136.512 25.4545 139.171 25.413C139.836 25.413 140.086 25.6208 140.086 26.2857V29.1117C140.086 29.6104 139.92 29.7766 139.421 29.7766C138.34 29.7351 137.26 29.7766 136.179 29.7766C133.52 29.8182 130.86 29.8597 128.2 29.8597C127.784 29.8597 127.369 29.9013 126.995 29.8597C124.875 29.6104 123.92 28.5714 123.92 26.452C123.878 20.5091 123.836 14.5662 123.795 8.62338C123.795 8.08312 123.961 7.83377 124.543 7.87533C125.997 7.87533 127.452 7.83377 129.073 7.83377Z" fill="white"/>
<path d="M99.1923 16.7688V21.0494C98.9014 21.0494 98.652 21.0909 98.4027 21.0909H84.7715C84.1066 21.0909 83.8572 20.9247 83.8988 20.2597C83.9403 19.3039 83.9403 18.3481 83.8988 17.3507C83.8988 16.9766 83.9819 16.7688 84.439 16.7688H99.1923Z" fill="white"/>
<path d="M99.2754 25.4961C99.2754 26.7844 99.2754 28.0727 99.2339 29.361C99.2339 29.4857 98.8183 29.7351 98.6105 29.7351C97.5715 29.7766 96.491 29.7351 95.4521 29.7351H84.8131C84.065 29.7351 83.8157 29.4857 83.8573 28.7792C83.8988 27.8649 83.8988 26.9506 83.8573 26.0364C83.8573 25.6208 83.9819 25.4545 84.3975 25.4545C89.1767 25.413 93.956 25.413 98.7767 25.3714C98.943 25.413 99.0676 25.4545 99.2754 25.4961Z" fill="white"/>
<path d="M99.1923 8.04156V12.2805C98.9014 12.2805 98.6105 12.3221 98.3196 12.3221H84.8547C84.1066 12.3221 83.8573 12.0727 83.9404 11.3662C83.9819 10.5766 83.9819 9.74546 83.9404 8.95585C83.8988 8.24935 84.1066 8.04156 84.8547 8.04156C88.969 8.08312 93.0417 8.04156 97.1144 8.04156H99.1923Z" fill="white"/>
<path d="M39.4312 20.8831C39.4312 19.5117 39.4312 18.2649 39.4728 17.0182C39.4728 16.8519 39.8052 16.561 40.013 16.561C41.3845 16.5195 42.7559 16.5195 44.1273 16.4779C44.5845 16.4779 44.7507 16.6442 44.7507 17.1013C44.7091 18.1403 44.7507 19.2208 44.7091 20.2597C44.7091 20.4675 44.4598 20.8416 44.2935 20.8416C42.7143 20.9247 41.1351 20.8831 39.4312 20.8831Z" fill="white"/>
<path d="M75.6286 21.0909V16.8104H80.7403V20.7169C80.7403 20.8416 80.4494 21.0494 80.3248 21.0494C78.7871 21.0909 77.2494 21.0909 75.6286 21.0909Z" fill="white"/>
<path d="M78.1637 12.4052H76.1689C75.7118 12.4052 75.5456 12.239 75.5456 11.7818V9.28831C75.5456 8.54026 76.0027 8.12467 76.7092 8.08312C77.8728 8.04156 79.078 8.04156 80.2417 8.08312C80.4079 8.08312 80.6988 8.41558 80.6988 8.62338C80.7404 9.66234 80.7404 10.7429 80.6988 11.7818C80.6988 11.9896 80.3663 12.3221 80.1585 12.3221C79.4936 12.4052 78.8287 12.3636 78.1637 12.3636V12.4052Z" fill="white"/>
<path d="M80.7819 29.9013C79.3689 29.9013 78.0806 29.9429 76.7923 29.9013C76.169 29.9013 75.7118 29.4442 75.6702 28.8208C75.6287 27.8234 75.6702 26.7844 75.6702 25.6623H80.3664C80.491 25.6623 80.7404 25.9532 80.7404 26.161C80.7819 27.3247 80.7819 28.5714 80.7819 29.9013Z" fill="white"/>
</svg>
