<svg width="1300" height="359" viewBox="0 0 1300 359" fill="none" xmlns="http://www.w3.org/2000/svg">
<path d="M122.976 254.546C105.345 254.546 89.0364 251.351 74.05 244.96C59.2841 238.568 46.2813 229.643 35.0415 218.183C24.0222 206.723 15.4271 193.279 9.25625 177.852C3.08542 162.425 0 145.565 0 127.273C0 108.981 2.97523 92.1213 8.92568 76.6942C15.0965 61.0467 23.6916 47.6031 34.711 36.3634C45.9507 24.9032 59.0637 16.0877 74.05 9.91691C89.0364 3.52569 105.345 0.330078 122.976 0.330078C140.607 0.330078 156.365 3.3053 170.249 9.25576C184.354 15.2062 196.255 23.1401 205.952 33.0575C215.649 42.7546 222.591 53.4433 226.778 65.1238L186.447 83.9669C181.819 71.6253 173.996 61.4875 162.976 53.5535C151.957 45.3992 138.623 41.3221 122.976 41.3221C107.549 41.3221 93.8849 44.9584 81.984 52.2312C70.3035 59.504 61.1574 69.5316 54.5458 82.3141C48.1546 95.0965 44.9589 110.083 44.9589 127.273C44.9589 144.463 48.1546 159.56 54.5458 172.563C61.1574 185.345 70.3035 195.373 81.984 202.645C93.8849 209.918 107.549 213.555 122.976 213.555C138.623 213.555 151.957 209.588 162.976 201.654C173.996 193.499 181.819 183.251 186.447 170.91L226.778 189.753C222.591 201.433 215.649 212.232 205.952 222.15C196.255 231.847 184.354 239.67 170.249 245.621C156.365 251.571 140.607 254.546 122.976 254.546Z" fill="white"/>
<path d="M263.279 250.58V4.29703H354.85C371.599 4.29703 386.365 7.38246 399.148 13.5533C412.15 19.5037 422.288 28.3192 429.561 39.9997C436.834 51.4599 440.47 65.4544 440.47 81.9835C440.47 98.9533 436.393 113.389 428.239 125.29C420.305 137.19 409.506 146.006 395.842 151.736L452.371 250.58H401.462L340.965 142.48L370.056 159.67H308.238V250.58H263.279ZM308.238 120H355.511C363.665 120 370.718 118.458 376.668 115.372C382.619 112.066 387.247 107.548 390.552 101.818C393.858 96.0882 395.511 89.4766 395.511 81.9835C395.511 74.2699 393.858 67.6583 390.552 62.1486C387.247 56.4186 382.619 52.0108 376.668 48.9254C370.718 45.6196 363.665 43.9667 355.511 43.9667H308.238V120Z" fill="white"/>
<path d="M603.16 254.546C585.088 254.546 568.228 251.351 552.581 244.96C536.933 238.568 523.269 229.643 511.589 218.183C499.908 206.723 490.762 193.279 484.151 177.852C477.759 162.204 474.564 145.345 474.564 127.273C474.564 108.981 477.759 92.1213 484.151 76.6942C490.542 61.2671 499.578 47.8235 511.258 36.3634C522.939 24.9032 536.603 16.0877 552.25 9.91691C567.898 3.52569 584.867 0.330078 603.16 0.330078C621.452 0.330078 638.422 3.52569 654.069 9.91691C669.716 16.3081 683.38 25.2338 695.061 36.6939C706.742 47.9337 715.777 61.2671 722.169 76.6942C728.78 92.1213 732.086 108.981 732.086 127.273C732.086 145.345 728.78 162.204 722.169 177.852C715.557 193.279 706.411 206.723 694.73 218.183C683.05 229.643 669.386 238.568 653.738 244.96C638.311 251.351 621.452 254.546 603.16 254.546ZM603.16 213.555C615.281 213.555 626.41 211.461 636.548 207.273C646.686 202.866 655.502 196.805 662.995 189.092C670.708 181.378 676.549 172.232 680.516 161.653C684.703 151.075 686.797 139.615 686.797 127.273C686.797 114.931 684.703 103.581 680.516 93.2232C676.549 82.6446 670.708 73.4986 662.995 65.785C655.502 57.8511 646.686 51.7904 636.548 47.6031C626.41 43.4157 615.281 41.3221 603.16 41.3221C591.259 41.3221 580.239 43.4157 570.102 47.6031C559.964 51.7904 551.038 57.8511 543.325 65.785C535.831 73.4986 529.991 82.6446 525.804 93.2232C521.616 103.581 519.523 114.931 519.523 127.273C519.523 139.615 521.616 151.075 525.804 161.653C529.991 172.232 535.831 181.378 543.325 189.092C551.038 196.805 559.964 202.866 570.102 207.273C580.239 211.461 591.259 213.555 603.16 213.555Z" fill="white"/>
<path d="M811.557 250.58L745.441 4.29703H793.706L845.607 214.216H833.045L887.26 4.29703H933.872L987.756 214.216H975.194L1027.1 4.29703H1075.36L1009.24 250.58H957.674L903.128 46.2808H917.673L863.128 250.58H811.557Z" fill="white"/>
<path d="M1102.64 250.58V4.29703H1137.69L1273.22 186.777L1255.04 190.414V4.29703H1300V250.58H1264.63L1131.07 66.7768L1147.6 63.1404V250.58H1102.64Z" fill="white"/>
<path d="M1268.29 357.147V324.878L1243.95 287.666H1252.25L1273.51 320.028H1270.53L1291.7 287.666H1300L1275.75 324.878V357.147H1268.29Z" fill="white"/>
<path d="M1215.44 357.147V294.661H1196.23V287.666H1241.93V294.661H1222.9V357.147H1215.44Z" fill="white"/>
<path d="M1179.54 357.147V287.666H1187V357.147H1179.54Z" fill="white"/>
<path d="M1130 357.147V287.666H1137.46V350.152H1168.23V357.147H1130Z" fill="white"/>
<path d="M1106.14 357.147V287.666H1113.6V357.147H1106.14Z" fill="white"/>
<path d="M1041.47 357.147V287.666H1070.66C1074.58 287.666 1077.97 288.412 1080.83 289.904C1083.75 291.334 1085.99 293.355 1087.54 295.966C1089.16 298.578 1089.97 301.624 1089.97 305.106C1089.97 308.712 1089.06 311.914 1087.26 314.712C1085.52 317.448 1083 319.531 1079.71 320.961L1079.61 318.723C1082.35 319.717 1084.68 321.116 1086.61 322.92C1088.6 324.723 1090.12 326.837 1091.18 329.261C1092.23 331.624 1092.76 334.173 1092.76 336.909C1092.76 343.127 1090.77 348.069 1086.79 351.738C1082.88 355.344 1077.53 357.147 1070.75 357.147H1041.47ZM1048.93 350.152H1070.75C1075.17 350.152 1078.68 349.002 1081.29 346.702C1083.97 344.339 1085.3 341.106 1085.3 337.002C1085.3 332.961 1083.97 329.759 1081.29 327.396C1078.68 324.971 1075.17 323.759 1070.75 323.759H1048.93V350.152ZM1048.93 317.044H1070.1C1073.83 317.044 1076.82 315.956 1079.05 313.78C1081.35 311.604 1082.5 308.806 1082.5 305.386C1082.5 301.904 1081.35 299.262 1079.05 297.459C1076.82 295.593 1073.83 294.661 1070.1 294.661H1048.93V317.044Z" fill="white"/>
<path d="M992.326 358.266C987.477 358.266 982.938 357.396 978.71 355.655C974.544 353.852 970.876 351.365 967.705 348.194C964.534 344.961 962.047 341.168 960.244 336.816C958.441 332.401 957.539 327.583 957.539 322.36C957.539 317.137 958.441 312.35 960.244 307.997C962.047 303.583 964.534 299.79 967.705 296.619C970.876 293.386 974.544 290.899 978.71 289.158C982.938 287.417 987.477 286.547 992.326 286.547C997.176 286.547 1001.68 287.448 1005.85 289.252C1010.08 290.992 1013.78 293.479 1016.95 296.713C1020.12 299.884 1022.61 303.645 1024.41 307.997C1026.21 312.35 1027.11 317.137 1027.11 322.36C1027.11 327.583 1026.21 332.401 1024.41 336.816C1022.61 341.168 1020.12 344.961 1016.95 348.194C1013.78 351.365 1010.08 353.852 1005.85 355.655C1001.68 357.396 997.176 358.266 992.326 358.266ZM992.326 351.272C996.368 351.272 1000.04 350.525 1003.33 349.033C1006.69 347.541 1009.58 345.458 1012 342.785C1014.43 340.111 1016.29 337.033 1017.6 333.552C1018.97 330.07 1019.65 326.339 1019.65 322.36C1019.65 318.443 1018.97 314.743 1017.6 311.262C1016.29 307.78 1014.43 304.702 1012 302.029C1009.58 299.355 1006.69 297.272 1003.33 295.78C1000.04 294.288 996.368 293.542 992.326 293.542C988.285 293.542 984.585 294.288 981.228 295.78C977.933 297.272 975.073 299.355 972.648 302.029C970.223 304.702 968.327 307.78 966.959 311.262C965.653 314.743 965 318.443 965 322.36C965 326.339 965.653 330.07 966.959 333.552C968.327 337.033 970.223 340.111 972.648 342.785C975.073 345.458 977.964 347.541 981.321 349.033C984.679 350.525 988.347 351.272 992.326 351.272Z" fill="white"/>
<path d="M881.629 357.147V287.666H888.157L914.271 325.531H910.634L936.654 287.666H943.183V357.147H935.722V297.738L938.146 298.671L912.592 335.697H912.219L886.758 298.671L889.09 297.738V357.147H881.629Z" fill="white"/>
<path d="M824.632 358.266C819.721 358.266 815.213 357.396 811.109 355.655C807.006 353.852 803.431 351.365 800.384 348.194C797.4 344.961 795.068 341.168 793.389 336.816C791.71 332.463 790.871 327.676 790.871 322.453C790.871 317.23 791.71 312.443 793.389 308.091C795.068 303.738 797.4 299.946 800.384 296.713C803.431 293.479 807.006 290.992 811.109 289.252C815.213 287.448 819.721 286.547 824.632 286.547C829.358 286.547 833.586 287.386 837.316 289.065C841.109 290.744 844.28 292.92 846.829 295.593C849.44 298.205 851.306 300.972 852.425 303.894L845.43 306.972C843.689 302.93 841.016 299.697 837.409 297.272C833.865 294.785 829.606 293.542 824.632 293.542C819.534 293.542 814.995 294.754 811.016 297.179C807.037 299.604 803.928 302.992 801.69 307.345C799.451 311.635 798.332 316.671 798.332 322.453C798.332 328.173 799.451 333.21 801.69 337.562C803.928 341.914 807.037 345.303 811.016 347.728C814.995 350.09 819.534 351.272 824.632 351.272C829.606 351.272 833.865 350.059 837.409 347.634C841.016 345.209 843.689 341.976 845.43 337.935L852.425 341.013C851.306 343.873 849.44 346.639 846.829 349.313C844.28 351.924 841.109 354.069 837.316 355.748C833.586 357.427 829.358 358.266 824.632 358.266Z" fill="white"/>
<path d="M769.059 357.147V287.666H776.52V357.147H769.059Z" fill="white"/>
<path d="M709.312 357.147V287.666H733.188C737.727 287.666 741.706 288.568 745.126 290.371C748.545 292.112 751.188 294.599 753.053 297.832C754.98 301.003 755.944 304.702 755.944 308.93C755.944 313.842 754.638 318.039 752.027 321.521C749.478 325.002 745.996 327.458 741.582 328.888L757.809 357.147H749.043L732.069 327.21L737.105 330.101H716.774V357.147H709.312ZM716.774 323.106H733.561C736.545 323.106 739.157 322.546 741.395 321.427C743.633 320.246 745.374 318.598 746.618 316.484C747.861 314.308 748.483 311.759 748.483 308.837C748.483 305.915 747.861 303.396 746.618 301.282C745.374 299.168 743.633 297.552 741.395 296.433C739.157 295.251 736.545 294.661 733.561 294.661H716.774V323.106Z" fill="white"/>
<path d="M673.618 357.147V294.661H654.406V287.666H700.105V294.661H681.08V357.147H673.618Z" fill="white"/>
<path d="M620.433 358.266C615.521 358.266 611.014 357.396 606.91 355.655C602.806 353.852 599.231 351.365 596.185 348.194C593.2 344.961 590.869 341.168 589.19 336.816C587.511 332.463 586.672 327.676 586.672 322.453C586.672 317.23 587.511 312.443 589.19 308.091C590.869 303.738 593.2 299.946 596.185 296.713C599.231 293.479 602.806 290.992 606.91 289.252C611.014 287.448 615.521 286.547 620.433 286.547C625.158 286.547 629.386 287.386 633.117 289.065C636.91 290.744 640.081 292.92 642.63 295.593C645.241 298.205 647.106 300.972 648.226 303.894L641.231 306.972C639.49 302.93 636.816 299.697 633.21 297.272C629.666 294.785 625.407 293.542 620.433 293.542C615.335 293.542 610.796 294.754 606.817 297.179C602.838 299.604 599.729 302.992 597.49 307.345C595.252 311.635 594.133 316.671 594.133 322.453C594.133 328.173 595.252 333.21 597.49 337.562C599.729 341.914 602.838 345.303 606.817 347.728C610.796 350.09 615.335 351.272 620.433 351.272C625.407 351.272 629.666 350.059 633.21 347.634C636.816 345.209 639.49 341.976 641.231 337.935L648.226 341.013C647.106 343.873 645.241 346.639 642.63 349.313C640.081 351.924 636.91 354.069 633.117 355.748C629.386 357.427 625.158 358.266 620.433 358.266Z" fill="white"/>
<path d="M531.617 357.147V287.666H576.384V294.661H539.078V318.816H574.518V325.811H539.078V350.152H576.384V357.147H531.617Z" fill="white"/>
<path d="M482.074 357.147V287.666H489.535V350.152H520.312V357.147H482.074Z" fill="white"/>
<path d="M424.969 357.147V287.666H469.735V294.661H432.43V318.816H467.87V325.811H432.43V350.152H469.735V357.147H424.969Z" fill="white"/>
<path d="M364.234 358.266C359.322 358.266 354.814 357.396 350.711 355.655C346.607 353.852 343.032 351.365 339.985 348.194C337.001 344.961 334.67 341.168 332.991 336.816C331.312 332.463 330.473 327.676 330.473 322.453C330.473 317.23 331.312 312.443 332.991 308.091C334.67 303.738 337.001 299.946 339.985 296.713C343.032 293.479 346.607 290.992 350.711 289.252C354.814 287.448 359.322 286.547 364.234 286.547C368.959 286.547 373.187 287.386 376.918 289.065C380.71 290.744 383.881 292.92 386.431 295.593C389.042 298.205 390.907 300.972 392.026 303.894L385.311 307.158C383.571 302.93 380.897 299.604 377.291 297.179C373.685 294.754 369.332 293.542 364.234 293.542C359.136 293.542 354.597 294.754 350.618 297.179C346.638 299.604 343.529 302.992 341.291 307.345C339.053 311.635 337.934 316.671 337.934 322.453C337.934 328.173 339.053 333.21 341.291 337.562C343.529 341.914 346.638 345.303 350.618 347.728C354.597 350.09 359.136 351.272 364.234 351.272C368.773 351.272 372.845 350.277 376.451 348.287C380.12 346.298 383.011 343.593 385.125 340.173C387.239 336.691 388.296 332.712 388.296 328.236V324.412L391.653 327.769H364.234V321.241H395.757V327.023C395.757 331.562 394.949 335.759 393.332 339.614C391.715 343.406 389.477 346.702 386.617 349.5C383.757 352.297 380.4 354.474 376.545 356.028C372.752 357.52 368.648 358.266 364.234 358.266Z" fill="white"/>
<path d="M263.852 357.147V287.666H270.38L311.136 346.142H308.618V287.666H316.079V357.147H309.551L268.795 298.298H271.313V357.147H263.852Z" fill="white"/>
<path d="M239.988 357.147V287.666H247.449V357.147H239.988Z" fill="white"/>
<path d="M190.441 357.147V287.666H197.902V350.152H228.679V357.147H190.441Z" fill="white"/>
<path d="M121.77 357.147V287.666H128.298L169.054 346.142H166.536V287.666H173.997V357.147H167.469L126.712 298.298H129.231V357.147H121.77Z" fill="white"/>
<path d="M64.6641 357.147V287.666H109.43V294.661H72.1251V318.816H107.565V325.811H72.1251V350.152H109.43V357.147H64.6641Z" fill="white"/>
<path d="M0 357.147V287.666H29.1914C33.1084 287.666 36.497 288.412 39.3571 289.904C42.2793 291.334 44.5176 293.355 46.072 295.966C47.6886 298.578 48.4969 301.624 48.4969 305.106C48.4969 308.712 47.5953 311.914 45.7922 314.712C44.0513 317.448 41.5332 319.531 38.2379 320.961L38.1447 318.723C40.8804 319.717 43.212 321.116 45.1394 322.92C47.129 324.723 48.6523 326.837 49.7093 329.261C50.7663 331.624 51.2948 334.173 51.2948 336.909C51.2948 343.127 49.3052 348.069 45.3259 351.738C41.4089 355.344 36.0618 357.147 29.2847 357.147H0ZM7.46106 350.152H29.2847C33.6991 350.152 37.212 349.002 39.8234 346.702C42.4969 344.339 43.8337 341.106 43.8337 337.002C43.8337 332.961 42.4969 329.759 39.8234 327.396C37.212 324.971 33.6991 323.759 29.2847 323.759H7.46106V350.152ZM7.46106 317.044H28.6318C32.3623 317.044 35.3468 315.956 37.5851 313.78C39.8856 311.604 41.0358 308.806 41.0358 305.386C41.0358 301.904 39.8856 299.262 37.5851 297.459C35.3468 295.593 32.3623 294.661 28.6318 294.661H7.46106V317.044Z" fill="white"/>
</svg>
