<svg width="222" height="90" viewBox="0 0 222 90" fill="none" xmlns="http://www.w3.org/2000/svg">
<g clip-path="url(#clip0_3554_3615)">
<path d="M137.729 13.9817C137.22 13.9817 136.796 13.8969 136.372 13.7273C135.948 13.5576 135.567 13.3032 135.27 12.964C134.973 12.6671 134.718 12.2855 134.506 11.8614C134.337 11.4374 134.252 11.0133 134.252 10.5044C134.252 9.99557 134.337 9.57151 134.506 9.14746C134.676 8.7234 134.93 8.34175 135.27 8.04491C135.567 7.74807 135.948 7.49364 136.372 7.28161C136.796 7.06958 137.263 6.98477 137.729 6.98477C138.238 6.98477 138.662 7.06958 139.086 7.23921C139.51 7.40883 139.892 7.66326 140.189 8.00251C140.486 8.29934 140.74 8.68099 140.952 9.10505C141.122 9.52911 141.206 9.95316 141.206 10.462C141.206 10.9709 141.122 11.395 140.952 11.819C140.782 12.2431 140.528 12.6247 140.189 12.9216C139.892 13.2184 139.51 13.4728 139.086 13.6849C138.662 13.8545 138.196 13.9817 137.729 13.9817ZM137.729 13.6849C138.196 13.6849 138.62 13.6 139.001 13.4304C139.383 13.2608 139.722 13.0064 140.019 12.7095C140.316 12.4127 140.528 12.0734 140.698 11.6918C140.867 11.3101 140.952 10.8861 140.952 10.4196C140.952 9.95316 140.867 9.52911 140.698 9.14746C140.528 8.76581 140.316 8.42656 140.019 8.12972C139.722 7.83288 139.383 7.62086 139.001 7.45123C138.62 7.28161 138.196 7.1968 137.729 7.1968C137.263 7.1968 136.839 7.28161 136.457 7.45123C136.075 7.62086 135.736 7.87529 135.439 8.17213C135.142 8.46897 134.93 8.80821 134.761 9.18986C134.591 9.57151 134.506 9.99557 134.506 10.462C134.506 10.9285 134.591 11.3525 134.761 11.7342C134.93 12.1158 135.142 12.4551 135.439 12.7519C135.736 13.0488 136.075 13.2608 136.457 13.4304C136.839 13.6 137.263 13.6849 137.729 13.6849ZM136.372 8.59618H137.941C138.153 8.59618 138.365 8.63859 138.535 8.68099C138.705 8.7234 138.874 8.85062 138.959 8.93543C139.044 9.02024 139.086 9.10505 139.171 9.23227C139.213 9.35948 139.256 9.4867 139.256 9.61392C139.256 9.91076 139.171 10.1652 139.001 10.3348C138.832 10.5044 138.577 10.6317 138.28 10.6741L139.468 12.1583H138.917L137.814 10.7589H136.796V12.1583H136.372V8.59618ZM137.899 10.3348C138.153 10.3348 138.408 10.2924 138.577 10.1652C138.747 10.038 138.832 9.86835 138.832 9.65632C138.832 9.44429 138.747 9.27467 138.577 9.18986C138.408 9.06265 138.196 9.02024 137.941 9.02024H136.796V10.3348H137.899Z" fill="#FF5500"/>
<path d="M78.2356 20.3425C81.8401 16.3988 86.1654 13.3032 91.2117 11.4373C112.245 3.5075 137.179 18.9007 146.933 45.8283C147.272 46.7188 147.569 47.6517 147.823 48.5422C147.781 48.3302 147.738 48.1182 147.696 47.9061C146.721 42.8599 145.067 37.8136 142.777 32.8098C130.522 6.30627 103.806 -7.05149 83.1122 2.95623C80.8647 4.01637 78.7869 5.33094 76.921 6.85754C76.7938 8.08731 76.709 9.31707 76.709 10.5468C76.709 13.9393 77.2603 17.2469 78.2356 20.3425Z" fill="#FF5500"/>
<path d="M147.78 60.6278C148.034 61.3487 148.289 62.112 148.543 62.8329C148.543 62.7481 148.501 62.6209 148.501 62.4937C147.695 58.3379 146.381 54.1822 144.472 50.1112C134.507 28.654 112.88 17.7982 96.13 25.9401C92.3135 27.7635 89.0906 30.435 86.5039 33.7003C88.5394 35.6933 90.7869 37.432 93.2888 38.8314C95.9604 36.2022 99.0984 34.1243 102.66 32.7674C119.665 26.3217 139.85 38.7889 147.78 60.6278Z" fill="#FF5500"/>
<path d="M143.625 41.715C132.557 17.8406 108.513 5.83984 89.9398 14.8298C85.7841 16.8653 82.222 19.7489 79.3809 23.2685C80.6954 26.2793 82.4341 29.0781 84.5543 31.58C87.9468 27.5091 92.1873 24.3287 97.1912 22.4628C116.104 15.2963 138.579 29.1629 147.357 53.4189C147.654 54.2246 147.908 55.0303 148.163 55.836V55.8784C148.12 55.7088 148.12 55.5392 148.078 55.3696C147.145 50.7897 145.661 46.2099 143.625 41.715Z" fill="#FF5500"/>
<path d="M39.9859 77.4628C37.5264 77.4628 35.1941 76.954 33.0738 75.9786C30.9535 75.0033 29.0877 73.6463 27.5611 71.9501C25.9921 70.2539 24.8047 68.2608 23.9142 65.9285C23.0661 63.5962 22.5996 61.1367 22.5996 58.5499V58.4651C22.5996 55.836 23.0237 53.3765 23.9142 51.0866C24.7623 48.7967 25.9921 46.8036 27.5611 45.065C29.1301 43.3263 30.9535 41.9694 33.1162 40.994C35.3213 39.9763 37.696 39.4674 40.2827 39.4674C42.8695 39.4674 43.3359 39.5947 44.6505 39.8915C45.9227 40.1883 47.11 40.57 48.1702 41.0364C49.2303 41.5453 50.2056 42.139 51.1386 42.8175C52.0291 43.5384 52.8772 44.3017 53.6405 45.1498L48.8911 51.0866C47.5765 49.772 46.2195 48.7543 44.8625 48.0334C43.5056 47.3125 41.9366 46.9308 40.2403 46.9308C38.5441 46.9308 37.5264 47.2277 36.2966 47.8213C35.0668 48.415 34.0491 49.2207 33.1586 50.2809C32.2681 51.341 31.5896 52.5708 31.1231 53.9277C30.6567 55.3271 30.4022 56.8113 30.4022 58.3803V58.4651C30.4022 60.0341 30.6567 61.5183 31.1231 62.9177C31.5896 64.3171 32.2681 65.5469 33.1162 66.607C33.9643 67.6671 34.982 68.4728 36.2118 69.1089C37.4416 69.7026 38.7561 69.9995 40.1979 69.9995C41.6397 69.9995 43.76 69.6178 45.117 68.8121C46.4739 68.0064 47.7885 66.9887 49.1031 65.6741L53.8525 70.89C53.0044 71.9077 52.0715 72.7982 51.1386 73.6039C50.2056 74.4096 49.1879 75.0881 48.043 75.6818C46.9404 76.2755 45.7106 76.6995 44.3961 76.9964C43.1239 77.2932 41.6397 77.4628 39.9859 77.4628Z" fill="#FF5500"/>
<path d="M55.209 40.0611H70.687C74.97 40.0611 78.2776 41.2909 80.5675 43.7928C82.5182 45.9131 83.4511 48.7119 83.4511 52.1891V52.2739C83.4511 55.2423 82.7726 57.6594 81.458 59.5677C80.1011 61.4335 78.3624 62.7905 76.1997 63.681L84.4688 76.7844H75.7757L68.5243 65.038H62.6724V76.7844H55.209V40.0611ZM70.2206 57.9563C72.044 57.9563 73.4858 57.4898 74.4611 56.5569C75.4364 55.5816 75.9453 54.3518 75.9453 52.7828V52.698C75.9453 50.917 75.4364 49.6024 74.3763 48.7543C73.3586 47.8638 71.9168 47.4397 70.0933 47.4397H62.6724V58.0411L70.2206 57.9563Z" fill="#FF5500"/>
<path d="M102.066 77.4629C99.4373 77.4629 97.0626 76.954 94.8575 75.9787C92.6524 75.0033 90.7866 73.6464 89.1752 71.9501C87.5638 70.2539 86.334 68.2609 85.4435 65.971C84.553 63.6811 84.1289 61.2215 84.1289 58.5924V58.5076C84.1289 55.8784 84.5954 53.4189 85.4859 51.129C86.3764 48.8391 87.6486 46.846 89.2176 45.1074C90.829 43.3688 92.6948 42.0118 94.9423 41.0365C97.1474 40.0187 99.5645 39.5523 102.151 39.5523C104.738 39.5523 107.155 40.0611 109.36 41.0365C111.565 42.0542 113.431 43.3688 115.043 45.065C116.654 46.7612 117.884 48.7543 118.774 51.0442C119.665 53.3341 120.089 55.7936 120.089 58.4228V58.5076C120.089 61.1367 119.622 63.5962 118.732 65.8861C117.841 68.176 116.569 70.1691 115 71.9077C113.389 73.6464 111.523 75.0033 109.275 75.9787C107.07 76.954 104.653 77.4629 102.066 77.4629ZM102.151 69.9995C103.678 69.9995 105.035 69.7026 106.307 69.109C107.537 68.5153 108.597 67.7096 109.487 66.6494C110.378 65.5893 111.056 64.3595 111.565 63.0026C112.074 61.6032 112.329 60.1614 112.329 58.55V58.4652C112.329 56.8962 112.074 55.412 111.565 54.0126C111.056 52.6132 110.336 51.3834 109.445 50.3233C108.512 49.2632 107.452 48.4574 106.222 47.8214C104.992 47.2277 103.593 46.9308 102.066 46.9308C100.54 46.9308 99.2253 47.2277 97.9531 47.8214C96.681 48.415 95.6208 49.2207 94.7303 50.2809C93.8398 51.341 93.1613 52.5708 92.6524 53.9278C92.1436 55.3271 91.8891 56.8113 91.8891 58.3804V58.4652C91.8891 60.0342 92.1436 61.5184 92.6524 62.9178C93.1613 64.3171 93.8822 65.5469 94.7727 66.607C95.7056 67.6672 96.7658 68.4729 98.0379 69.109C99.3101 69.7026 100.667 69.9995 102.151 69.9995Z" fill="#FF5500"/>
<path d="M116.613 40.0611H124.628L131.667 64.9532L139.258 39.9763H145.661L153.252 64.9532L160.249 40.0611H168.051L156.475 77.0388H149.986L142.353 52.9948L134.72 77.0388H128.232L116.656 40.0611H116.613Z" fill="#FF5500"/>
<path d="M168.898 40.0611H175.768L191.628 62.6633V40.0611H198.964V76.7844H192.646L176.277 53.4613V76.8268H168.941L168.898 40.0611Z" fill="#FF5500"/>
<path d="M2.49805 82.5091C2.49805 82.2547 2.54045 82.0426 2.62526 81.873C2.71007 81.7034 2.79489 81.5762 2.96451 81.449C3.09172 81.3641 3.26135 81.2369 3.43097 81.1945C3.60059 81.1521 3.81262 81.1097 3.98224 81.1097H8.68926C9.28294 81.1097 9.7494 81.1521 10.1311 81.1945C10.5127 81.2793 10.8519 81.4065 11.064 81.5338C11.3184 81.7034 11.488 81.9154 11.5728 82.1699C11.6577 82.4243 11.7425 82.7635 11.7425 83.1876C11.7425 83.6116 11.7001 83.9509 11.5728 84.2053C11.488 84.4598 11.3184 84.6718 11.1064 84.799C10.9792 84.8838 10.8944 84.9686 10.8944 85.0534C10.8944 85.1382 10.8944 85.1806 10.9368 85.2231C10.9792 85.2655 11.0216 85.2655 11.064 85.3079C11.3608 85.4775 11.6152 85.6471 11.7425 85.9439C11.9121 86.2408 11.9545 86.6224 11.9545 87.0889C11.9545 87.5978 11.9121 87.937 11.7849 88.2763C11.7001 88.5731 11.5304 88.8275 11.276 89.0396C11.064 89.2092 10.7671 89.3364 10.4279 89.4212C10.0886 89.506 9.66459 89.506 9.19813 89.506H4.02465C3.81262 89.506 3.643 89.4636 3.47338 89.4212C3.30375 89.3788 3.13413 89.294 3.00691 89.1668C2.8797 89.082 2.75248 88.9123 2.66767 88.7427C2.58286 88.5731 2.54045 88.3611 2.54045 88.1066L2.49805 82.5091ZM8.77407 84.4173C9.02851 84.4173 9.19813 84.3749 9.32534 84.2477C9.45256 84.1629 9.53737 83.9509 9.53737 83.654C9.53737 83.3572 9.49497 83.1452 9.32534 83.018C9.19813 82.9332 9.02851 82.8483 8.77407 82.8483H5.12719C4.95757 82.8483 4.87276 82.8907 4.78795 82.9332C4.74554 82.9756 4.70314 83.1028 4.70314 83.23V83.9933C4.70314 84.1629 4.74554 84.2477 4.78795 84.3325C4.83035 84.3749 4.95757 84.4173 5.12719 84.4173H8.77407ZM5.12719 86.0288C4.95757 86.0288 4.87276 86.0712 4.78795 86.1136C4.74554 86.156 4.70314 86.2832 4.70314 86.4104V87.3009C4.70314 87.4705 4.74554 87.5554 4.78795 87.6402C4.87276 87.6826 4.95757 87.725 5.12719 87.725H8.85888C9.19813 87.725 9.45256 87.6402 9.57978 87.513C9.707 87.3857 9.79181 87.1737 9.79181 86.8769C9.79181 86.58 9.7494 86.368 9.57978 86.2408C9.45256 86.1136 9.24053 86.0288 8.85888 86.0288H5.12719Z" fill="white"/>
<path d="M21.0286 87.6402C21.2407 87.6402 21.4103 87.6826 21.5375 87.8098C21.6647 87.8946 21.7071 88.0642 21.7071 88.3187V88.9123C21.7071 89.1668 21.6647 89.3364 21.5375 89.4212C21.4103 89.506 21.2407 89.5908 21.0286 89.5908H14.6678C14.4558 89.5908 14.2861 89.5484 14.1165 89.506C13.9469 89.4636 13.7773 89.3788 13.6501 89.2516C13.5228 89.1668 13.3956 88.9972 13.3108 88.8275C13.226 88.6579 13.1836 88.4459 13.1836 88.1915V82.5515C13.1836 82.2971 13.226 82.085 13.3108 81.9154C13.3956 81.7458 13.4804 81.6186 13.6501 81.4914C13.7773 81.4066 13.9469 81.2793 14.1165 81.2369C14.2861 81.1945 14.4982 81.1521 14.6678 81.1521H20.859C21.071 81.1521 21.2407 81.1945 21.3679 81.3217C21.4951 81.4066 21.5375 81.5762 21.5375 81.8306V82.3819C21.5375 82.5939 21.4951 82.8059 21.3679 82.8908C21.2407 82.9756 21.071 83.0604 20.859 83.0604H15.7703C15.6431 83.0604 15.5159 83.1028 15.4311 83.1452C15.3463 83.1876 15.3463 83.3148 15.3463 83.442V84.0357C15.3463 84.3325 15.5159 84.4598 15.7703 84.4598H20.6046C20.8166 84.4598 20.9862 84.5022 21.1134 84.6294C21.2407 84.7142 21.2831 84.8838 21.2831 85.1383V85.6047C21.2831 85.8167 21.2407 86.0288 21.1134 86.1136C20.9862 86.1984 20.8166 86.2832 20.6046 86.2832H15.7703C15.6431 86.2832 15.5159 86.3256 15.4311 86.368C15.3463 86.4104 15.3463 86.5376 15.3463 86.6649V87.2585C15.3463 87.5554 15.5159 87.6826 15.7703 87.6826L21.0286 87.6402Z" fill="white"/>
<path d="M32.8177 88.4883C32.8177 88.8275 32.7329 89.1244 32.5633 89.294C32.3936 89.4636 32.1392 89.5484 31.8 89.5484H30.0189C29.8917 89.5484 29.7645 89.5484 29.6797 89.506C29.5949 89.506 29.4677 89.4636 29.4253 89.4212C29.3404 89.3788 29.2556 89.3364 29.2132 89.2516C29.1708 89.1668 29.086 89.082 29.0012 88.9972L25.5239 83.9085C25.4815 83.8237 25.3967 83.7389 25.3543 83.6965C25.3119 83.654 25.2695 83.6116 25.1847 83.6116C25.1423 83.6116 25.0999 83.6116 25.0151 83.654C24.9727 83.6965 24.9727 83.7813 24.9727 83.9085V88.8699C24.9727 89.1244 24.9303 89.294 24.8455 89.4212C24.7606 89.5484 24.591 89.6332 24.379 89.6332H23.3613C23.1492 89.6332 22.9796 89.5484 22.8948 89.4212C22.81 89.294 22.7676 89.082 22.7676 88.8699V82.2547C22.7676 81.9154 22.8524 81.6186 23.022 81.449C23.1916 81.2793 23.4461 81.1945 23.7853 81.1945H25.6088C25.736 81.1945 25.8632 81.1945 25.948 81.2369C26.0328 81.2369 26.1176 81.2793 26.2024 81.3217C26.2872 81.3641 26.3721 81.4065 26.4145 81.4914C26.4569 81.5762 26.5417 81.661 26.6265 81.7458L30.0613 86.8345C30.1037 86.9193 30.1886 87.0041 30.231 87.0465C30.2734 87.0889 30.3158 87.1313 30.4006 87.1313C30.4854 87.1313 30.4854 87.1313 30.5702 87.0889C30.6126 87.0465 30.6126 86.9617 30.6126 86.8345V81.873C30.6126 81.6186 30.655 81.449 30.7398 81.3217C30.8246 81.1945 30.9943 81.1097 31.2063 81.1097H32.224C32.436 81.1097 32.6057 81.1945 32.6905 81.3217C32.7753 81.449 32.8177 81.661 32.8177 81.873V88.4883Z" fill="white"/>
<path d="M36.6342 87.0889C36.6342 87.4281 36.8038 87.5554 37.1007 87.5554H41.1292C41.3412 87.5554 41.5109 87.5978 41.6381 87.725C41.7653 87.8098 41.8077 87.9794 41.8077 88.2338V88.8699C41.8077 89.1244 41.7653 89.294 41.6381 89.3788C41.5109 89.4636 41.3412 89.5484 41.1292 89.5484H35.8709C35.6589 89.5484 35.4893 89.506 35.3196 89.4636C35.15 89.4212 34.9804 89.3364 34.8532 89.2092C34.726 89.1244 34.5987 88.9547 34.5139 88.7851C34.4291 88.6155 34.3867 88.4035 34.3867 88.149V81.873C34.3867 81.6186 34.4291 81.449 34.5139 81.3217C34.5987 81.1945 34.7684 81.1097 34.9804 81.1097H36.0405C36.2526 81.1097 36.4222 81.1945 36.507 81.3217C36.5918 81.449 36.6342 81.661 36.6342 81.873V87.0889Z" fill="white"/>
<path d="M44.9877 88.7851C44.9877 89.0396 44.9453 89.2092 44.8605 89.3364C44.7757 89.4636 44.6061 89.5484 44.3941 89.5484H43.3339C43.1219 89.5484 42.9523 89.4636 42.8674 89.3364C42.7826 89.2092 42.7402 88.9972 42.7402 88.7851V81.873C42.7402 81.6186 42.7826 81.449 42.8674 81.3217C42.9523 81.1945 43.1219 81.1097 43.3339 81.1097H44.3941C44.6061 81.1097 44.7757 81.1945 44.8605 81.3217C44.9453 81.449 44.9877 81.661 44.9877 81.873V88.7851Z" fill="white"/>
<path d="M56.6087 88.4883C56.6087 88.8275 56.5239 89.1244 56.3543 89.294C56.1847 89.4636 55.9302 89.5484 55.591 89.5484H53.8099C53.6827 89.5484 53.5555 89.5484 53.4707 89.506C53.3859 89.506 53.2587 89.4636 53.2163 89.4212C53.1315 89.3788 53.0466 89.3364 53.0042 89.2516C52.9618 89.1668 52.877 89.082 52.7922 88.9972L49.315 83.9085C49.2726 83.8237 49.1877 83.7389 49.1453 83.6965C49.1029 83.654 49.0605 83.6116 48.9757 83.6116C48.8909 83.6116 48.8909 83.6116 48.8061 83.654C48.7637 83.6965 48.7637 83.7813 48.7637 83.9085V88.8699C48.7637 89.1244 48.7213 89.294 48.6365 89.4212C48.5517 89.5484 48.382 89.6332 48.17 89.6332H47.1523C46.9402 89.6332 46.7706 89.5484 46.6858 89.4212C46.601 89.294 46.5586 89.082 46.5586 88.8699V82.2547C46.5586 81.9154 46.6434 81.6186 46.813 81.449C46.9826 81.2793 47.2371 81.1945 47.5763 81.1945H49.3998C49.527 81.1945 49.6542 81.1945 49.739 81.2369C49.8238 81.2369 49.9086 81.2793 49.9934 81.3217C50.0783 81.3641 50.1631 81.4065 50.2055 81.4914C50.2479 81.5762 50.3327 81.661 50.4175 81.7458L53.8524 86.8345C53.8948 86.9193 53.9796 87.0041 54.022 87.0465C54.0644 87.0889 54.1068 87.1313 54.1916 87.1313C54.2764 87.1313 54.2764 87.1313 54.3612 87.0889C54.4036 87.0465 54.4036 86.9617 54.4036 86.8345V81.873C54.4036 81.6186 54.446 81.449 54.5308 81.3217C54.6157 81.1945 54.7853 81.1097 54.9973 81.1097H56.015C56.2271 81.1097 56.3967 81.1945 56.4815 81.3217C56.5663 81.449 56.6087 81.661 56.6087 81.873V88.4883Z" fill="white"/>
<path d="M67.6749 86.58C67.6749 87.1313 67.6325 87.5978 67.5901 87.9794C67.5477 88.3611 67.3781 88.7003 67.1236 88.9124C66.8692 89.1668 66.4875 89.3364 65.9787 89.4212C65.4698 89.506 64.7489 89.5908 63.816 89.5908H63.1375C62.3742 89.5908 61.7381 89.5908 61.2292 89.5484C60.678 89.506 60.2115 89.4212 59.8723 89.3364C59.4906 89.2516 59.1938 89.082 58.9393 88.87C58.6849 88.6579 58.5153 88.4035 58.3881 88.1066C58.2609 87.8098 58.176 87.4282 58.1336 87.0041C58.0912 86.58 58.0488 86.0712 58.0488 85.4775V85.2655C58.0488 84.6718 58.0912 84.1629 58.1336 83.6965C58.176 83.23 58.2609 82.8908 58.3881 82.5515C58.5153 82.2547 58.6849 82.0002 58.9393 81.7882C59.1938 81.5762 59.4906 81.449 59.8723 81.3218C60.2539 81.2369 60.7204 81.1521 61.2292 81.1097C61.7805 81.0673 62.3742 81.0673 63.1375 81.0673H63.6888C64.4945 81.0673 65.173 81.0673 65.6394 81.1097C66.1059 81.1521 66.5299 81.1945 66.7844 81.2793C67.0388 81.3642 67.2084 81.449 67.2932 81.5762C67.3781 81.7034 67.4205 81.873 67.4205 82.1275V82.4243C67.4205 82.6787 67.3781 82.8484 67.2508 82.9332C67.1236 83.018 66.954 83.1028 66.742 83.1028H62.9679C62.3318 83.1028 61.8229 83.1028 61.4837 83.1452C61.1444 83.1876 60.8476 83.2724 60.678 83.442C60.5084 83.6117 60.3811 83.8237 60.3387 84.1205C60.2963 84.4174 60.2963 84.8414 60.2963 85.3503V85.6047C60.2963 86.1136 60.2963 86.4952 60.3387 86.7921C60.3811 87.0889 60.5084 87.3009 60.678 87.4282C60.8476 87.5978 61.1444 87.6826 61.4837 87.6826C61.8229 87.725 62.3318 87.725 62.9679 87.725H63.604C64.0704 87.725 64.4097 87.725 64.6641 87.6826C64.9185 87.6826 65.1306 87.6402 65.2154 87.5978C65.3426 87.5554 65.4274 87.513 65.4698 87.4282C65.5122 87.3433 65.5122 87.2585 65.5122 87.1313V86.6225C65.5122 86.4104 65.385 86.2832 65.173 86.2832H63.2223C63.0103 86.2832 62.8407 86.2408 62.7134 86.1136C62.5862 86.0288 62.5438 85.8592 62.5438 85.6047V85.2655C62.5438 85.011 62.5862 84.8414 62.7134 84.7566C62.8407 84.6718 63.0103 84.587 63.2223 84.587H66.5299C66.954 84.587 67.2508 84.6718 67.4205 84.8414C67.5901 85.011 67.6749 85.3079 67.6749 85.6471V86.58Z" fill="white"/>
<path d="M80.5657 87.6402C80.7778 87.6402 80.9474 87.6826 81.0746 87.8098C81.2018 87.8946 81.2442 88.0642 81.2442 88.3187V88.9123C81.2442 89.1668 81.2018 89.3364 81.0746 89.4212C80.9474 89.506 80.7778 89.5908 80.5657 89.5908H74.2049C73.9929 89.5908 73.8232 89.5484 73.6536 89.506C73.484 89.4636 73.3144 89.3788 73.1872 89.2516C73.0599 89.1668 72.9327 88.9972 72.8479 88.8275C72.7631 88.6579 72.7207 88.4459 72.7207 88.1915V82.5515C72.7207 82.2971 72.7631 82.085 72.8479 81.9154C72.9327 81.7458 73.0175 81.6186 73.1872 81.4914C73.3144 81.4066 73.484 81.2793 73.6536 81.2369C73.8232 81.1945 74.0353 81.1521 74.2049 81.1521H80.3961C80.6081 81.1521 80.7778 81.1945 80.905 81.3217C81.0322 81.4066 81.0746 81.5762 81.0746 81.8306V82.3819C81.0746 82.5939 81.0322 82.8059 80.905 82.8908C80.7778 82.9756 80.6081 83.0604 80.3961 83.0604H75.265C75.1378 83.0604 75.0106 83.1028 74.9258 83.1452C74.841 83.1876 74.841 83.3148 74.841 83.442V84.0357C74.841 84.3325 75.0106 84.4598 75.265 84.4598H80.0993C80.3113 84.4598 80.4809 84.5022 80.6081 84.6294C80.7354 84.7142 80.7778 84.8838 80.7778 85.1383V85.6047C80.7778 85.8167 80.7354 86.0288 80.6081 86.1136C80.4809 86.1984 80.3113 86.2832 80.0993 86.2832H75.265C75.1378 86.2832 75.0106 86.3256 74.9258 86.368C74.841 86.4104 74.841 86.5376 74.841 86.6649V87.2585C74.841 87.5554 75.0106 87.6826 75.265 87.6826L80.5657 87.6402Z" fill="white"/>
<path d="M84.5522 87.0889C84.5522 87.4281 84.7218 87.5554 85.0186 87.5554H89.0472C89.2592 87.5554 89.4288 87.5978 89.556 87.725C89.6833 87.8098 89.7257 87.9794 89.7257 88.2338V88.8699C89.7257 89.1244 89.6833 89.294 89.556 89.3788C89.4288 89.4636 89.2592 89.5484 89.0472 89.5484H83.7889C83.5769 89.5484 83.4072 89.506 83.2376 89.4636C83.068 89.4212 82.8984 89.3364 82.7712 89.2092C82.6439 89.1244 82.5167 88.9547 82.4319 88.7851C82.3471 88.6155 82.3047 88.4035 82.3047 88.149V81.873C82.3047 81.6186 82.3471 81.449 82.4319 81.3217C82.5167 81.1945 82.6863 81.1097 82.8984 81.1097H83.9585C84.1705 81.1097 84.3402 81.1945 84.425 81.3217C84.5098 81.449 84.5522 81.661 84.5522 81.873V87.0889Z" fill="white"/>
<path d="M98.4622 87.6402C98.6742 87.6402 98.8439 87.6826 98.9711 87.8098C99.0983 87.8946 99.1407 88.0642 99.1407 88.3187V88.9123C99.1407 89.1668 99.0983 89.3364 98.9711 89.4212C98.8439 89.506 98.6742 89.5908 98.4622 89.5908H92.1014C91.8894 89.5908 91.7197 89.5484 91.5501 89.506C91.3805 89.4636 91.2109 89.3788 91.0836 89.2516C90.9564 89.1668 90.8292 88.9972 90.7444 88.8275C90.6596 88.6579 90.6172 88.4459 90.6172 88.1915V82.5515C90.6172 82.2971 90.6596 82.085 90.7444 81.9154C90.8292 81.7458 90.914 81.6186 91.0836 81.4914C91.2109 81.4066 91.3805 81.2793 91.5501 81.2369C91.7197 81.1945 91.9318 81.1521 92.1014 81.1521H98.335C98.547 81.1521 98.7167 81.1945 98.8439 81.3217C98.9711 81.4066 99.0135 81.5762 99.0135 81.8306V82.3819C99.0135 82.5939 98.9711 82.8059 98.8439 82.8908C98.7167 82.9756 98.547 83.0604 98.335 83.0604H93.2039C93.0767 83.0604 92.9495 83.1028 92.8647 83.1452C92.7799 83.1876 92.7799 83.3148 92.7799 83.442V84.0357C92.7799 84.3325 92.9495 84.4598 93.2039 84.4598H98.0382C98.2502 84.4598 98.4198 84.5022 98.547 84.6294C98.6742 84.7142 98.7166 84.8838 98.7166 85.1383V85.6047C98.7166 85.8167 98.6742 86.0288 98.547 86.1136C98.4198 86.1984 98.2502 86.2832 98.0382 86.2832H93.2039C93.0767 86.2832 92.9495 86.3256 92.8647 86.368C92.7799 86.4104 92.7799 86.5376 92.7799 86.6649V87.2585C92.7799 87.5554 92.9495 87.6826 93.2039 87.6826L98.4622 87.6402Z" fill="white"/>
<path d="M102.277 85.4351C102.277 85.944 102.277 86.3256 102.32 86.58C102.362 86.8769 102.489 87.0889 102.659 87.2161C102.829 87.3858 103.125 87.4706 103.465 87.4706C103.804 87.513 104.313 87.513 104.949 87.513H108.935C109.147 87.513 109.317 87.5554 109.444 87.6826C109.571 87.7674 109.614 87.937 109.614 88.1915V88.5731C109.614 88.7851 109.571 88.9548 109.486 89.082C109.401 89.2092 109.232 89.3364 108.977 89.3788C108.723 89.4636 108.341 89.506 107.832 89.5484C107.324 89.5908 106.688 89.5908 105.882 89.5908H105.119C104.355 89.5908 103.719 89.5908 103.21 89.5484C102.659 89.506 102.193 89.4636 101.853 89.3364C101.472 89.2516 101.175 89.082 100.92 88.87C100.666 88.6579 100.496 88.4459 100.369 88.1066C100.242 87.8098 100.157 87.4282 100.115 87.0041C100.072 86.58 100.072 86.0712 100.072 85.4775V85.2655C100.072 84.6718 100.115 84.1629 100.157 83.6965C100.199 83.23 100.284 82.8908 100.412 82.5515C100.539 82.2547 100.708 82.0002 100.963 81.7882C101.217 81.5762 101.514 81.449 101.896 81.3218C102.277 81.2369 102.744 81.1521 103.253 81.1097C103.804 81.0673 104.398 81.0673 105.161 81.0673H105.967C106.772 81.0673 107.451 81.0673 107.917 81.1097C108.426 81.1521 108.808 81.1945 109.062 81.2793C109.317 81.3642 109.486 81.449 109.571 81.5762C109.656 81.7034 109.698 81.873 109.698 82.1275V82.4667C109.698 82.7211 109.656 82.8908 109.529 82.9756C109.401 83.0604 109.232 83.1452 109.02 83.1452H105.034C104.398 83.1452 103.889 83.1452 103.55 83.1876C103.21 83.23 102.913 83.3148 102.744 83.4844C102.574 83.6541 102.447 83.8661 102.405 84.1629C102.362 84.4598 102.362 84.8838 102.362 85.3927V85.5199L102.277 85.4351Z" fill="white"/>
<path d="M113.558 83.442C113.558 83.2724 113.516 83.1876 113.473 83.1028C113.431 83.018 113.304 83.018 113.134 83.018H110.971C110.759 83.018 110.59 82.9756 110.463 82.8484C110.335 82.7635 110.293 82.5939 110.293 82.3395V81.7458C110.293 81.5338 110.335 81.3218 110.463 81.2369C110.59 81.1521 110.759 81.0673 110.971 81.0673H118.477C118.689 81.0673 118.859 81.1097 118.986 81.2369C119.113 81.3218 119.156 81.4914 119.156 81.7458V82.3395C119.156 82.5515 119.113 82.7635 118.986 82.8484C118.859 82.9332 118.689 83.018 118.477 83.018H116.315C116.145 83.018 116.018 83.0604 115.975 83.1028C115.933 83.1452 115.891 83.2724 115.891 83.442V88.7851C115.891 89.0396 115.848 89.2092 115.763 89.3364C115.678 89.4636 115.509 89.5484 115.297 89.5484H114.237C114.025 89.5484 113.855 89.4636 113.77 89.3364C113.685 89.2092 113.643 88.9972 113.643 88.7851L113.558 83.442Z" fill="white"/>
<path d="M122.337 88.7851C122.337 88.9972 122.295 89.2092 122.21 89.3364C122.125 89.4636 121.956 89.5484 121.744 89.5484H120.684C120.472 89.5484 120.302 89.506 120.217 89.3364C120.132 89.2092 120.09 89.0396 120.09 88.7851V82.5091C120.09 82.2547 120.132 82.0426 120.217 81.873C120.302 81.7034 120.387 81.5762 120.556 81.449C120.684 81.3641 120.853 81.2369 121.023 81.1945C121.192 81.1521 121.404 81.1097 121.574 81.1097H125.899C126.451 81.1097 126.96 81.1521 127.341 81.1945C127.765 81.2369 128.062 81.4065 128.359 81.5338C128.613 81.7034 128.825 81.9578 128.953 82.2971C129.08 82.5939 129.165 83.018 129.165 83.5268V83.9933C129.165 84.5022 129.08 84.8414 128.868 85.1382C128.656 85.3927 128.401 85.6047 128.105 85.7743C128.062 85.8167 128.02 85.8167 127.977 85.8591C127.935 85.9015 127.935 85.9439 127.935 85.9864C127.935 86.0288 127.935 86.0712 127.977 86.1136C128.02 86.156 128.062 86.156 128.062 86.156C128.232 86.1984 128.401 86.3256 128.529 86.4104C128.656 86.4952 128.783 86.6648 128.868 86.8345C128.953 87.0041 129.037 87.2161 129.08 87.4705C129.122 87.725 129.122 88.0218 129.122 88.4035V88.7851C129.122 88.9972 129.08 89.2092 128.995 89.3364C128.91 89.4636 128.741 89.5484 128.529 89.5484H127.468C127.256 89.5484 127.087 89.506 127.002 89.3364C126.917 89.2092 126.875 89.0396 126.875 88.7851V88.6579C126.875 88.3187 126.875 88.0642 126.832 87.8522C126.79 87.6402 126.663 87.513 126.535 87.4281C126.366 87.3433 126.111 87.2585 125.73 87.2585C125.348 87.2585 124.882 87.2161 124.246 87.2161H122.719C122.592 87.2161 122.465 87.2585 122.38 87.3009C122.295 87.3433 122.295 87.4705 122.295 87.5978L122.337 88.7851ZM125.136 85.3503C125.475 85.3503 125.772 85.3503 126.027 85.3079C126.239 85.2655 126.451 85.2231 126.578 85.1382C126.705 85.0534 126.79 84.9686 126.832 84.8414C126.875 84.7142 126.917 84.5446 126.917 84.3325V83.8661C126.917 83.654 126.917 83.5268 126.875 83.3996C126.832 83.2724 126.748 83.1876 126.62 83.1028C126.493 83.018 126.323 82.9756 126.069 82.9332C125.815 82.8907 125.518 82.8907 125.094 82.8907H122.761C122.634 82.8907 122.507 82.9331 122.422 82.9756C122.337 83.018 122.337 83.1452 122.337 83.2724V84.8414C122.337 85.1382 122.507 85.2655 122.761 85.2655L125.136 85.3503Z" fill="white"/>
<path d="M132.894 88.7851C132.894 89.0396 132.852 89.2092 132.767 89.3364C132.682 89.4636 132.512 89.5484 132.3 89.5484H131.24C131.028 89.5484 130.859 89.4636 130.774 89.3364C130.689 89.2092 130.646 88.9972 130.646 88.7851V81.873C130.646 81.6186 130.689 81.449 130.774 81.3217C130.859 81.1945 131.028 81.1097 131.24 81.1097H132.3C132.512 81.1097 132.682 81.1945 132.767 81.3217C132.852 81.449 132.894 81.661 132.894 81.873V88.7851Z" fill="white"/>
<path d="M136.542 85.4351C136.542 85.944 136.542 86.3256 136.585 86.58C136.627 86.8769 136.754 87.0889 136.924 87.2161C137.094 87.3858 137.391 87.4706 137.73 87.4706C138.069 87.513 138.578 87.513 139.214 87.513H143.2C143.412 87.513 143.582 87.5554 143.709 87.6826C143.836 87.7674 143.879 87.937 143.879 88.1915V88.5731C143.879 88.7851 143.836 88.9548 143.751 89.082C143.667 89.2092 143.497 89.3364 143.243 89.3788C142.988 89.4636 142.606 89.506 142.098 89.5484C141.589 89.5908 140.953 89.5908 140.147 89.5908H139.341C138.578 89.5908 137.942 89.5908 137.433 89.5484C136.882 89.506 136.415 89.4636 136.076 89.3364C135.694 89.2516 135.397 89.082 135.143 88.87C134.889 88.6579 134.719 88.4459 134.592 88.1066C134.465 87.8098 134.38 87.4282 134.337 87.0041C134.295 86.58 134.295 86.0712 134.295 85.4775V85.2655C134.295 84.6718 134.337 84.1629 134.38 83.6965C134.422 83.23 134.507 82.8908 134.634 82.5515C134.761 82.2123 134.931 82.0002 135.185 81.7882C135.44 81.5762 135.737 81.449 136.118 81.3218C136.5 81.2369 136.966 81.1521 137.475 81.1097C138.027 81.0673 138.62 81.0673 139.384 81.0673H140.189C140.995 81.0673 141.673 81.0673 142.14 81.1097C142.649 81.1521 143.03 81.1945 143.285 81.2793C143.539 81.3642 143.709 81.449 143.794 81.5762C143.879 81.7034 143.921 81.873 143.921 82.1275V82.4667C143.921 82.7211 143.879 82.8908 143.751 82.9756C143.624 83.0604 143.455 83.1452 143.243 83.1452H139.256C138.62 83.1452 138.111 83.1452 137.772 83.1876C137.433 83.23 137.136 83.3148 136.966 83.4844C136.797 83.6541 136.67 83.8661 136.627 84.1629C136.585 84.4598 136.585 84.8838 136.585 85.3927V85.5199L136.542 85.4351Z" fill="white"/>
<path d="M157.449 81.8306C157.534 81.5762 157.661 81.4065 157.83 81.2793C158 81.1521 158.212 81.1097 158.509 81.1097H160.248C160.587 81.1097 160.841 81.1945 161.011 81.3641C161.18 81.5338 161.265 81.7882 161.265 82.1699V88.7851C161.265 89.0396 161.223 89.2092 161.138 89.3364C161.053 89.4636 160.884 89.5484 160.672 89.5484H159.654C159.442 89.5484 159.272 89.4636 159.187 89.3364C159.103 89.2092 159.018 89.0396 159.018 88.7851V83.8661C159.018 83.7389 159.018 83.654 158.975 83.6116C158.933 83.5692 158.891 83.5692 158.806 83.5692C158.721 83.5692 158.679 83.6116 158.636 83.654C158.594 83.6965 158.551 83.7813 158.466 83.9085L156.177 88.9123C156.092 89.1244 155.965 89.294 155.88 89.4212C155.795 89.5484 155.625 89.5908 155.413 89.5908H154.565C154.353 89.5908 154.226 89.5484 154.141 89.4212C154.056 89.294 153.929 89.1244 153.844 88.9123L151.639 83.9085C151.597 83.8237 151.554 83.7389 151.47 83.654C151.427 83.6116 151.385 83.5692 151.3 83.5692C151.215 83.5692 151.215 83.5692 151.13 83.6116C151.088 83.654 151.088 83.7389 151.088 83.8661V88.7851C151.088 89.0396 151.045 89.2092 150.961 89.3364C150.876 89.4636 150.706 89.5484 150.494 89.5484H149.476C149.264 89.5484 149.095 89.4636 149.01 89.3364C148.925 89.2092 148.883 88.9972 148.883 88.7851V82.1699C148.883 81.8306 148.968 81.5338 149.137 81.3641C149.307 81.1945 149.561 81.1097 149.901 81.1097H151.682C151.978 81.1097 152.19 81.1521 152.36 81.2793C152.53 81.4065 152.614 81.5762 152.742 81.8306L154.82 86.4528C154.862 86.5376 154.904 86.6224 154.947 86.6648C154.989 86.7072 155.032 86.7072 155.074 86.7072C155.116 86.7072 155.159 86.7072 155.201 86.6648C155.244 86.6224 155.244 86.58 155.286 86.4528L157.322 81.7882L157.449 81.8306Z" fill="white"/>
<path d="M167.626 89.5908C166.905 89.5908 166.269 89.5908 165.76 89.5484C165.251 89.506 164.785 89.4636 164.403 89.3364C164.022 89.2516 163.725 89.082 163.513 88.9124C163.301 88.7003 163.089 88.4883 163.004 88.1491C162.877 87.8522 162.792 87.4706 162.749 87.0041C162.707 86.5376 162.707 86.0288 162.707 85.3927V85.2655C162.707 84.6718 162.707 84.1205 162.749 83.6541C162.792 83.1876 162.877 82.806 163.004 82.5091C163.131 82.2123 163.301 81.9578 163.513 81.7458C163.725 81.5338 164.022 81.4066 164.403 81.3218C164.785 81.2369 165.209 81.1521 165.76 81.1097C166.269 81.0673 166.905 81.0673 167.626 81.0673H167.965C168.686 81.0673 169.322 81.0673 169.831 81.1097C170.34 81.1521 170.806 81.1945 171.188 81.3218C171.57 81.4066 171.867 81.5762 172.079 81.7458C172.291 81.9578 172.503 82.1699 172.588 82.5091C172.672 82.8484 172.8 83.1876 172.842 83.6541C172.884 84.1205 172.884 84.6294 172.884 85.2655V85.4351C172.884 86.0288 172.884 86.58 172.842 87.0465C172.8 87.513 172.715 87.8946 172.588 88.1915C172.46 88.4883 172.291 88.7427 172.079 88.9548C171.867 89.1668 171.57 89.294 171.188 89.3788C170.806 89.4636 170.382 89.5484 169.831 89.5908C169.322 89.6333 168.686 89.6333 167.965 89.6333H167.626V89.5908ZM167.881 87.6402C168.517 87.6402 169.025 87.6402 169.407 87.5978C169.789 87.5554 170.043 87.4706 170.255 87.3009C170.425 87.1313 170.552 86.9193 170.594 86.6225C170.637 86.3256 170.637 85.9016 170.637 85.3503V85.3079C170.637 84.7566 170.637 84.3326 170.594 84.0357C170.552 83.7389 170.425 83.4844 170.255 83.3148C170.086 83.1452 169.789 83.0604 169.407 83.018C169.025 82.9756 168.517 82.9756 167.881 82.9756H167.668C167.032 82.9756 166.481 82.9756 166.142 83.018C165.76 83.0604 165.506 83.1452 165.336 83.3148C165.167 83.4844 165.039 83.6965 164.997 84.0357C164.955 84.3326 164.955 84.7566 164.955 85.3079V85.3503C164.955 85.8592 164.955 86.2832 164.997 86.6225C165.039 86.9193 165.167 87.1737 165.336 87.3009C165.506 87.4706 165.803 87.5554 166.142 87.5978C166.524 87.6402 167.032 87.6402 167.668 87.6402H167.881Z" fill="white"/>
<path d="M174.326 82.5091C174.326 82.2547 174.368 82.0426 174.453 81.873C174.538 81.7034 174.622 81.5762 174.792 81.449C174.919 81.3641 175.089 81.2369 175.259 81.1945C175.428 81.1521 175.64 81.1097 175.81 81.1097H180.517C181.11 81.1097 181.577 81.1521 181.959 81.1945C182.34 81.2793 182.68 81.4065 182.892 81.5338C183.146 81.7034 183.316 81.9154 183.4 82.1699C183.485 82.4243 183.57 82.7635 183.57 83.1876C183.57 83.6116 183.528 83.9509 183.4 84.2053C183.273 84.4598 183.146 84.6718 182.934 84.799C182.807 84.8838 182.722 84.9686 182.722 85.0534C182.722 85.1382 182.722 85.1806 182.764 85.2231C182.807 85.2655 182.849 85.2655 182.892 85.3079C183.188 85.4775 183.443 85.6471 183.57 85.9439C183.74 86.2408 183.782 86.6224 183.782 87.0889C183.782 87.5978 183.74 87.937 183.612 88.2763C183.485 88.6155 183.358 88.8275 183.104 89.0396C182.892 89.2092 182.595 89.3364 182.255 89.4212C181.916 89.506 181.492 89.506 181.026 89.506H175.767C175.555 89.506 175.386 89.4636 175.216 89.4212C175.046 89.3788 174.877 89.294 174.75 89.1668C174.622 89.082 174.495 88.9123 174.41 88.7427C174.326 88.5731 174.283 88.3611 174.283 88.1066L174.326 82.5091ZM180.602 84.4173C180.856 84.4173 181.026 84.3749 181.153 84.2477C181.28 84.1629 181.365 83.9509 181.365 83.654C181.365 83.3572 181.323 83.1452 181.153 83.018C181.026 82.9332 180.856 82.8483 180.602 82.8483H176.955C176.785 82.8483 176.7 82.8907 176.616 82.9332C176.573 82.9756 176.531 83.1028 176.531 83.23V83.9933C176.531 84.1629 176.573 84.2477 176.616 84.3325C176.658 84.3749 176.785 84.4173 176.955 84.4173H180.602ZM176.955 86.0288C176.785 86.0288 176.7 86.0712 176.616 86.1136C176.573 86.156 176.531 86.2832 176.531 86.4104V87.3009C176.531 87.4705 176.573 87.5554 176.616 87.6402C176.7 87.6826 176.785 87.725 176.955 87.725H180.686C181.026 87.725 181.28 87.6402 181.407 87.513C181.535 87.3857 181.619 87.1737 181.619 86.8769C181.619 86.58 181.577 86.368 181.407 86.2408C181.28 86.1136 181.068 86.0288 180.686 86.0288H176.955Z" fill="white"/>
<path d="M187.302 88.7851C187.302 89.0396 187.26 89.2092 187.175 89.3364C187.09 89.4636 186.921 89.5484 186.709 89.5484H185.648C185.436 89.5484 185.267 89.4636 185.182 89.3364C185.097 89.2092 185.055 88.9972 185.055 88.7851V81.873C185.055 81.6186 185.097 81.449 185.182 81.3217C185.267 81.1945 185.436 81.1097 185.648 81.1097H186.709C186.921 81.1097 187.09 81.1945 187.175 81.3217C187.26 81.449 187.302 81.661 187.302 81.873V88.7851Z" fill="white"/>
<path d="M191.119 87.0889C191.119 87.4281 191.288 87.5554 191.585 87.5554H195.614C195.826 87.5554 195.995 87.5978 196.122 87.725C196.25 87.8098 196.292 87.9794 196.292 88.2338V88.8699C196.292 89.1244 196.25 89.294 196.122 89.3788C195.995 89.4636 195.826 89.5484 195.614 89.5484H190.355C190.143 89.5484 189.974 89.506 189.804 89.4636C189.634 89.4212 189.465 89.3364 189.338 89.2092C189.21 89.1244 189.083 88.9547 188.998 88.7851C188.913 88.6155 188.871 88.4035 188.871 88.149V81.873C188.871 81.6186 188.913 81.449 188.998 81.3217C189.083 81.1945 189.253 81.1097 189.465 81.1097H190.525C190.737 81.1097 190.907 81.1945 190.991 81.3217C191.076 81.449 191.119 81.661 191.119 81.873V87.0889Z" fill="white"/>
<path d="M199.472 88.7851C199.472 89.0396 199.43 89.2092 199.345 89.3364C199.26 89.4636 199.09 89.5484 198.878 89.5484H197.818C197.606 89.5484 197.437 89.4636 197.352 89.3364C197.267 89.2092 197.225 88.9972 197.225 88.7851V81.873C197.225 81.6186 197.267 81.449 197.352 81.3217C197.437 81.1945 197.606 81.1097 197.818 81.1097H198.878C199.09 81.1097 199.26 81.1945 199.345 81.3217C199.43 81.449 199.472 81.661 199.472 81.873V88.7851Z" fill="white"/>
<path d="M203.713 83.442C203.713 83.2724 203.67 83.1876 203.628 83.1028C203.585 83.018 203.458 83.018 203.288 83.018H201.126C200.914 83.018 200.744 82.9756 200.617 82.8484C200.49 82.7635 200.447 82.5939 200.447 82.3395V81.7458C200.447 81.5338 200.49 81.3218 200.617 81.2369C200.744 81.1521 200.914 81.0673 201.126 81.0673H208.589C208.801 81.0673 208.971 81.1097 209.098 81.2369C209.225 81.3218 209.268 81.4914 209.268 81.7458V82.3395C209.268 82.5515 209.225 82.7635 209.098 82.8484C208.971 82.9332 208.801 83.018 208.589 83.018H206.426C206.257 83.018 206.13 83.0604 206.087 83.1028C206.045 83.1452 206.002 83.2724 206.002 83.442V88.7851C206.002 89.0396 205.96 89.2092 205.875 89.3364C205.79 89.4636 205.621 89.5484 205.409 89.5484H204.349C204.137 89.5484 203.967 89.4636 203.882 89.3364C203.797 89.2092 203.755 88.9972 203.755 88.7851L203.713 83.442Z" fill="white"/>
<path d="M215.924 88.7851C215.924 89.0396 215.882 89.2092 215.797 89.3364C215.712 89.4636 215.543 89.5484 215.331 89.5484H214.271C214.059 89.5484 213.889 89.4636 213.804 89.3364C213.719 89.2092 213.677 88.9972 213.677 88.7851V86.9193C213.677 86.7073 213.635 86.58 213.507 86.4104L210.242 82.2971C210.157 82.2123 210.073 82.0851 210.03 82.0002C209.988 81.9154 209.945 81.7882 209.945 81.661C209.945 81.4914 209.988 81.3642 210.115 81.2369C210.2 81.1521 210.369 81.0673 210.581 81.0673H211.599C211.769 81.0673 211.938 81.1097 212.023 81.1521C212.108 81.1945 212.235 81.3218 212.32 81.449L214.61 84.3326C214.652 84.4174 214.695 84.4598 214.78 84.5022C214.822 84.5446 214.864 84.5446 214.864 84.5446C214.864 84.5446 214.949 84.5446 214.949 84.5022C214.949 84.4598 215.034 84.4174 215.119 84.3326L217.324 81.449C217.409 81.3218 217.536 81.2369 217.621 81.1521C217.748 81.1097 217.875 81.0673 218.045 81.0673H219.063C219.275 81.0673 219.402 81.1097 219.529 81.2369C219.614 81.3218 219.699 81.4914 219.699 81.661C219.699 81.8306 219.656 81.873 219.614 82.0002C219.571 82.0851 219.487 82.2123 219.402 82.2971L216.137 86.4104C216.094 86.4952 216.052 86.58 216.009 86.6225C216.009 86.7073 215.967 86.7921 215.967 86.8769L215.924 88.7851Z" fill="white"/>
</g>
<defs>
<clipPath id="clip0_3554_3615">
<rect width="220.629" height="90" fill="white" transform="translate(0.685547)"/>
</clipPath>
</defs>
</svg>
