<svg width="17" height="18" viewBox="0 0 17 18" fill="none" xmlns="http://www.w3.org/2000/svg">
<path d="M5.4521 1.43201L6.78188 4.62348C7.01459 5.15539 6.88161 5.78703 6.41619 6.15272L4.78721 7.51575C5.88427 9.84286 7.77921 11.7378 10.1063 12.8349L11.4693 11.2059C11.835 10.7405 12.4667 10.6075 12.9986 10.8402L16.1901 12.17C16.8217 12.4027 17.1209 13.1008 16.9547 13.7325L16.1568 16.658C15.9906 17.2231 15.4919 17.6221 14.8935 17.6221C6.6489 17.6221 0 10.9732 0 2.72854C0 2.13014 0.398934 1.63147 0.96409 1.46525L3.88961 0.667382C4.52125 0.50116 5.21938 0.80036 5.4521 1.43201Z" fill="#FF7700"/>
</svg>
