<svg width="24" height="25" viewBox="0 0 24 25" fill="none" xmlns="http://www.w3.org/2000/svg">
<mask id="mask0_5595_47001" style="mask-type:alpha" maskUnits="userSpaceOnUse" x="0" y="0" width="24" height="25">
<rect y="0.910156" width="24" height="24" fill="#D9D9D9"/>
</mask>
<g mask="url(#mask0_5595_47001)">
<path d="M21.5186 12.7549C21.5186 17.6258 17.8376 21.6414 13.1527 22.2363V15.6923H15.7182L16.2388 12.7549H13.1527V11.751C13.1527 10.1894 13.7476 9.59445 15.3092 9.59445C15.7926 9.59445 16.1644 9.63163 16.3875 9.63163V7.02889C15.9785 6.88016 14.9374 6.76862 14.3425 6.76862C11.1449 6.76862 9.69475 8.29308 9.69475 11.5279V12.7549H7.72411V15.6923H9.69475V22.0132C5.53037 20.9721 2.48145 17.2168 2.48145 12.7549C2.48145 7.51226 6.72019 3.23633 12 3.23633C17.2427 3.23633 21.5186 7.51226 21.5186 12.7549Z" fill="#FF7700"/>
</g>
</svg>
