<svg width="24" height="25" viewBox="0 0 24 25" fill="none" xmlns="http://www.w3.org/2000/svg">
<mask id="mask0_3502_11996" style="mask-type:alpha" maskUnits="userSpaceOnUse" x="0" y="0" width="24" height="25">
<rect y="0.977539" width="24" height="24" fill="#D9D9D9"/>
</mask>
<g mask="url(#mask0_3502_11996)">
<path d="M12 21.9178C11.8052 21.9178 11.6104 21.8842 11.4155 21.817C11.2205 21.7497 11.0442 21.6455 10.8865 21.5045C9.98919 20.6775 9.14944 19.8259 8.36728 18.9495C7.58528 18.0734 6.90553 17.1975 6.32803 16.3218C5.75036 15.4461 5.29328 14.5782 4.95678 13.718C4.62028 12.8577 4.45203 12.0269 4.45203 11.2255C4.45203 8.91787 5.19844 7.04962 6.69128 5.62079C8.18428 4.19196 9.95386 3.47754 12 3.47754C14.0462 3.47754 15.8158 4.19196 17.3088 5.62079C18.8016 7.04962 19.548 8.91787 19.548 11.2255C19.548 12.0269 19.3798 12.856 19.0433 13.713C18.7068 14.5702 18.2514 15.4382 17.677 16.317C17.1025 17.1959 16.4243 18.0718 15.6423 18.9448C14.8603 19.818 14.0205 20.668 13.123 21.4948C12.9677 21.6358 12.7911 21.7415 12.5933 21.812C12.3956 21.8825 12.1979 21.9178 12 21.9178ZM12.0018 12.8428C12.4993 12.8428 12.9246 12.6656 13.2778 12.3113C13.6311 11.957 13.8078 11.531 13.8078 11.0335C13.8078 10.536 13.6306 10.1106 13.2763 9.75729C12.9219 9.40412 12.4959 9.22754 11.9983 9.22754C11.5008 9.22754 11.0754 9.40471 10.7223 9.75904C10.3689 10.1134 10.1923 10.5394 10.1923 11.037C10.1923 11.5345 10.3694 11.9599 10.7238 12.313C11.0781 12.6662 11.5041 12.8428 12.0018 12.8428Z" fill="#FF7700"/>
</g>
</svg>
