<svg width="19" height="16" viewBox="0 0 19 16" fill="none" xmlns="http://www.w3.org/2000/svg">
<path d="M1.78125 0.977539H17.2188C18.1836 0.977539 19 1.79395 19 2.75879C19 3.35254 18.7031 3.87207 18.2578 4.20605L10.2051 10.2549C9.75977 10.5889 9.20312 10.5889 8.75781 10.2549L0.705078 4.20605C0.259766 3.87207 0 3.35254 0 2.75879C0 1.79395 0.779297 0.977539 1.78125 0.977539ZM0 5.13379L8.05273 11.2197C8.90625 11.8506 10.0566 11.8506 10.9102 11.2197L19 5.13379V12.8525C19 14.1885 17.9238 15.2275 16.625 15.2275H2.375C1.03906 15.2275 0 14.1885 0 12.8525V5.13379Z" fill="#FF7700"/>
</svg>
